  0
SECTION
  2
HEADER
  9
$ACADVER
  1
AC1032
  9
$ACADMAINTVER
 90
      228
  9
$DWGCODEPAGE
  3
ANSI_1252
  9
$REQUIREDVERSIONS
160
                 0
  9
$INSBASE
 10
0.0
 20
0.0
 30
0.0
  9
$EXTMIN
 10
1.000000000000000E+20
 20
1.000000000000000E+20
 30
1.000000000000000E+20
  9
$EXTMAX
 10
-1.000000000000000E+20
 20
-1.000000000000000E+20
 30
-1.000000000000000E+20
  9
$LIMMIN
 10
0.0
 20
0.0
  9
$LIMMAX
 10
12.0
 20
9.0
  9
$ORTHOMODE
 70
     0
  9
$REGENMODE
 70
     1
  9
$FILLMODE
 70
     1
  9
$QTEXTMODE
 70
     0
  9
$MIRRTEXT
 70
     0
  9
$LTSCALE
 40
1.0
  9
$ATTMODE
 70
     1
  9
$TEXTSIZE
 40
0.2
  9
$TRACEWID
 40
0.05
  9
$TEXTSTYLE
  7
Standard
  9
$CLAYER
  8
0
  9
$CELTYPE
  6
ByLayer
  9
$CECOLOR
 62
   256
  9
$CELTSCALE
 40
1.0
  9
$DISPSILH
 70
     0
  9
$DIMSCALE
 40
1.0
  9
$DIMASZ
 40
0.18
  9
$DIMEXO
 40
0.0625
  9
$DIMDLI
 40
0.38
  9
$DIMRND
 40
0.0
  9
$DIMDLE
 40
0.0
  9
$DIMEXE
 40
0.18
  9
$DIMTP
 40
0.0
  9
$DIMTM
 40
0.0
  9
$DIMTXT
 40
0.18
  9
$DIMCEN
 40
0.09
  9
$DIMTSZ
 40
0.0
  9
$DIMTOL
 70
     0
  9
$DIMLIM
 70
     0
  9
$DIMTIH
 70
     1
  9
$DIMTOH
 70
     1
  9
$DIMSE1
 70
     0
  9
$DIMSE2
 70
     0
  9
$DIMTAD
 70
     0
  9
$DIMZIN
 70
     0
  9
$DIMBLK
  1

  9
$DIMASO
 70
     1
  9
$DIMSHO
 70
     1
  9
$DIMPOST
  1

  9
$DIMAPOST
  1

  9
$DIMALT
 70
     0
  9
$DIMALTD
 70
     2
  9
$DIMALTF
 40
25.4
  9
$DIMLFAC
 40
1.0
  9
$DIMTOFL
 70
     0
  9
$DIMTVP
 40
0.0
  9
$DIMTIX
 70
     0
  9
$DIMSOXD
 70
     0
  9
$DIMSAH
 70
     0
  9
$DIMBLK1
  1

  9
$DIMBLK2
  1

  9
$DIMSTYLE
  2
Standard
  9
$DIMCLRD
 70
     0
  9
$DIMCLRE
 70
     0
  9
$DIMCLRT
 70
     0
  9
$DIMTFAC
 40
1.0
  9
$DIMGAP
 40
0.09
  9
$DIMJUST
 70
     0
  9
$DIMSD1
 70
     0
  9
$DIMSD2
 70
     0
  9
$DIMTOLJ
 70
     1
  9
$DIMTZIN
 70
     0
  9
$DIMALTZ
 70
     0
  9
$DIMALTTZ
 70
     0
  9
$DIMUPT
 70
     0
  9
$DIMDEC
 70
     4
  9
$DIMTDEC
 70
     4
  9
$DIMALTU
 70
     2
  9
$DIMALTTD
 70
     2
  9
$DIMTXSTY
  7
Standard
  9
$DIMAUNIT
 70
     0
  9
$DIMADEC
 70
     0
  9
$DIMALTRND
 40
0.0
  9
$DIMAZIN
 70
     0
  9
$DIMDSEP
 70
    46
  9
$DIMATFIT
 70
     3
  9
$DIMFRAC
 70
     0
  9
$DIMLDRBLK
  1

  9
$DIMLUNIT
 70
     2
  9
$DIMLWD
 70
    -2
  9
$DIMLWE
 70
    -2
  9
$DIMTMOVE
 70
     0
  9
$DIMFXL
 40
1.0
  9
$DIMFXLON
 70
     0
  9
$DIMJOGANG
 40
0.7853981633974483
  9
$DIMTFILL
 70
     0
  9
$DIMTFILLCLR
 70
     0
  9
$DIMARCSYM
 70
     0
  9
$DIMLTYPE
  6

  9
$DIMLTEX1
  6

  9
$DIMLTEX2
  6

  9
$DIMTXTDIRECTION
 70
     0
  9
$LUNITS
 70
     2
  9
$LUPREC
 70
     4
  9
$SKETCHINC
 40
0.1
  9
$FILLETRAD
 40
0.0
  9
$AUNITS
 70
     0
  9
$AUPREC
 70
     0
  9
$MENU
  1
.
  9
$ELEVATION
 40
0.0
  9
$PELEVATION
 40
0.0
  9
$THICKNESS
 40
0.0
  9
$LIMCHECK
 70
     0
  9
$CHAMFERA
 40
0.0
  9
$CHAMFERB
 40
0.0
  9
$CHAMFERC
 40
0.0
  9
$CHAMFERD
 40
0.0
  9
$SKPOLY
 70
     0
  9
$TDCREATE
 40
2460616.480451389
  9
$TDUCREATE
 40
2460616.022118056
  9
$TDUPDATE
 40
2460616.480451389
  9
$TDUUPDATE
 40
2460616.022118056
  9
$TDINDWG
 40
0.0000000000
  9
$TDUSRTIMER
 40
0.0000000000
  9
$USRTIMER
 70
     1
  9
$ANGBASE
 50
0.0
  9
$ANGDIR
 70
     0
  9
$PDMODE
 70
     0
  9
$PDSIZE
 40
0.0
  9
$PLINEWID
 40
0.0
  9
$SPLFRAME
 70
     0
  9
$SPLINETYPE
 70
     6
  9
$SPLINESEGS
 70
     8
  9
$HANDSEED
  5
D3
  9
$SURFTAB1
 70
     6
  9
$SURFTAB2
 70
     6
  9
$SURFTYPE
 70
     6
  9
$SURFU
 70
     6
  9
$SURFV
 70
     6
  9
$UCSBASE
  2

  9
$UCSNAME
  2

  9
$UCSORG
 10
0.0
 20
0.0
 30
0.0
  9
$UCSXDIR
 10
1.0
 20
0.0
 30
0.0
  9
$UCSYDIR
 10
0.0
 20
1.0
 30
0.0
  9
$UCSORTHOREF
  2

  9
$UCSORTHOVIEW
 70
     0
  9
$UCSORGTOP
 10
0.0
 20
0.0
 30
0.0
  9
$UCSORGBOTTOM
 10
0.0
 20
0.0
 30
0.0
  9
$UCSORGLEFT
 10
0.0
 20
0.0
 30
0.0
  9
$UCSORGRIGHT
 10
0.0
 20
0.0
 30
0.0
  9
$UCSORGFRONT
 10
0.0
 20
0.0
 30
0.0
  9
$UCSORGBACK
 10
0.0
 20
0.0
 30
0.0
  9
$PUCSBASE
  2

  9
$PUCSNAME
  2

  9
$PUCSORG
 10
0.0
 20
0.0
 30
0.0
  9
$PUCSXDIR
 10
1.0
 20
0.0
 30
0.0
  9
$PUCSYDIR
 10
0.0
 20
1.0
 30
0.0
  9
$PUCSORTHOREF
  2

  9
$PUCSORTHOVIEW
 70
     0
  9
$PUCSORGTOP
 10
0.0
 20
0.0
 30
0.0
  9
$PUCSORGBOTTOM
 10
0.0
 20
0.0
 30
0.0
  9
$PUCSORGLEFT
 10
0.0
 20
0.0
 30
0.0
  9
$PUCSORGRIGHT
 10
0.0
 20
0.0
 30
0.0
  9
$PUCSORGFRONT
 10
0.0
 20
0.0
 30
0.0
  9
$PUCSORGBACK
 10
0.0
 20
0.0
 30
0.0
  9
$USERI1
 70
     0
  9
$USERI2
 70
     0
  9
$USERI3
 70
     0
  9
$USERI4
 70
     0
  9
$USERI5
 70
     0
  9
$USERR1
 40
0.0
  9
$USERR2
 40
0.0
  9
$USERR3
 40
0.0
  9
$USERR4
 40
0.0
  9
$USERR5
 40
0.0
  9
$WORLDVIEW
 70
     1
  9
$SHADEDGE
 70
     3
  9
$SHADEDIF
 70
    70
  9
$TILEMODE
 70
     1
  9
$MAXACTVP
 70
    64
  9
$PINSBASE
 10
0.0
 20
0.0
 30
0.0
  9
$PLIMCHECK
 70
     0
  9
$PEXTMIN
 10
1.000000000000000E+20
 20
1.000000000000000E+20
 30
1.000000000000000E+20
  9
$PEXTMAX
 10
-1.000000000000000E+20
 20
-1.000000000000000E+20
 30
-1.000000000000000E+20
  9
$PLIMMIN
 10
0.0
 20
0.0
  9
$PLIMMAX
 10
12.0
 20
9.0
  9
$UNITMODE
 70
     0
  9
$VISRETAIN
 70
     1
  9
$PLINEGEN
 70
     0
  9
$PSLTSCALE
 70
     1
  9
$TREEDEPTH
 70
  3020
  9
$CMLSTYLE
  2
Standard
  9
$CMLJUST
 70
     0
  9
$CMLSCALE
 40
1.0
  9
$PROXYGRAPHICS
 70
     1
  9
$MEASUREMENT
 70
     0
  9
$CELWEIGHT
370
    -1
  9
$ENDCAPS
280
     0
  9
$JOINSTYLE
280
     0
  9
$LWDISPLAY
290
     1
  9
$INSUNITS
 70
     4
  9
$HYPERLINKBASE
  1

  9
$STYLESHEET
  1

  9
$XEDIT
290
     1
  9
$CEPSNTYPE
380
     0
  9
$PSTYLEMODE
290
     1
  9
$FINGERPRINTGUID
  2
{3CF1AE3D-CEF3-3040-86C4-670F3F7FB9DA}
  9
$VERSIONGUID
  2
{9469E88E-8E9B-D144-A4E1-1EB60B7B7655}
  9
$EXTNAMES
290
     1
  9
$PSVPSCALE
 40
0.0
  9
$OLESTARTUP
290
     0
  9
$SORTENTS
280
   127
  9
$INDEXCTL
280
     0
  9
$HIDETEXT
280
     1
  9
$XCLIPFRAME
280
     2
  9
$HALOGAP
280
     0
  9
$OBSCOLOR
 70
   257
  9
$OBSLTYPE
280
     0
  9
$INTERSECTIONDISPLAY
280
     0
  9
$INTERSECTIONCOLOR
 70
   257
  9
$DIMASSOC
280
     2
  9
$PROJECTNAME
  1

  9
$CAMERADISPLAY
290
     0
  9
$LENSLENGTH
 40
50.0
  9
$CAMERAHEIGHT
 40
0.0
  9
$STEPSPERSEC
 40
2.0
  9
$STEPSIZE
 40
6.0
  9
$3DDWFPREC
 40
2.0
  9
$PSOLWIDTH
 40
0.25
  9
$PSOLHEIGHT
 40
4.0
  9
$LOFTANG1
 40
1.570796326794896
  9
$LOFTANG2
 40
1.570796326794896
  9
$LOFTMAG1
 40
0.0
  9
$LOFTMAG2
 40
0.0
  9
$LOFTPARAM
 70
     7
  9
$LOFTNORMALS
280
     1
  9
$LATITUDE
 40
37.795
  9
$LONGITUDE
 40
-122.394
  9
$NORTHDIRECTION
 40
0.0
  9
$TIMEZONE
 70
 -8000
  9
$LIGHTGLYPHDISPLAY
280
     1
  9
$TILEMODELIGHTSYNCH
280
     1
  9
$CMATERIAL
347
11
  9
$SOLIDHIST
280
     0
  9
$SHOWHIST
280
     1
  9
$DWFFRAME
280
     2
  9
$DGNFRAME
280
     0
  9
$REALWORLDSCALE
290
     1
  9
$INTERFERECOLOR
 62
     1
  9
$INTERFEREOBJVS
345
33
  9
$INTERFEREVPVS
346
30
  9
$CSHADOW
280
     0
  9
$SHADOWPLANELOCATION
 40
0.0
  0
ENDSEC
  0
SECTION
  2
CLASSES
  0
CLASS
  1
ACDBDICTIONARYWDFLT
  2
AcDbDictionaryWithDefault
  3
ObjectDBX Classes
 90
        0
 91
        1
280
     0
281
     0
  0
CLASS
  1
MATERIAL
  2
AcDbMaterial
  3
ObjectDBX Classes
 90
     1153
 91
        3
280
     0
281
     0
  0
CLASS
  1
VISUALSTYLE
  2
AcDbVisualStyle
  3
ObjectDBX Classes
 90
     4095
 91
       24
280
     0
281
     0
  0
CLASS
  1
SCALE
  2
AcDbScale
  3
ObjectDBX Classes
 90
     1153
 91
       17
280
     0
281
     0
  0
CLASS
  1
TABLESTYLE
  2
AcDbTableStyle
  3
ObjectDBX Classes
 90
     4095
 91
        1
280
     0
281
     0
  0
CLASS
  1
MLEADERSTYLE
  2
AcDbMLeaderStyle
  3
ACDB_MLEADERSTYLE_CLASS
 90
     4095
 91
        1
280
     0
281
     0
  0
CLASS
  1
ACDBSECTIONVIEWSTYLE
  2
AcDbSectionViewStyle
  3
ObjectDBX Classes
 90
     1025
 91
        1
280
     0
281
     0
  0
CLASS
  1
ACDBDETAILVIEWSTYLE
  2
AcDbDetailViewStyle
  3
ObjectDBX Classes
 90
     1025
 91
        1
280
     0
281
     0
  0
CLASS
  1
DICTIONARYVAR
  2
AcDbDictionaryVar
  3
ObjectDBX Classes
 90
        0
 91
        5
280
     0
281
     0
  0
CLASS
  1
CELLSTYLEMAP
  2
AcDbCellStyleMap
  3
ObjectDBX Classes
 90
     1152
 91
        1
280
     0
281
     0
  0
ENDSEC
  0
SECTION
  2
TABLES
  0
TABLE
  2
VPORT
  5
8
330
0
100
AcDbSymbolTable
 70
     1
  0
VPORT
  5
57
330
8
100
AcDbSymbolTableRecord
100
AcDbViewportTableRecord
  2
*Active
 70
     0
 10
0.0
 20
0.0
 11
1.0
 21
1.0
 12
0.0
 22
0.0
 13
0.0
 23
0.0
 14
1.0
 24
1.0
 15
0.0
 25
0.0
 16
0.0
 26
0.0
 36
1.0
 17
249.9999999375054
 27
-199.9999999499937
 37
0.0
 40
407.9999998979871
 41
1.250000000000066
 42
50.0
 43
0.0
 44
0.0
 50
0.0
 51
0.0
 71
     0
 72
   100
 73
     1
 74
     1
 75
     0
 76
     0
 77
     0
 78
     0
281
     0
 65
     1
110
0.0
120
0.0
130
0.0
111
1.0
121
0.0
131
0.0
112
0.0
122
1.0
132
0.0
 79
     0
146
0.0
 60
     3
 61
     5
292
     1
282
     1
141
0.0
142
0.0
 63
   250
421
  3355443
  0
ENDTAB
  0
TABLE
  2
LTYPE
  5
5
330
0
100
AcDbSymbolTable
 70
     1
  0
LTYPE
  5
5B
330
5
100
AcDbSymbolTableRecord
100
AcDbLinetypeTableRecord
  2
ByBlock
 70
     0
  3

 72
    65
 73
     0
 40
0.0
  0
LTYPE
  5
5C
330
5
100
AcDbSymbolTableRecord
100
AcDbLinetypeTableRecord
  2
ByLayer
 70
     0
  3

 72
    65
 73
     0
 40
0.0
  0
LTYPE
  5
5D
330
5
100
AcDbSymbolTableRecord
100
AcDbLinetypeTableRecord
  2
Continuous
 70
     0
  3
Solid line
 72
    65
 73
     0
 40
0.0
  0
ENDTAB
  0
TABLE
  2
LAYER
  5
2
330
0
100
AcDbSymbolTable
 70
     2
  0
LAYER
  5
54
330
2
100
AcDbSymbolTableRecord
100
AcDbLayerTableRecord
  2
0
 70
     0
 62
     7
  6
Continuous
370
    -3
390
F
347
21
348
0
  0
LAYER
  5
78
330
2
100
AcDbSymbolTableRecord
100
AcDbLayerTableRecord
  2
Layer 1
 70
     0
 62
     7
  6
Continuous
370
     0
390
F
347
21
348
0
  0
ENDTAB
  0
TABLE
  2
STYLE
  5
3
330
0
100
AcDbSymbolTable
 70
     2
  0
STYLE
  5
55
330
3
100
AcDbSymbolTableRecord
100
AcDbTextStyleTableRecord
  2
Standard
 70
     0
 40
0.0
 41
1.0
 50
0.0
 71
     0
 42
0.2
  3
txt
  4

  0
STYLE
  5
5A
330
3
100
AcDbSymbolTableRecord
100
AcDbTextStyleTableRecord
  2
Annotative
 70
     0
 40
0.0
 41
1.0
 50
0.0
 71
     0
 42
0.2
  3
txt
  4

1001
AcadAnnotative
1000
AnnotativeData
1002
{
1070
     1
1070
     1
1002
}
  0
ENDTAB
  0
TABLE
  2
VIEW
  5
6
330
0
100
AcDbSymbolTable
 70
     0
  0
ENDTAB
  0
TABLE
  2
UCS
  5
7
330
0
100
AcDbSymbolTable
 70
     0
  0
ENDTAB
  0
TABLE
  2
APPID
  5
9
330
0
100
AcDbSymbolTable
 70
     2
  0
APPID
  5
56
330
9
100
AcDbSymbolTableRecord
100
AcDbRegAppTableRecord
  2
ACAD
 70
     0
  0
APPID
  5
5E
330
9
100
AcDbSymbolTableRecord
100
AcDbRegAppTableRecord
  2
AcadAnnotative
 70
     0
  0
ENDTAB
  0
TABLE
  2
DIMSTYLE
  5
A
330
0
100
AcDbSymbolTable
 70
     2
100
AcDbDimStyleTable
 71
     0
  0
DIMSTYLE
105
58
330
A
100
AcDbSymbolTableRecord
100
AcDbDimStyleTableRecord
  2
Standard
 70
     0
340
55
  0
DIMSTYLE
105
59
330
A
100
AcDbSymbolTableRecord
100
AcDbDimStyleTableRecord
  2
Annotative
 70
     0
340
55
1001
AcadAnnotative
1000
AnnotativeData
1002
{
1070
     1
1070
     1
1002
}
  0
ENDTAB
  0
TABLE
  2
BLOCK_RECORD
  5
1
330
0
100
AcDbSymbolTable
 70
     5
  0
BLOCK_RECORD
  5
70
330
1
100
AcDbSymbolTableRecord
100
AcDbBlockTableRecord
  2
*Model_Space
340
73
 70
     0
280
     1
281
     0
  0
BLOCK_RECORD
  5
6C
330
1
100
AcDbSymbolTableRecord
100
AcDbBlockTableRecord
  2
*Paper_Space
340
6F
 70
     0
280
     1
281
     0
  0
BLOCK_RECORD
  5
74
330
1
100
AcDbSymbolTableRecord
100
AcDbBlockTableRecord
  2
*Paper_Space0
340
77
 70
     0
280
     1
281
     0
  0
BLOCK_RECORD
  5
7E
330
1
100
AcDbSymbolTableRecord
100
AcDbBlockTableRecord
  2
Block_0
340
0
102
{BLKREFS
331
7F
102
}
 70
     0
280
     1
281
     0
  0
BLOCK_RECORD
  5
82
330
1
100
AcDbSymbolTableRecord
100
AcDbBlockTableRecord
  2
Block_1
340
0
102
{BLKREFS
331
83
102
}
 70
     0
280
     1
281
     0
  0
BLOCK_RECORD
  5
BA
330
1
100
AcDbSymbolTableRecord
100
AcDbBlockTableRecord
  2
Block_2
340
0
102
{BLKREFS
331
BB
102
}
 70
     0
280
     1
281
     0
  0
BLOCK_RECORD
  5
BE
330
1
100
AcDbSymbolTableRecord
100
AcDbBlockTableRecord
  2
Block_3
340
0
102
{BLKREFS
331
BF
102
}
 70
     0
280
     1
281
     0
  0
ENDTAB
  0
ENDSEC
  0
SECTION
  2
BLOCKS
  0
BLOCK
  5
71
330
70
100
AcDbEntity
  8
0
100
AcDbBlockBegin
  2
*Model_Space
 70
     0
 10
0.0
 20
0.0
 30
0.0
  3
*Model_Space
  1

  0
ENDBLK
  5
72
330
70
100
AcDbEntity
  8
0
100
AcDbBlockEnd
  0
BLOCK
  5
6D
330
6C
100
AcDbEntity
 67
     1
  8
0
100
AcDbBlockBegin
  2
*Paper_Space
 70
     0
 10
0.0
 20
0.0
 30
0.0
  3
*Paper_Space
  1

  0
ENDBLK
  5
6E
330
6C
100
AcDbEntity
 67
     1
  8
0
100
AcDbBlockEnd
  0
BLOCK
  5
75
330
74
100
AcDbEntity
 67
     1
  8
0
100
AcDbBlockBegin
  2
*Paper_Space0
 70
     0
 10
0.0
 20
0.0
 30
0.0
  3
*Paper_Space0
  1

  0
ENDBLK
  5
76
330
74
100
AcDbEntity
 67
     1
  8
0
100
AcDbBlockEnd
  0
BLOCK
  5
80
330
7E
100
AcDbEntity
  8
0
100
AcDbBlockBegin
  2
Block_0
 70
     0
 10
0.0
 20
0.0
 30
0.0
  3
Block_0
  1

  0
INSERT
  5
83
330
7E
100
AcDbEntity
  8
Layer 1
100
AcDbBlockReference
  2
Block_1
 10
0.0
 20
0.0
 30
0.0
  0
ENDBLK
  5
81
330
7E
100
AcDbEntity
  8
0
100
AcDbBlockEnd
  0
BLOCK
  5
84
330
82
100
AcDbEntity
  8
0
100
AcDbBlockBegin
  2
Block_1
 70
     0
 10
0.0
 20
0.0
 30
0.0
  3
Block_1
  1

  0
SPLINE
  5
86
330
82
100
AcDbEntity
  8
Layer 1
100
AcDbSpline
210
0.0
220
0.0
230
1.0
 70
     9
 71
     3
 72
    26
 73
    22
 74
     0
 42
0.0000000001
 43
0.0000000001
 40
0.0
 40
0.0
 40
0.0
 40
0.0
 40
1.0
 40
1.0
 40
1.0
 40
2.0
 40
2.0
 40
2.0
 40
3.0
 40
3.0
 40
3.0
 40
4.0
 40
4.0
 40
4.0
 40
5.0
 40
5.0
 40
5.0
 40
6.0
 40
6.0
 40
6.0
 40
7.0
 40
7.0
 40
7.0
 40
7.0
 10
286.1829479473769
 20
-226.6245498736016
 30
0.0
 10
286.5651553148698
 20
-226.5322672101828
 30
0.0
 10
286.9441566553863
 20
-226.3811726290394
 30
0.0
 10
287.3302473126761
 20
-226.3601257834331
 30
0.0
 10
288.0989801404291
 20
-226.318221254977
 30
0.0
 10
288.8747641205396
 20
-226.3090263963255
 30
0.0
 10
289.64072532674
 20
-226.3713040854864
 30
0.0
 10
289.8731546385116
 20
-226.3902026616623
 30
0.0
 10
290.2273170977161
 20
-226.657015069904
 30
0.0
 10
290.2722153203772
 20
-226.865003392055
 30
0.0
 10
290.3590921878952
 20
-227.2674532399681
 30
0.0
 10
290.0041064282154
 20
-227.4039878199625
 30
0.0
 10
289.6428210509578
 20
-227.4063130837845
 30
0.0
 10
288.7272722049277
 20
-227.4122081032435
 30
0.0
 10
287.8110213272369
 20
-227.4274218774286
 30
0.0
 10
286.8965104565167
 20
-227.3961890045772
 30
0.0
 10
286.655929308513
 20
-227.3879709337256
 30
0.0
 10
286.4206574391563
 20
-227.2243086445535
 30
0.0
 10
286.1829477788527
 20
-227.1320281935654
 30
0.0
 10
286.1829479560194
 20
-226.9628691223161
 30
0.0
 10
286.1829479560194
 20
-226.7937089448502
 30
0.0
 10
286.1829479473769
 20
-226.6245498736016
 30
0.0
  0
HATCH
  5
87
330
82
100
AcDbEntity
  8
Layer 1
 62
    18
420
        0
440
 33554687
100
AcDbHatch
 10
0.0
 20
0.0
 30
0.0
210
0.0
220
0.0
230
1.0
  2
SOLID
 70
     1
 71
     1
 91
        1
 92
        1
 93
        1
 72
     4
 94
        3
 73
     0
 74
     0
 95
       26
 96
       22
 40
0.0
 40
0.0
 40
0.0
 40
0.0
 40
1.0
 40
1.0
 40
1.0
 40
2.0
 40
2.0
 40
2.0
 40
3.0
 40
3.0
 40
3.0
 40
4.0
 40
4.0
 40
4.0
 40
5.0
 40
5.0
 40
5.0
 40
6.0
 40
6.0
 40
6.0
 40
7.0
 40
7.0
 40
7.0
 40
7.0
 10
286.1829479473769
 20
-226.6245498736016
 10
286.5651553148698
 20
-226.5322672101828
 10
286.9441566553863
 20
-226.3811726290394
 10
287.3302473126761
 20
-226.3601257834331
 10
288.0989801404291
 20
-226.318221254977
 10
288.8747641205396
 20
-226.3090263963255
 10
289.64072532674
 20
-226.3713040854864
 10
289.8731546385116
 20
-226.3902026616623
 10
290.2273170977161
 20
-226.657015069904
 10
290.2722153203772
 20
-226.865003392055
 10
290.3590921878952
 20
-227.2674532399681
 10
290.0041064282154
 20
-227.4039878199625
 10
289.6428210509578
 20
-227.4063130837845
 10
288.7272722049277
 20
-227.4122081032435
 10
287.8110213272369
 20
-227.4274218774286
 10
286.8965104565167
 20
-227.3961890045772
 10
286.655929308513
 20
-227.3879709337256
 10
286.4206574391563
 20
-227.2243086445535
 10
286.1829477788527
 20
-227.1320281935654
 10
286.1829479560194
 20
-226.9628691223161
 10
286.1829479560194
 20
-226.7937089448502
 10
286.1829479473769
 20
-226.6245498736016
 97
        0
 97
        1
330
86
 75
     2
 76
     1
 98
        1
 10
0.0
 20
0.0
450
        0
451
        0
460
0.0
461
0.0
452
        0
462
0.0
453
        0
470

  0
SPLINE
  5
88
330
82
100
AcDbEntity
  8
Layer 1
100
AcDbSpline
210
0.0
220
0.0
230
1.0
 70
     9
 71
     3
 72
    26
 73
    22
 74
     0
 42
0.0000000001
 43
0.0000000001
 40
0.0
 40
0.0
 40
0.0
 40
0.0
 40
1.0
 40
1.0
 40
1.0
 40
2.0
 40
2.0
 40
2.0
 40
3.0
 40
3.0
 40
3.0
 40
4.0
 40
4.0
 40
4.0
 40
5.0
 40
5.0
 40
5.0
 40
6.0
 40
6.0
 40
6.0
 40
7.0
 40
7.0
 40
7.0
 40
7.0
 10
299.8848625950856
 20
-214.1550826089504
 30
0.0
 10
299.9771496833626
 20
-214.5494454119886
 30
0.0
 10
300.1269621613815
 20
-214.9405704189372
 30
0.0
 10
300.149378501096
 20
-215.3388657383354
 30
0.0
 10
300.1919799449701
 20
-216.0957615130346
 30
0.0
 10
300.200745592219
 20
-216.8599905249012
 30
0.0
 10
300.1383561753496
 20
-217.614124910537
 30
0.0
 10
300.1191434341283
 20
-217.8463578691519
 30
0.0
 10
299.8229809308782
 20
-218.0556783506562
 30
0.0
 10
299.653631590657
 20
-218.2754904512832
 30
0.0
 10
299.4692510017165
 20
-218.0683091129368
 30
0.0
 10
299.1390779198797
 20
-217.8700886687799
 30
0.0
 10
299.1256982500809
 20
-217.6523971822081
 30
0.0
 10
299.0673985098767
 20
-216.703875387214
 30
0.0
 10
299.084664312789
 20
-215.7491781472694
 30
0.0
 10
299.1141405163009
 20
-214.7979526246649
 30
0.0
 10
299.1208585596846
 20
-214.5811519176815
 30
0.0
 10
299.2854544942721
 20
-214.369243256178
 30
0.0
 10
299.3773842751199
 20
-214.1550827212991
 30
0.0
 10
299.5465433463698
 20
-214.1550825830226
 30
0.0
 10
299.715703523835
 20
-214.1550825830226
 30
0.0
 10
299.8848625950856
 20
-214.1550826089504
 30
0.0
  0
HATCH
  5
89
330
82
100
AcDbEntity
  8
Layer 1
 62
    18
420
        0
440
 33554687
100
AcDbHatch
 10
0.0
 20
0.0
 30
0.0
210
0.0
220
0.0
230
1.0
  2
SOLID
 70
     1
 71
     1
 91
        1
 92
        1
 93
        1
 72
     4
 94
        3
 73
     0
 74
     0
 95
       26
 96
       22
 40
0.0
 40
0.0
 40
0.0
 40
0.0
 40
1.0
 40
1.0
 40
1.0
 40
2.0
 40
2.0
 40
2.0
 40
3.0
 40
3.0
 40
3.0
 40
4.0
 40
4.0
 40
4.0
 40
5.0
 40
5.0
 40
5.0
 40
6.0
 40
6.0
 40
6.0
 40
7.0
 40
7.0
 40
7.0
 40
7.0
 10
299.8848625950856
 20
-214.1550826089504
 10
299.9771496833626
 20
-214.5494454119886
 10
300.1269621613815
 20
-214.9405704189372
 10
300.149378501096
 20
-215.3388657383354
 10
300.1919799449701
 20
-216.0957615130346
 10
300.200745592219
 20
-216.8599905249012
 10
300.1383561753496
 20
-217.614124910537
 10
300.1191434341283
 20
-217.8463578691519
 10
299.8229809308782
 20
-218.0556783506562
 10
299.653631590657
 20
-218.2754904512832
 10
299.4692510017165
 20
-218.0683091129368
 10
299.1390779198797
 20
-217.8700886687799
 10
299.1256982500809
 20
-217.6523971822081
 10
299.0673985098767
 20
-216.703875387214
 10
299.084664312789
 20
-215.7491781472694
 10
299.1141405163009
 20
-214.7979526246649
 10
299.1208585596846
 20
-214.5811519176815
 10
299.2854544942721
 20
-214.369243256178
 10
299.3773842751199
 20
-214.1550827212991
 10
299.5465433463698
 20
-214.1550825830226
 10
299.715703523835
 20
-214.1550825830226
 10
299.8848625950856
 20
-214.1550826089504
 97
        0
 97
        1
330
88
 75
     2
 76
     1
 98
        1
 10
0.0
 20
0.0
450
        0
451
        0
460
0.0
461
0.0
452
        0
462
0.0
453
        0
470

  0
SPLINE
  5
8A
330
82
100
AcDbEntity
  8
Layer 1
100
AcDbSpline
210
0.0
220
0.0
230
1.0
 70
     9
 71
     3
 72
    26
 73
    22
 74
     0
 42
0.0000000001
 43
0.0000000001
 40
0.0
 40
0.0
 40
0.0
 40
0.0
 40
1.0
 40
1.0
 40
1.0
 40
2.0
 40
2.0
 40
2.0
 40
3.0
 40
3.0
 40
3.0
 40
4.0
 40
4.0
 40
4.0
 40
5.0
 40
5.0
 40
5.0
 40
6.0
 40
6.0
 40
6.0
 40
7.0
 40
7.0
 40
7.0
 40
7.0
 10
310.9043918286205
 20
-214.1550826867301
 30
0.0
 10
310.9932452256985
 20
-214.6588542532481
 30
0.0
 10
311.12586933585
 20
-215.1596764778716
 30
0.0
 10
311.1600602274738
 20
-215.6671310142146
 30
0.0
 10
311.2045013068059
 20
-216.3267140278496
 30
0.0
 10
311.2168333910501
 20
-216.9966177503978
 30
0.0
 10
311.1451794239873
 20
-217.6513764223672
 30
0.0
 10
311.120592690547
 20
-217.8760464659376
 30
0.0
 10
310.8017240192683
 20
-218.0685109971638
 30
0.0
 10
310.6173002879472
 20
-218.2756884637556
 30
0.0
 10
310.451399019718
 20
-218.0662415971966
 30
0.0
 10
310.1544334044156
 20
-217.8641131721831
 30
0.0
 10
310.1422606151264
 20
-217.6460826307311
 30
0.0
 10
310.0892839812506
 20
-216.6973127670345
 30
0.0
 10
310.1026116589473
 20
-215.7434060559471
 30
0.0
 10
310.1316741380696
 20
-214.7925829190288
 30
0.0
 10
310.1382450548626
 20
-214.5775808829819
 30
0.0
 10
310.3042790688835
 20
-214.3674531756928
 30
0.0
 10
310.3969135086548
 20
-214.1550822935046
 30
0.0
 10
310.5660736861201
 20
-214.1550825830226
 30
0.0
 10
310.7352316511559
 20
-214.1550825830226
 30
0.0
 10
310.9043918286205
 20
-214.1550826867301
 30
0.0
  0
HATCH
  5
8B
330
82
100
AcDbEntity
  8
Layer 1
 62
    18
420
        0
440
 33554687
100
AcDbHatch
 10
0.0
 20
0.0
 30
0.0
210
0.0
220
0.0
230
1.0
  2
SOLID
 70
     1
 71
     1
 91
        1
 92
        1
 93
        1
 72
     4
 94
        3
 73
     0
 74
     0
 95
       26
 96
       22
 40
0.0
 40
0.0
 40
0.0
 40
0.0
 40
1.0
 40
1.0
 40
1.0
 40
2.0
 40
2.0
 40
2.0
 40
3.0
 40
3.0
 40
3.0
 40
4.0
 40
4.0
 40
4.0
 40
5.0
 40
5.0
 40
5.0
 40
6.0
 40
6.0
 40
6.0
 40
7.0
 40
7.0
 40
7.0
 40
7.0
 10
310.9043918286205
 20
-214.1550826867301
 10
310.9932452256985
 20
-214.6588542532481
 10
311.12586933585
 20
-215.1596764778716
 10
311.1600602274738
 20
-215.6671310142146
 10
311.2045013068059
 20
-216.3267140278496
 10
311.2168333910501
 20
-216.9966177503978
 10
311.1451794239873
 20
-217.6513764223672
 10
311.120592690547
 20
-217.8760464659376
 10
310.8017240192683
 20
-218.0685109971638
 10
310.6173002879472
 20
-218.2756884637556
 10
310.451399019718
 20
-218.0662415971966
 10
310.1544334044156
 20
-217.8641131721831
 10
310.1422606151264
 20
-217.6460826307311
 10
310.0892839812506
 20
-216.6973127670345
 10
310.1026116589473
 20
-215.7434060559471
 10
310.1316741380696
 20
-214.7925829190288
 10
310.1382450548626
 20
-214.5775808829819
 10
310.3042790688835
 20
-214.3674531756928
 10
310.3969135086548
 20
-214.1550822935046
 10
310.5660736861201
 20
-214.1550825830226
 10
310.7352316511559
 20
-214.1550825830226
 10
310.9043918286205
 20
-214.1550826867301
 97
        0
 97
        1
330
8A
 75
     2
 76
     1
 98
        1
 10
0.0
 20
0.0
450
        0
451
        0
460
0.0
461
0.0
452
        0
462
0.0
453
        0
470

  0
SPLINE
  5
8C
330
82
100
AcDbEntity
  8
Layer 1
100
AcDbSpline
210
0.0
220
0.0
230
1.0
 70
     9
 71
     3
 72
    23
 73
    19
 74
     0
 42
0.0000000001
 43
0.0000000001
 40
0.0
 40
0.0
 40
0.0
 40
0.0
 40
1.0
 40
1.0
 40
1.0
 40
2.0
 40
2.0
 40
2.0
 40
3.0
 40
3.0
 40
3.0
 40
4.0
 40
4.0
 40
4.0
 40
5.0
 40
5.0
 40
5.0
 40
6.0
 40
6.0
 40
6.0
 40
6.0
 10
286.1829479128092
 20
-237.5715822042817
 30
0.0
 10
287.4001341013578
 20
-237.5036760934671
 30
0.0
 10
288.6169134361466
 20
-237.4183935582419
 30
0.0
 10
289.835022026473
 20
-237.3898465752854
 30
0.0
 10
289.9873525262697
 20
-237.3862757134312
 30
0.0
 10
290.2710656864922
 20
-237.6834581468656
 30
0.0
 10
290.2699622370802
 20
-237.8397043710251
 30
0.0
 10
290.2687061300065
 20
-238.0175505482637
 30
0.0
 10
290.0220934832764
 20
-238.3407378827006
 30
0.0
 10
289.871772976043
 20
-238.3468663135127
 30
0.0
 10
288.8014491717332
 20
-238.3905087056539
 30
0.0
 10
287.7283201445923
 20
-238.3781168858027
 30
0.0
 10
286.656523760773
 20
-238.3589550304675
 30
0.0
 10
286.4974807832389
 20
-238.3561120580516
 30
0.0
 10
286.3407496393872
 20
-238.2239105220099
 30
0.0
 10
286.1829483017116
 20
-238.1515574271003
 30
0.0
 10
286.1829479560194
 20
-237.9582330903045
 30
0.0
 10
286.1829479560194
 20
-237.7649065410781
 30
0.0
 10
286.1829479128092
 20
-237.5715822042817
 30
0.0
  0
HATCH
  5
8D
330
82
100
AcDbEntity
  8
Layer 1
 62
    18
420
        0
440
 33554687
100
AcDbHatch
 10
0.0
 20
0.0
 30
0.0
210
0.0
220
0.0
230
1.0
  2
SOLID
 70
     1
 71
     1
 91
        1
 92
        1
 93
        1
 72
     4
 94
        3
 73
     0
 74
     0
 95
       23
 96
       19
 40
0.0
 40
0.0
 40
0.0
 40
0.0
 40
1.0
 40
1.0
 40
1.0
 40
2.0
 40
2.0
 40
2.0
 40
3.0
 40
3.0
 40
3.0
 40
4.0
 40
4.0
 40
4.0
 40
5.0
 40
5.0
 40
5.0
 40
6.0
 40
6.0
 40
6.0
 40
6.0
 10
286.1829479128092
 20
-237.5715822042817
 10
287.4001341013578
 20
-237.5036760934671
 10
288.6169134361466
 20
-237.4183935582419
 10
289.835022026473
 20
-237.3898465752854
 10
289.9873525262697
 20
-237.3862757134312
 10
290.2710656864922
 20
-237.6834581468656
 10
290.2699622370802
 20
-237.8397043710251
 10
290.2687061300065
 20
-238.0175505482637
 10
290.0220934832764
 20
-238.3407378827006
 10
289.871772976043
 20
-238.3468663135127
 10
288.8014491717332
 20
-238.3905087056539
 10
287.7283201445923
 20
-238.3781168858027
 10
286.656523760773
 20
-238.3589550304675
 10
286.4974807832389
 20
-238.3561120580516
 10
286.3407496393872
 20
-238.2239105220099
 10
286.1829483017116
 20
-238.1515574271003
 10
286.1829479560194
 20
-237.9582330903045
 10
286.1829479560194
 20
-237.7649065410781
 10
286.1829479128092
 20
-237.5715822042817
 97
        0
 97
        1
330
8C
 75
     2
 76
     1
 98
        1
 10
0.0
 20
0.0
450
        0
451
        0
460
0.0
461
0.0
452
        0
462
0.0
453
        0
470

  0
SPLINE
  5
8E
330
82
100
AcDbEntity
  8
Layer 1
100
AcDbSpline
210
0.0
220
0.0
230
1.0
 70
     9
 71
     3
 72
    26
 73
    22
 74
     0
 42
0.0000000001
 43
0.0000000001
 40
0.0
 40
0.0
 40
0.0
 40
0.0
 40
1.0
 40
1.0
 40
1.0
 40
2.0
 40
2.0
 40
2.0
 40
3.0
 40
3.0
 40
3.0
 40
4.0
 40
4.0
 40
4.0
 40
5.0
 40
5.0
 40
5.0
 40
6.0
 40
6.0
 40
6.0
 40
7.0
 40
7.0
 40
7.0
 40
7.0
 10
305.2496334061493
 20
-214.1550826089504
 30
0.0
 10
305.3420333283502
 20
-214.5022430472956
 30
0.0
 10
305.4969211205525
 20
-214.8463234634638
 30
0.0
 10
305.5142134726236
 20
-215.1971859452006
 30
0.0
 10
305.5538712785224
 20
-216.0018008598148
 30
0.0
 10
305.5632254321237
 20
-216.8124846770544
 30
0.0
 10
305.5030628259456
 20
-217.6145676730691
 30
0.0
 10
305.4857372874249
 20
-217.8455738393103
 30
0.0
 10
305.2215377588913
 20
-218.1989188056687
 30
0.0
 10
305.0146246776703
 20
-218.2449641732286
 30
0.0
 10
304.6079214332814
 20
-218.3354697023326
 30
0.0
 10
304.4754389186394
 20
-217.9733637901397
 30
0.0
 10
304.4718392952003
 20
-217.6179524142571
 30
0.0
 10
304.4625725325782
 20
-216.7031184596366
 30
0.0
 10
304.4498399985254
 20
-215.7874950823723
 30
0.0
 10
304.4809235323554
 20
-214.8736303794619
 30
0.0
 10
304.4891626212915
 20
-214.6314327748642
 30
0.0
 10
304.6508978840233
 20
-214.3944562628385
 30
0.0
 10
304.742155086183
 20
-214.1550825268469
 30
0.0
 10
304.9113152636489
 20
-214.1550825830226
 30
0.0
 10
305.0804732286828
 20
-214.1550825830226
 30
0.0
 10
305.2496334061493
 20
-214.1550826089504
 30
0.0
  0
HATCH
  5
8F
330
82
100
AcDbEntity
  8
Layer 1
 62
    18
420
        0
440
 33554687
100
AcDbHatch
 10
0.0
 20
0.0
 30
0.0
210
0.0
220
0.0
230
1.0
  2
SOLID
 70
     1
 71
     1
 91
        1
 92
        1
 93
        1
 72
     4
 94
        3
 73
     0
 74
     0
 95
       26
 96
       22
 40
0.0
 40
0.0
 40
0.0
 40
0.0
 40
1.0
 40
1.0
 40
1.0
 40
2.0
 40
2.0
 40
2.0
 40
3.0
 40
3.0
 40
3.0
 40
4.0
 40
4.0
 40
4.0
 40
5.0
 40
5.0
 40
5.0
 40
6.0
 40
6.0
 40
6.0
 40
7.0
 40
7.0
 40
7.0
 40
7.0
 10
305.2496334061493
 20
-214.1550826089504
 10
305.3420333283502
 20
-214.5022430472956
 10
305.4969211205525
 20
-214.8463234634638
 10
305.5142134726236
 20
-215.1971859452006
 10
305.5538712785224
 20
-216.0018008598148
 10
305.5632254321237
 20
-216.8124846770544
 10
305.5030628259456
 20
-217.6145676730691
 10
305.4857372874249
 20
-217.8455738393103
 10
305.2215377588913
 20
-218.1989188056687
 10
305.0146246776703
 20
-218.2449641732286
 10
304.6079214332814
 20
-218.3354697023326
 10
304.4754389186394
 20
-217.9733637901397
 10
304.4718392952003
 20
-217.6179524142571
 10
304.4625725325782
 20
-216.7031184596366
 10
304.4498399985254
 20
-215.7874950823723
 10
304.4809235323554
 20
-214.8736303794619
 10
304.4891626212915
 20
-214.6314327748642
 10
304.6508978840233
 20
-214.3944562628385
 10
304.742155086183
 20
-214.1550825268469
 10
304.9113152636489
 20
-214.1550825830226
 10
305.0804732286828
 20
-214.1550825830226
 10
305.2496334061493
 20
-214.1550826089504
 97
        0
 97
        1
330
8E
 75
     2
 76
     1
 98
        1
 10
0.0
 20
0.0
450
        0
451
        0
460
0.0
461
0.0
452
        0
462
0.0
453
        0
470

  0
SPLINE
  5
90
330
82
100
AcDbEntity
  8
Layer 1
100
AcDbSpline
210
0.0
220
0.0
230
1.0
 70
     9
 71
     3
 72
    26
 73
    22
 74
     0
 42
0.0000000001
 43
0.0000000001
 40
0.0
 40
0.0
 40
0.0
 40
0.0
 40
1.0
 40
1.0
 40
1.0
 40
2.0
 40
2.0
 40
2.0
 40
3.0
 40
3.0
 40
3.0
 40
4.0
 40
4.0
 40
4.0
 40
5.0
 40
5.0
 40
5.0
 40
6.0
 40
6.0
 40
6.0
 40
7.0
 40
7.0
 40
7.0
 40
7.0
 10
286.1829480424408
 20
-234.8166998958987
 30
0.0
 10
286.7600536572614
 20
-234.7319350692693
 30
0.0
 10
287.3348320205273
 20
-234.606397372076
 30
0.0
 10
287.9148859228866
 20
-234.5732905711043
 30
0.0
 10
288.560929556935
 20
-234.5364160020177
 30
0.0
 10
289.2153182000034
 20
-234.5499627102744
 30
0.0
 10
289.8580716742444
 20
-234.6176077543635
 30
0.0
 10
290.0217865086266
 20
-234.6348359459669
 30
0.0
 10
290.2783293703956
 20
-234.9471182134453
 30
0.0
 10
290.2687418054398
 20
-235.1107384664495
 30
0.0
 10
290.2586785680548
 20
-235.2824783371734
 30
0.0
 10
289.9858895570002
 20
-235.5723730265268
 30
0.0
 10
289.8181096592383
 20
-235.5794904135037
 30
0.0
 10
288.7849339356624
 20
-235.6233252870449
 30
0.0
 10
287.7488107023582
 20
-235.6114401136411
 30
0.0
 10
286.7141241657172
 20
-235.5927760550339
 30
0.0
 10
286.5359444300998
 20
-235.5895613943936
 30
0.0
 10
286.3599513530304
 20
-235.4651188499982
 30
0.0
 10
286.1829480424408
 20
-235.3966751187168
 30
0.0
 10
286.1829479560194
 20
-235.2033507819204
 30
0.0
 10
286.1829479560194
 20
-235.0100242326958
 30
0.0
 10
286.1829480424408
 20
-234.8166998958987
 30
0.0
  0
HATCH
  5
91
330
82
100
AcDbEntity
  8
Layer 1
 62
    18
420
        0
440
 33554687
100
AcDbHatch
 10
0.0
 20
0.0
 30
0.0
210
0.0
220
0.0
230
1.0
  2
SOLID
 70
     1
 71
     1
 91
        1
 92
        1
 93
        1
 72
     4
 94
        3
 73
     0
 74
     0
 95
       26
 96
       22
 40
0.0
 40
0.0
 40
0.0
 40
0.0
 40
1.0
 40
1.0
 40
1.0
 40
2.0
 40
2.0
 40
2.0
 40
3.0
 40
3.0
 40
3.0
 40
4.0
 40
4.0
 40
4.0
 40
5.0
 40
5.0
 40
5.0
 40
6.0
 40
6.0
 40
6.0
 40
7.0
 40
7.0
 40
7.0
 40
7.0
 10
286.1829480424408
 20
-234.8166998958987
 10
286.7600536572614
 20
-234.7319350692693
 10
287.3348320205273
 20
-234.606397372076
 10
287.9148859228866
 20
-234.5732905711043
 10
288.560929556935
 20
-234.5364160020177
 10
289.2153182000034
 20
-234.5499627102744
 10
289.8580716742444
 20
-234.6176077543635
 10
290.0217865086266
 20
-234.6348359459669
 10
290.2783293703956
 20
-234.9471182134453
 10
290.2687418054398
 20
-235.1107384664495
 10
290.2586785680548
 20
-235.2824783371734
 10
289.9858895570002
 20
-235.5723730265268
 10
289.8181096592383
 20
-235.5794904135037
 10
288.7849339356624
 20
-235.6233252870449
 10
287.7488107023582
 20
-235.6114401136411
 10
286.7141241657172
 20
-235.5927760550339
 10
286.5359444300998
 20
-235.5895613943936
 10
286.3599513530304
 20
-235.4651188499982
 10
286.1829480424408
 20
-235.3966751187168
 10
286.1829479560194
 20
-235.2033507819204
 10
286.1829479560194
 20
-235.0100242326958
 10
286.1829480424408
 20
-234.8166998958987
 97
        0
 97
        1
330
90
 75
     2
 76
     1
 98
        1
 10
0.0
 20
0.0
450
        0
451
        0
460
0.0
461
0.0
452
        0
462
0.0
453
        0
470

  0
SPLINE
  5
92
330
82
100
AcDbEntity
  8
Layer 1
100
AcDbSpline
210
0.0
220
0.0
230
1.0
 70
     9
 71
     3
 72
    26
 73
    22
 74
     0
 42
0.0000000001
 43
0.0000000001
 40
0.0
 40
0.0
 40
0.0
 40
0.0
 40
1.0
 40
1.0
 40
1.0
 40
2.0
 40
2.0
 40
2.0
 40
3.0
 40
3.0
 40
3.0
 40
4.0
 40
4.0
 40
4.0
 40
5.0
 40
5.0
 40
5.0
 40
6.0
 40
6.0
 40
6.0
 40
7.0
 40
7.0
 40
7.0
 40
7.0
 10
286.1829479819478
 20
-229.4519290848362
 30
0.0
 10
286.6876457010054
 20
-229.3659817144278
 30
0.0
 10
287.1898269452585
 20
-229.2324339147946
 30
0.0
 10
287.6976492289352
 20
-229.2055871842134
 30
0.0
 10
288.4045494807677
 20
-229.1682148183996
 30
0.0
 10
289.1192992955991
 20
-229.1744096221102
 30
0.0
 10
289.8224407673134
 20
-229.2445945357202
 30
0.0
 10
289.9982459779744
 20
-229.2621435296604
 30
0.0
 10
290.1424986196631
 20
-229.5957923388641
 30
0.0
 10
290.3012526331092
 20
-229.7841608326905
 30
0.0
 10
290.1157495125516
 20
-229.9351558544903
 30
0.0
 10
289.935750641023
 20
-230.208000452846
 30
0.0
 10
289.7438190288468
 20
-230.2166698593949
 30
0.0
 10
288.7589519886176
 20
-230.2611551873256
 30
0.0
 10
287.7705850225687
 20
-230.2530045955865
 30
0.0
 10
286.7845064004188
 20
-230.2253071857122
 30
0.0
 10
286.5816577257625
 20
-230.2196090725128
 30
0.0
 10
286.3833494585102
 20
-230.0522520254157
 30
0.0
 10
286.1829481115801
 20
-229.959407404802
 30
0.0
 10
286.1829479560194
 20
-229.7902483335514
 30
0.0
 10
286.1829479560194
 20
-229.6210881560868
 30
0.0
 10
286.1829479819478
 20
-229.4519290848362
 30
0.0
  0
HATCH
  5
93
330
82
100
AcDbEntity
  8
Layer 1
 62
    18
420
        0
440
 33554687
100
AcDbHatch
 10
0.0
 20
0.0
 30
0.0
210
0.0
220
0.0
230
1.0
  2
SOLID
 70
     1
 71
     1
 91
        1
 92
        1
 93
        1
 72
     4
 94
        3
 73
     0
 74
     0
 95
       26
 96
       22
 40
0.0
 40
0.0
 40
0.0
 40
0.0
 40
1.0
 40
1.0
 40
1.0
 40
2.0
 40
2.0
 40
2.0
 40
3.0
 40
3.0
 40
3.0
 40
4.0
 40
4.0
 40
4.0
 40
5.0
 40
5.0
 40
5.0
 40
6.0
 40
6.0
 40
6.0
 40
7.0
 40
7.0
 40
7.0
 40
7.0
 10
286.1829479819478
 20
-229.4519290848362
 10
286.6876457010054
 20
-229.3659817144278
 10
287.1898269452585
 20
-229.2324339147946
 10
287.6976492289352
 20
-229.2055871842134
 10
288.4045494807677
 20
-229.1682148183996
 10
289.1192992955991
 20
-229.1744096221102
 10
289.8224407673134
 20
-229.2445945357202
 10
289.9982459779744
 20
-229.2621435296604
 10
290.1424986196631
 20
-229.5957923388641
 10
290.3012526331092
 20
-229.7841608326905
 10
290.1157495125516
 20
-229.9351558544903
 10
289.935750641023
 20
-230.208000452846
 10
289.7438190288468
 20
-230.2166698593949
 10
288.7589519886176
 20
-230.2611551873256
 10
287.7705850225687
 20
-230.2530045955865
 10
286.7845064004188
 20
-230.2253071857122
 10
286.5816577257625
 20
-230.2196090725128
 10
286.3833494585102
 20
-230.0522520254157
 10
286.1829481115801
 20
-229.959407404802
 10
286.1829479560194
 20
-229.7902483335514
 10
286.1829479560194
 20
-229.6210881560868
 10
286.1829479819478
 20
-229.4519290848362
 97
        0
 97
        1
330
92
 75
     2
 76
     1
 98
        1
 10
0.0
 20
0.0
450
        0
451
        0
460
0.0
461
0.0
452
        0
462
0.0
453
        0
470

  0
SPLINE
  5
94
330
82
100
AcDbEntity
  8
Layer 1
100
AcDbSpline
210
0.0
220
0.0
230
1.0
 70
     9
 71
     3
 72
    23
 73
    19
 74
     0
 42
0.0000000001
 43
0.0000000001
 40
0.0
 40
0.0
 40
0.0
 40
0.0
 40
1.0
 40
1.0
 40
1.0
 40
2.0
 40
2.0
 40
2.0
 40
3.0
 40
3.0
 40
3.0
 40
4.0
 40
4.0
 40
4.0
 40
5.0
 40
5.0
 40
5.0
 40
6.0
 40
6.0
 40
6.0
 40
6.0
 10
310.2519197029495
 20
-248.5186145349649
 30
0.0
 10
310.2082684610901
 20
-247.3350176385954
 30
0.0
 10
310.1452208463269
 20
-246.1514561411028
 30
0.0
 10
310.1432097475496
 20
-244.9677884469754
 30
0.0
 10
310.1429287689544
 20
-244.8023783381852
 30
0.0
 10
310.4479586912289
 20
-244.499596244686
 30
0.0
 10
310.6018354029677
 20
-244.5057556495176
 30
0.0
 10
310.7899649543674
 20
-244.513291185745
 30
0.0
 10
311.124311785202
 20
-244.7789951666098
 30
0.0
 10
311.1250042757612
 20
-244.9342679216128
 30
0.0
 10
311.1301835741494
 20
-246.0941409322027
 30
0.0
 10
311.0682598737736
 20
-247.2543059835375
 30
0.0
 10
311.0287879119861
 20
-248.4144245738443
 30
0.0
 10
311.0276153241414
 20
-248.4488809570542
 30
0.0
 10
311.0421664755721
 20
-248.4838727482984
 30
0.0
 10
311.0493856343252
 20
-248.5186145349649
 30
0.0
 10
310.7835643946771
 20
-248.5186145349649
 30
0.0
 10
310.5177409425983
 20
-248.5186145349649
 30
0.0
 10
310.2519197029495
 20
-248.5186145349649
 30
0.0
  0
HATCH
  5
95
330
82
100
AcDbEntity
  8
Layer 1
 62
    18
420
        0
440
 33554687
100
AcDbHatch
 10
0.0
 20
0.0
 30
0.0
210
0.0
220
0.0
230
1.0
  2
SOLID
 70
     1
 71
     1
 91
        1
 92
        1
 93
        1
 72
     4
 94
        3
 73
     0
 74
     0
 95
       23
 96
       19
 40
0.0
 40
0.0
 40
0.0
 40
0.0
 40
1.0
 40
1.0
 40
1.0
 40
2.0
 40
2.0
 40
2.0
 40
3.0
 40
3.0
 40
3.0
 40
4.0
 40
4.0
 40
4.0
 40
5.0
 40
5.0
 40
5.0
 40
6.0
 40
6.0
 40
6.0
 40
6.0
 10
310.2519197029495
 20
-248.5186145349649
 10
310.2082684610901
 20
-247.3350176385954
 10
310.1452208463269
 20
-246.1514561411028
 10
310.1432097475496
 20
-244.9677884469754
 10
310.1429287689544
 20
-244.8023783381852
 10
310.4479586912289
 20
-244.499596244686
 10
310.6018354029677
 20
-244.5057556495176
 10
310.7899649543674
 20
-244.513291185745
 10
311.124311785202
 20
-244.7789951666098
 10
311.1250042757612
 20
-244.9342679216128
 10
311.1301835741494
 20
-246.0941409322027
 10
311.0682598737736
 20
-247.2543059835375
 10
311.0287879119861
 20
-248.4144245738443
 10
311.0276153241414
 20
-248.4488809570542
 10
311.0421664755721
 20
-248.4838727482984
 10
311.0493856343252
 20
-248.5186145349649
 10
310.7835643946771
 20
-248.5186145349649
 10
310.5177409425983
 20
-248.5186145349649
 10
310.2519197029495
 20
-248.5186145349649
 97
        0
 97
        1
330
94
 75
     2
 76
     1
 98
        1
 10
0.0
 20
0.0
450
        0
451
        0
460
0.0
461
0.0
452
        0
462
0.0
453
        0
470

  0
SPLINE
  5
96
330
82
100
AcDbEntity
  8
Layer 1
100
AcDbSpline
210
0.0
220
0.0
230
1.0
 70
     9
 71
     3
 72
    23
 73
    19
 74
     0
 42
0.0000000001
 43
0.0000000001
 40
0.0
 40
0.0
 40
0.0
 40
0.0
 40
1.0
 40
1.0
 40
1.0
 40
2.0
 40
2.0
 40
2.0
 40
3.0
 40
3.0
 40
3.0
 40
4.0
 40
4.0
 40
4.0
 40
5.0
 40
5.0
 40
5.0
 40
6.0
 40
6.0
 40
6.0
 40
6.0
 10
320.5464799079624
 20
-227.2770219992713
 30
0.0
 10
319.4226982662779
 20
-227.320857979026
 30
0.0
 10
318.2985958222584
 20
-227.3950628777598
 30
0.0
 10
317.1753982620649
 20
-227.3832473958954
 30
0.0
 10
316.9471175329001
 20
-227.3808458032438
 30
0.0
 10
316.5714823353365
 20
-227.0847286548076
 30
0.0
 10
316.5283001286136
 20
-226.8706561504392
 30
0.0
 10
316.4472632463607
 20
-226.468908749019
 30
0.0
 10
316.8127743647207
 20
-226.3491322192749
 30
0.0
 10
317.1729579518896
 20
-226.3483910552609
 30
0.0
 10
318.0773572574557
 20
-226.3465292955004
 30
0.0
 10
318.9818981585358
 20
-226.3394030588071
 30
0.0
 10
319.8860717962548
 20
-226.3538247830869
 30
0.0
 10
320.1068192016186
 20
-226.3573458652677
 30
0.0
 10
320.3263763196998
 20
-226.4356404406635
 30
0.0
 10
320.5464799079624
 20
-226.479556067895
 30
0.0
 10
320.5464799079624
 20
-226.7453784137604
 30
0.0
 10
320.5464799079624
 20
-227.0111996534079
 30
0.0
 10
320.5464799079624
 20
-227.2770219992713
 30
0.0
  0
HATCH
  5
97
330
82
100
AcDbEntity
  8
Layer 1
 62
    18
420
        0
440
 33554687
100
AcDbHatch
 10
0.0
 20
0.0
 30
0.0
210
0.0
220
0.0
230
1.0
  2
SOLID
 70
     1
 71
     1
 91
        1
 92
        1
 93
        1
 72
     4
 94
        3
 73
     0
 74
     0
 95
       23
 96
       19
 40
0.0
 40
0.0
 40
0.0
 40
0.0
 40
1.0
 40
1.0
 40
1.0
 40
2.0
 40
2.0
 40
2.0
 40
3.0
 40
3.0
 40
3.0
 40
4.0
 40
4.0
 40
4.0
 40
5.0
 40
5.0
 40
5.0
 40
6.0
 40
6.0
 40
6.0
 40
6.0
 10
320.5464799079624
 20
-227.2770219992713
 10
319.4226982662779
 20
-227.320857979026
 10
318.2985958222584
 20
-227.3950628777598
 10
317.1753982620649
 20
-227.3832473958954
 10
316.9471175329001
 20
-227.3808458032438
 10
316.5714823353365
 20
-227.0847286548076
 10
316.5283001286136
 20
-226.8706561504392
 10
316.4472632463607
 20
-226.468908749019
 10
316.8127743647207
 20
-226.3491322192749
 10
317.1729579518896
 20
-226.3483910552609
 10
318.0773572574557
 20
-226.3465292955004
 10
318.9818981585358
 20
-226.3394030588071
 10
319.8860717962548
 20
-226.3538247830869
 10
320.1068192016186
 20
-226.3573458652677
 10
320.3263763196998
 20
-226.4356404406635
 10
320.5464799079624
 20
-226.479556067895
 10
320.5464799079624
 20
-226.7453784137604
 10
320.5464799079624
 20
-227.0111996534079
 10
320.5464799079624
 20
-227.2770219992713
 97
        0
 97
        1
330
96
 75
     2
 76
     1
 98
        1
 10
0.0
 20
0.0
450
        0
451
        0
460
0.0
461
0.0
452
        0
462
0.0
453
        0
470

  0
SPLINE
  5
98
330
82
100
AcDbEntity
  8
Layer 1
100
AcDbSpline
210
0.0
220
0.0
230
1.0
 70
     9
 71
     3
 72
    23
 73
    19
 74
     0
 42
0.0000000001
 43
0.0000000001
 40
0.0
 40
0.0
 40
0.0
 40
0.0
 40
1.0
 40
1.0
 40
1.0
 40
2.0
 40
2.0
 40
2.0
 40
3.0
 40
3.0
 40
3.0
 40
4.0
 40
4.0
 40
4.0
 40
5.0
 40
5.0
 40
5.0
 40
6.0
 40
6.0
 40
6.0
 40
6.0
 10
299.2323904694165
 20
-248.5186145349649
 30
0.0
 10
299.188605375548
 20
-247.3830848905278
 30
0.0
 10
299.116239006058
 20
-246.2473074539438
 30
0.0
 10
299.1262082151717
 20
-245.1122490570758
 30
0.0
 10
299.1281009489491
 20
-244.8966123647718
 30
0.0
 10
299.4560483263087
 20
-244.6838363443255
 30
0.0
 10
299.6335560017726
 20
-244.4697417156604
 30
0.0
 10
299.809520507386
 20
-244.6835310289983
 30
0.0
 10
300.1234189549028
 20
-244.8887316894822
 30
0.0
 10
300.1373539446076
 20
-245.1126074707198
 30
0.0
 10
300.1948903964972
 20
-246.0369761685322
 30
0.0
 10
300.1693401498361
 20
-246.9671215208069
 30
0.0
 10
300.1555578177967
 20
-247.8948641742133
 30
0.0
 10
300.1524615221559
 20
-248.1033569303797
 30
0.0
 10
300.0737554347998
 20
-248.3107279845894
 30
0.0
 10
300.0298564007909
 20
-248.5186145349649
 30
0.0
 10
299.7640340549261
 20
-248.5186145349649
 30
0.0
 10
299.498212815278
 20
-248.5186145349649
 30
0.0
 10
299.2323904694165
 20
-248.5186145349649
 30
0.0
  0
HATCH
  5
99
330
82
100
AcDbEntity
  8
Layer 1
 62
    18
420
        0
440
 33554687
100
AcDbHatch
 10
0.0
 20
0.0
 30
0.0
210
0.0
220
0.0
230
1.0
  2
SOLID
 70
     1
 71
     1
 91
        1
 92
        1
 93
        1
 72
     4
 94
        3
 73
     0
 74
     0
 95
       23
 96
       19
 40
0.0
 40
0.0
 40
0.0
 40
0.0
 40
1.0
 40
1.0
 40
1.0
 40
2.0
 40
2.0
 40
2.0
 40
3.0
 40
3.0
 40
3.0
 40
4.0
 40
4.0
 40
4.0
 40
5.0
 40
5.0
 40
5.0
 40
6.0
 40
6.0
 40
6.0
 40
6.0
 10
299.2323904694165
 20
-248.5186145349649
 10
299.188605375548
 20
-247.3830848905278
 10
299.116239006058
 20
-246.2473074539438
 10
299.1262082151717
 20
-245.1122490570758
 10
299.1281009489491
 20
-244.8966123647718
 10
299.4560483263087
 20
-244.6838363443255
 10
299.6335560017726
 20
-244.4697417156604
 10
299.809520507386
 20
-244.6835310289983
 10
300.1234189549028
 20
-244.8887316894822
 10
300.1373539446076
 20
-245.1126074707198
 10
300.1948903964972
 20
-246.0369761685322
 10
300.1693401498361
 20
-246.9671215208069
 10
300.1555578177967
 20
-247.8948641742133
 10
300.1524615221559
 20
-248.1033569303797
 10
300.0737554347998
 20
-248.3107279845894
 10
300.0298564007909
 20
-248.5186145349649
 10
299.7640340549261
 20
-248.5186145349649
 10
299.498212815278
 20
-248.5186145349649
 10
299.2323904694165
 20
-248.5186145349649
 97
        0
 97
        1
330
98
 75
     2
 76
     1
 98
        1
 10
0.0
 20
0.0
450
        0
451
        0
460
0.0
461
0.0
452
        0
462
0.0
453
        0
470

  0
SPLINE
  5
9A
330
82
100
AcDbEntity
  8
Layer 1
100
AcDbSpline
210
0.0
220
0.0
230
1.0
 70
     9
 71
     3
 72
    23
 73
    19
 74
     0
 42
0.0000000001
 43
0.0000000001
 40
0.0
 40
0.0
 40
0.0
 40
0.0
 40
1.0
 40
1.0
 40
1.0
 40
2.0
 40
2.0
 40
2.0
 40
3.0
 40
3.0
 40
3.0
 40
4.0
 40
4.0
 40
4.0
 40
5.0
 40
5.0
 40
5.0
 40
6.0
 40
6.0
 40
6.0
 40
6.0
 10
304.5971612804796
 20
-248.5186145349649
 30
0.0
 10
304.553404948198
 20
-247.4078906545295
 30
0.0
 10
304.502409545296
 20
-246.2973747425046
 30
0.0
 10
304.4700461207684
 20
-245.1863189975846
 30
0.0
 10
304.4595547781994
 20
-244.8261486849947
 30
0.0
 10
304.5535244194133
 20
-244.4806932436482
 30
0.0
 10
305.0033058863196
 20
-244.4786644454317
 30
0.0
 10
305.4589359116589
 20
-244.476609098059
 30
0.0
 10
305.5271716745305
 20
-244.8170732975599
 30
0.0
 10
305.5269659185475
 20
-245.1835910715207
 30
0.0
 10
305.5264703342523
 20
-246.0632266492562
 30
0.0
 10
305.5357913014054
 20
-246.9430193095128
 30
0.0
 10
305.5207290786717
 20
-247.8223960329498
 30
0.0
 10
305.516742279996
 20
-248.0551193213458
 30
0.0
 10
305.4386766910952
 20
-248.286577099838
 30
0.0
 10
305.3946272118521
 20
-248.5186145349649
 30
0.0
 10
305.1288059722053
 20
-248.5186145349649
 30
0.0
 10
304.8629825201258
 20
-248.5186145349649
 30
0.0
 10
304.5971612804796
 20
-248.5186145349649
 30
0.0
  0
HATCH
  5
9B
330
82
100
AcDbEntity
  8
Layer 1
 62
    18
420
        0
440
 33554687
100
AcDbHatch
 10
0.0
 20
0.0
 30
0.0
210
0.0
220
0.0
230
1.0
  2
SOLID
 70
     1
 71
     1
 91
        1
 92
        1
 93
        1
 72
     4
 94
        3
 73
     0
 74
     0
 95
       23
 96
       19
 40
0.0
 40
0.0
 40
0.0
 40
0.0
 40
1.0
 40
1.0
 40
1.0
 40
2.0
 40
2.0
 40
2.0
 40
3.0
 40
3.0
 40
3.0
 40
4.0
 40
4.0
 40
4.0
 40
5.0
 40
5.0
 40
5.0
 40
6.0
 40
6.0
 40
6.0
 40
6.0
 10
304.5971612804796
 20
-248.5186145349649
 10
304.553404948198
 20
-247.4078906545295
 10
304.502409545296
 20
-246.2973747425046
 10
304.4700461207684
 20
-245.1863189975846
 10
304.4595547781994
 20
-244.8261486849947
 10
304.5535244194133
 20
-244.4806932436482
 10
305.0033058863196
 20
-244.4786644454317
 10
305.4589359116589
 20
-244.476609098059
 10
305.5271716745305
 20
-244.8170732975599
 10
305.5269659185475
 20
-245.1835910715207
 10
305.5264703342523
 20
-246.0632266492562
 10
305.5357913014054
 20
-246.9430193095128
 10
305.5207290786717
 20
-247.8223960329498
 10
305.516742279996
 20
-248.0551193213458
 10
305.4386766910952
 20
-248.286577099838
 10
305.3946272118521
 20
-248.5186145349649
 10
305.1288059722053
 20
-248.5186145349649
 10
304.8629825201258
 20
-248.5186145349649
 10
304.5971612804796
 20
-248.5186145349649
 97
        0
 97
        1
330
9A
 75
     2
 76
     1
 98
        1
 10
0.0
 20
0.0
450
        0
451
        0
460
0.0
461
0.0
452
        0
462
0.0
453
        0
470

  0
SPLINE
  5
9C
330
82
100
AcDbEntity
  8
Layer 1
100
AcDbSpline
210
0.0
220
0.0
230
1.0
 70
     9
 71
     3
 72
    20
 73
    16
 74
     0
 42
0.0000000001
 43
0.0000000001
 40
0.0
 40
0.0
 40
0.0
 40
0.0
 40
1.0
 40
1.0
 40
1.0
 40
2.0
 40
2.0
 40
2.0
 40
3.0
 40
3.0
 40
3.0
 40
4.0
 40
4.0
 40
4.0
 40
5.0
 40
5.0
 40
5.0
 40
5.0
 10
320.5464799079624
 20
-230.104401210506
 30
0.0
 10
319.3501018040795
 20
-230.1481110817596
 30
0.0
 10
318.1537856482342
 20
-230.2093389729333
 30
0.0
 10
316.9572637364073
 20
-230.2136731230995
 30
0.0
 10
316.8052432533535
 20
-230.2142229119288
 30
0.0
 10
316.5571391523169
 20
-229.9321226131018
 30
0.0
 10
316.528912971694
 20
-229.7532930107738
 30
0.0
 10
316.5053660803053
 20
-229.6040878447631
 30
0.0
 10
316.7399146233649
 20
-229.2647586217992
 30
0.0
 10
316.858456617226
 20
-229.2655473530552
 30
0.0
 10
318.087992407968
 20
-229.2737189628795
 30
0.0
 10
319.3171896969372
 20
-229.3337842221434
 30
0.0
 10
320.5464799079624
 20
-229.3794321819839
 30
0.0
 10
320.5464799079624
 20
-229.6210881560868
 30
0.0
 10
320.5464799079624
 20
-229.8627452364037
 30
0.0
 10
320.5464799079624
 20
-230.104401210506
 30
0.0
  0
HATCH
  5
9D
330
82
100
AcDbEntity
  8
Layer 1
 62
    18
420
        0
440
 33554687
100
AcDbHatch
 10
0.0
 20
0.0
 30
0.0
210
0.0
220
0.0
230
1.0
  2
SOLID
 70
     1
 71
     1
 91
        1
 92
        1
 93
        1
 72
     4
 94
        3
 73
     0
 74
     0
 95
       20
 96
       16
 40
0.0
 40
0.0
 40
0.0
 40
0.0
 40
1.0
 40
1.0
 40
1.0
 40
2.0
 40
2.0
 40
2.0
 40
3.0
 40
3.0
 40
3.0
 40
4.0
 40
4.0
 40
4.0
 40
5.0
 40
5.0
 40
5.0
 40
5.0
 10
320.5464799079624
 20
-230.104401210506
 10
319.3501018040795
 20
-230.1481110817596
 10
318.1537856482342
 20
-230.2093389729333
 10
316.9572637364073
 20
-230.2136731230995
 10
316.8052432533535
 20
-230.2142229119288
 10
316.5571391523169
 20
-229.9321226131018
 10
316.528912971694
 20
-229.7532930107738
 10
316.5053660803053
 20
-229.6040878447631
 10
316.7399146233649
 20
-229.2647586217992
 10
316.858456617226
 20
-229.2655473530552
 10
318.087992407968
 20
-229.2737189628795
 10
319.3171896969372
 20
-229.3337842221434
 10
320.5464799079624
 20
-229.3794321819839
 10
320.5464799079624
 20
-229.6210881560868
 10
320.5464799079624
 20
-229.8627452364037
 10
320.5464799079624
 20
-230.104401210506
 97
        0
 97
        1
330
9C
 75
     2
 76
     1
 98
        1
 10
0.0
 20
0.0
450
        0
451
        0
460
0.0
461
0.0
452
        0
462
0.0
453
        0
470

  0
SPLINE
  5
9E
330
82
100
AcDbEntity
  8
Layer 1
100
AcDbSpline
210
0.0
220
0.0
230
1.0
 70
     9
 71
     3
 72
    20
 73
    16
 74
     0
 42
0.0000000001
 43
0.0000000001
 40
0.0
 40
0.0
 40
0.0
 40
0.0
 40
1.0
 40
1.0
 40
1.0
 40
2.0
 40
2.0
 40
2.0
 40
3.0
 40
3.0
 40
3.0
 40
4.0
 40
4.0
 40
4.0
 40
5.0
 40
5.0
 40
5.0
 40
5.0
 10
320.5464799079624
 20
-235.4691720215691
 30
0.0
 10
319.3499889701563
 20
-235.5131285787543
 30
0.0
 10
318.1535644052447
 20
-235.5747314767958
 30
0.0
 10
316.9569296594927
 20
-235.5790634145358
 30
0.0
 10
316.8045927989634
 20
-235.5796143095785
 30
0.0
 10
316.5568493239996
 20
-235.2962175268328
 30
0.0
 10
316.5277094098305
 20
-235.1161456451169
 30
0.0
 10
316.5038284415285
 20
-234.9685743585817
 30
0.0
 10
316.7405606528949
 20
-234.630207542624
 30
0.0
 10
316.8601181520763
 20
-234.6309841055169
 30
0.0
 10
318.0890964104868
 20
-234.6389466407147
 30
0.0
 10
319.3177428044132
 20
-234.6988105688585
 30
0.0
 10
320.5464799079624
 20
-234.7442029930451
 30
0.0
 10
320.5464799079624
 20
-234.9858600733633
 30
0.0
 10
320.5464799079624
 20
-235.2275149412515
 30
0.0
 10
320.5464799079624
 20
-235.4691720215691
 30
0.0
  0
HATCH
  5
9F
330
82
100
AcDbEntity
  8
Layer 1
 62
    18
420
        0
440
 33554687
100
AcDbHatch
 10
0.0
 20
0.0
 30
0.0
210
0.0
220
0.0
230
1.0
  2
SOLID
 70
     1
 71
     1
 91
        1
 92
        1
 93
        1
 72
     4
 94
        3
 73
     0
 74
     0
 95
       20
 96
       16
 40
0.0
 40
0.0
 40
0.0
 40
0.0
 40
1.0
 40
1.0
 40
1.0
 40
2.0
 40
2.0
 40
2.0
 40
3.0
 40
3.0
 40
3.0
 40
4.0
 40
4.0
 40
4.0
 40
5.0
 40
5.0
 40
5.0
 40
5.0
 10
320.5464799079624
 20
-235.4691720215691
 10
319.3499889701563
 20
-235.5131285787543
 10
318.1535644052447
 20
-235.5747314767958
 10
316.9569296594927
 20
-235.5790634145358
 10
316.8045927989634
 20
-235.5796143095785
 10
316.5568493239996
 20
-235.2962175268328
 10
316.5277094098305
 20
-235.1161456451169
 10
316.5038284415285
 20
-234.9685743585817
 10
316.7405606528949
 20
-234.630207542624
 10
316.8601181520763
 20
-234.6309841055169
 10
318.0890964104868
 20
-234.6389466407147
 10
319.3177428044132
 20
-234.6988105688585
 10
320.5464799079624
 20
-234.7442029930451
 10
320.5464799079624
 20
-234.9858600733633
 10
320.5464799079624
 20
-235.2275149412515
 10
320.5464799079624
 20
-235.4691720215691
 97
        0
 97
        1
330
9E
 75
     2
 76
     1
 98
        1
 10
0.0
 20
0.0
450
        0
451
        0
460
0.0
461
0.0
452
        0
462
0.0
453
        0
470

  0
SPLINE
  5
A0
330
82
100
AcDbEntity
  8
Layer 1
100
AcDbSpline
210
0.0
220
0.0
230
1.0
 70
     9
 71
     3
 72
    26
 73
    22
 74
     0
 42
0.0000000001
 43
0.0000000001
 40
0.0
 40
0.0
 40
0.0
 40
0.0
 40
1.0
 40
1.0
 40
1.0
 40
2.0
 40
2.0
 40
2.0
 40
3.0
 40
3.0
 40
3.0
 40
4.0
 40
4.0
 40
4.0
 40
5.0
 40
5.0
 40
5.0
 40
6.0
 40
6.0
 40
6.0
 40
7.0
 40
7.0
 40
7.0
 40
7.0
 10
320.5464799079624
 20
-238.2240543299527
 30
0.0
 10
320.0158197475402
 20
-238.2845709249146
 30
0.0
 10
319.4864450088891
 20
-238.3752672760973
 30
0.0
 10
318.9541741995021
 20
-238.3978849469313
 30
0.0
 10
318.3044875230726
 20
-238.425491647181
 30
0.0
 10
317.6481878936796
 20
-238.4351179296599
 30
0.0
 10
317.0039460072265
 20
-238.3663600333331
 30
0.0
 10
316.8191240385223
 20
-238.3466340083742
 30
0.0
 10
316.6661057495834
 20
-238.0289312876514
 30
0.0
 10
316.4985075476262
 20
-237.8478527503335
 30
0.0
 10
316.6878074744393
 20
-237.6870821070366
 30
0.0
 10
316.8707533025906
 20
-237.3970590967477
 30
0.0
 10
317.0674781441377
 20
-237.3873863532408
 30
0.0
 10
318.0420557260256
 20
-237.3394761838294
 30
0.0
 10
319.0203634647168
 20
-237.3588172459855
 30
0.0
 10
319.9971291397716
 20
-237.3716471269563
 30
0.0
 10
320.1807718833416
 20
-237.374054250684
 30
0.0
 10
320.3633902718678
 20
-237.4545977610686
 30
0.0
 10
320.5464799079624
 20
-237.4990853014306
 30
0.0
 10
320.5464799079624
 20
-237.7407423817482
 30
0.0
 10
320.5464799079624
 20
-237.9823972496364
 30
0.0
 10
320.5464799079624
 20
-238.2240543299527
 30
0.0
  0
HATCH
  5
A1
330
82
100
AcDbEntity
  8
Layer 1
 62
    18
420
        0
440
 33554687
100
AcDbHatch
 10
0.0
 20
0.0
 30
0.0
210
0.0
220
0.0
230
1.0
  2
SOLID
 70
     1
 71
     1
 91
        1
 92
        1
 93
        1
 72
     4
 94
        3
 73
     0
 74
     0
 95
       26
 96
       22
 40
0.0
 40
0.0
 40
0.0
 40
0.0
 40
1.0
 40
1.0
 40
1.0
 40
2.0
 40
2.0
 40
2.0
 40
3.0
 40
3.0
 40
3.0
 40
4.0
 40
4.0
 40
4.0
 40
5.0
 40
5.0
 40
5.0
 40
6.0
 40
6.0
 40
6.0
 40
7.0
 40
7.0
 40
7.0
 40
7.0
 10
320.5464799079624
 20
-238.2240543299527
 10
320.0158197475402
 20
-238.2845709249146
 10
319.4864450088891
 20
-238.3752672760973
 10
318.9541741995021
 20
-238.3978849469313
 10
318.3044875230726
 20
-238.425491647181
 10
317.6481878936796
 20
-238.4351179296599
 10
317.0039460072265
 20
-238.3663600333331
 10
316.8191240385223
 20
-238.3466340083742
 10
316.6661057495834
 20
-238.0289312876514
 10
316.4985075476262
 20
-237.8478527503335
 10
316.6878074744393
 20
-237.6870821070366
 10
316.8707533025906
 20
-237.3970590967477
 10
317.0674781441377
 20
-237.3873863532408
 10
318.0420557260256
 20
-237.3394761838294
 10
319.0203634647168
 20
-237.3588172459855
 10
319.9971291397716
 20
-237.3716471269563
 10
320.1807718833416
 20
-237.374054250684
 10
320.3633902718678
 20
-237.4545977610686
 10
320.5464799079624
 20
-237.4990853014306
 10
320.5464799079624
 20
-237.7407423817482
 10
320.5464799079624
 20
-237.9823972496364
 10
320.5464799079624
 20
-238.2240543299527
 97
        0
 97
        1
330
A0
 75
     2
 76
     1
 98
        1
 10
0.0
 20
0.0
450
        0
451
        0
460
0.0
461
0.0
452
        0
462
0.0
453
        0
470

  0
SPLINE
  5
A2
330
82
100
AcDbEntity
  8
Layer 1
100
AcDbSpline
210
0.0
220
0.0
230
1.0
 70
     9
 71
     3
 72
    23
 73
    19
 74
     0
 42
0.0000000001
 43
0.0000000001
 40
0.0
 40
0.0
 40
0.0
 40
0.0
 40
1.0
 40
1.0
 40
1.0
 40
2.0
 40
2.0
 40
2.0
 40
3.0
 40
3.0
 40
3.0
 40
4.0
 40
4.0
 40
4.0
 40
5.0
 40
5.0
 40
5.0
 40
6.0
 40
6.0
 40
6.0
 40
6.0
 10
297.1299802867033
 20
-214.1550825743795
 30
0.0
 10
297.1960003010332
 20
-215.4099849887471
 30
0.0
 10
297.2760902632891
 20
-216.6645701873321
 30
0.0
 10
297.3043960913876
 20
-217.9203227192431
 30
0.0
 10
297.306981315721
 20
-218.0350142554206
 30
0.0
 10
296.9712240608246
 20
-218.2579945556592
 30
0.0
 10
296.8045949031612
 20
-218.2470922542355
 30
0.0
 10
296.6429370754749
 20
-218.2365151800075
 30
0.0
 10
296.3694132611429
 20
-217.9938190873013
 30
0.0
 10
296.3641753333643
 20
-217.8453315782356
 30
0.0
 10
296.3263870307302
 20
-216.774000288662
 30
0.0
 10
296.3358982668538
 20
-215.7005653930899
 30
0.0
 10
296.3536961591584
 20
-214.6281834413004
 30
0.0
 10
296.3563300569504
 20
-214.4694407319887
 30
0.0
 10
296.4815181902213
 20
-214.3127321791209
 30
0.0
 10
296.5500050638858
 20
-214.155082557096
 30
0.0
 10
296.7433305068944
 20
-214.1550825830226
 30
0.0
 10
296.9366548436895
 20
-214.1550825830226
 30
0.0
 10
297.1299802867033
 20
-214.1550825743795
 30
0.0
  0
HATCH
  5
A3
330
82
100
AcDbEntity
  8
Layer 1
 62
    18
420
        0
440
 33554687
100
AcDbHatch
 10
0.0
 20
0.0
 30
0.0
210
0.0
220
0.0
230
1.0
  2
SOLID
 70
     1
 71
     1
 91
        1
 92
        1
 93
        1
 72
     4
 94
        3
 73
     0
 74
     0
 95
       23
 96
       19
 40
0.0
 40
0.0
 40
0.0
 40
0.0
 40
1.0
 40
1.0
 40
1.0
 40
2.0
 40
2.0
 40
2.0
 40
3.0
 40
3.0
 40
3.0
 40
4.0
 40
4.0
 40
4.0
 40
5.0
 40
5.0
 40
5.0
 40
6.0
 40
6.0
 40
6.0
 40
6.0
 10
297.1299802867033
 20
-214.1550825743795
 10
297.1960003010332
 20
-215.4099849887471
 10
297.2760902632891
 20
-216.6645701873321
 10
297.3043960913876
 20
-217.9203227192431
 10
297.306981315721
 20
-218.0350142554206
 10
296.9712240608246
 20
-218.2579945556592
 10
296.8045949031612
 20
-218.2470922542355
 10
296.6429370754749
 20
-218.2365151800075
 10
296.3694132611429
 20
-217.9938190873013
 10
296.3641753333643
 20
-217.8453315782356
 10
296.3263870307302
 20
-216.774000288662
 10
296.3358982668538
 20
-215.7005653930899
 10
296.3536961591584
 20
-214.6281834413004
 10
296.3563300569504
 20
-214.4694407319887
 10
296.4815181902213
 20
-214.3127321791209
 10
296.5500050638858
 20
-214.155082557096
 10
296.7433305068944
 20
-214.1550825830226
 10
296.9366548436895
 20
-214.1550825830226
 10
297.1299802867033
 20
-214.1550825743795
 97
        0
 97
        1
330
A2
 75
     2
 76
     1
 98
        1
 10
0.0
 20
0.0
450
        0
451
        0
460
0.0
461
0.0
452
        0
462
0.0
453
        0
470

  0
SPLINE
  5
A4
330
82
100
AcDbEntity
  8
Layer 1
100
AcDbSpline
210
0.0
220
0.0
230
1.0
 70
     9
 71
     3
 72
    23
 73
    19
 74
     0
 42
0.0000000001
 43
0.0000000001
 40
0.0
 40
0.0
 40
0.0
 40
0.0
 40
1.0
 40
1.0
 40
1.0
 40
2.0
 40
2.0
 40
2.0
 40
3.0
 40
3.0
 40
3.0
 40
4.0
 40
4.0
 40
4.0
 40
5.0
 40
5.0
 40
5.0
 40
6.0
 40
6.0
 40
6.0
 40
6.0
 10
286.1829479516994
 20
-223.7971706623657
 30
0.0
 10
287.4245999808151
 20
-223.7294183154268
 30
0.0
 10
288.6658960809512
 20
-223.6457895715485
 30
0.0
 10
289.9084423422553
 20
-223.6179240170008
 30
0.0
 10
290.0358498192644
 20
-223.6150666637892
 30
0.0
 10
290.2816247847273
 20
-223.953204493252
 30
0.0
 10
290.2706984231293
 20
-224.1198834305901
 30
0.0
 10
290.2599612242885
 20
-224.283671828267
 30
0.0
 10
289.9970017627114
 20
-224.5580540653983
 30
0.0
 10
289.8362479891907
 20
-224.5642577188291
 30
0.0
 10
288.789910243607
 20
-224.6046378830861
 30
0.0
 10
287.7410976186288
 20
-224.5945016355157
 30
0.0
 10
286.6935357079272
 20
-224.5759681102727
 30
0.0
 10
286.5222207620191
 20
-224.5729381875283
 30
0.0
 10
286.353088758467
 20
-224.4465298991707
 30
0.0
 10
286.1829479041669
 20
-224.3771458851818
 30
0.0
 10
286.1829479560194
 20
-224.1838204421732
 30
0.0
 10
286.1829479560194
 20
-223.9904961053762
 30
0.0
 10
286.1829479516994
 20
-223.7971706623657
 30
0.0
  0
HATCH
  5
A5
330
82
100
AcDbEntity
  8
Layer 1
 62
    18
420
        0
440
 33554687
100
AcDbHatch
 10
0.0
 20
0.0
 30
0.0
210
0.0
220
0.0
230
1.0
  2
SOLID
 70
     1
 71
     1
 91
        1
 92
        1
 93
        1
 72
     4
 94
        3
 73
     0
 74
     0
 95
       23
 96
       19
 40
0.0
 40
0.0
 40
0.0
 40
0.0
 40
1.0
 40
1.0
 40
1.0
 40
2.0
 40
2.0
 40
2.0
 40
3.0
 40
3.0
 40
3.0
 40
4.0
 40
4.0
 40
4.0
 40
5.0
 40
5.0
 40
5.0
 40
6.0
 40
6.0
 40
6.0
 40
6.0
 10
286.1829479516994
 20
-223.7971706623657
 10
287.4245999808151
 20
-223.7294183154268
 10
288.6658960809512
 20
-223.6457895715485
 10
289.9084423422553
 20
-223.6179240170008
 10
290.0358498192644
 20
-223.6150666637892
 10
290.2816247847273
 20
-223.953204493252
 10
290.2706984231293
 20
-224.1198834305901
 10
290.2599612242885
 20
-224.283671828267
 10
289.9970017627114
 20
-224.5580540653983
 10
289.8362479891907
 20
-224.5642577188291
 10
288.789910243607
 20
-224.6046378830861
 10
287.7410976186288
 20
-224.5945016355157
 10
286.6935357079272
 20
-224.5759681102727
 10
286.5222207620191
 20
-224.5729381875283
 10
286.353088758467
 20
-224.4465298991707
 10
286.1829479041669
 20
-224.3771458851818
 10
286.1829479560194
 20
-224.1838204421732
 10
286.1829479560194
 20
-223.9904961053762
 10
286.1829479516994
 20
-223.7971706623657
 97
        0
 97
        1
330
A4
 75
     2
 76
     1
 98
        1
 10
0.0
 20
0.0
450
        0
451
        0
460
0.0
461
0.0
452
        0
462
0.0
453
        0
470

  0
SPLINE
  5
A6
330
82
100
AcDbEntity
  8
Layer 1
100
AcDbSpline
210
0.0
220
0.0
230
1.0
 70
     9
 71
     3
 72
    23
 73
    19
 74
     0
 42
0.0000000001
 43
0.0000000001
 40
0.0
 40
0.0
 40
0.0
 40
0.0
 40
1.0
 40
1.0
 40
1.0
 40
2.0
 40
2.0
 40
2.0
 40
3.0
 40
3.0
 40
3.0
 40
4.0
 40
4.0
 40
4.0
 40
5.0
 40
5.0
 40
5.0
 40
6.0
 40
6.0
 40
6.0
 40
6.0
 10
302.4947510977664
 20
-214.1550825743795
 30
0.0
 10
302.5631361996543
 20
-215.3969901434701
 30
0.0
 10
302.6463434756363
 20
-216.6385257391441
 30
0.0
 10
302.6775420558241
 20
-217.8813668067318
 30
0.0
 10
302.6807500791735
 20
-218.0091313146145
 30
0.0
 10
302.3627542114885
 20
-218.2602398954488
 30
0.0
 10
302.2125877446857
 20
-218.246643684075
 30
0.0
 10
302.0351586104815
 20
-218.2305792305961
 30
0.0
 10
301.7402925911496
 20
-217.9943492408144
 30
0.0
 10
301.7343997841213
 20
-217.8442165135691
 30
0.0
 10
301.6923591912268
 20
-216.773319689916
 30
0.0
 10
301.7027299563658
 20
-215.6999056741494
 30
0.0
 10
301.7195919908228
 20
-214.6276568484161
 30
0.0
 10
301.7220853993176
 20
-214.4691481035669
 30
0.0
 10
301.8466750702998
 20
-214.3125595231647
 30
0.0
 10
301.9147758749483
 20
-214.1550825743795
 30
0.0
 10
302.108101317957
 20
-214.1550825830226
 30
0.0
 10
302.301425654754
 20
-214.1550825830226
 30
0.0
 10
302.4947510977664
 20
-214.1550825743795
 30
0.0
  0
HATCH
  5
A7
330
82
100
AcDbEntity
  8
Layer 1
 62
    18
420
        0
440
 33554687
100
AcDbHatch
 10
0.0
 20
0.0
 30
0.0
210
0.0
220
0.0
230
1.0
  2
SOLID
 70
     1
 71
     1
 91
        1
 92
        1
 93
        1
 72
     4
 94
        3
 73
     0
 74
     0
 95
       23
 96
       19
 40
0.0
 40
0.0
 40
0.0
 40
0.0
 40
1.0
 40
1.0
 40
1.0
 40
2.0
 40
2.0
 40
2.0
 40
3.0
 40
3.0
 40
3.0
 40
4.0
 40
4.0
 40
4.0
 40
5.0
 40
5.0
 40
5.0
 40
6.0
 40
6.0
 40
6.0
 40
6.0
 10
302.4947510977664
 20
-214.1550825743795
 10
302.5631361996543
 20
-215.3969901434701
 10
302.6463434756363
 20
-216.6385257391441
 10
302.6775420558241
 20
-217.8813668067318
 10
302.6807500791735
 20
-218.0091313146145
 10
302.3627542114885
 20
-218.2602398954488
 10
302.2125877446857
 20
-218.246643684075
 10
302.0351586104815
 20
-218.2305792305961
 10
301.7402925911496
 20
-217.9943492408144
 10
301.7343997841213
 20
-217.8442165135691
 10
301.6923591912268
 20
-216.773319689916
 10
301.7027299563658
 20
-215.6999056741494
 10
301.7195919908228
 20
-214.6276568484161
 10
301.7220853993176
 20
-214.4691481035669
 10
301.8466750702998
 20
-214.3125595231647
 10
301.9147758749483
 20
-214.1550825743795
 10
302.108101317957
 20
-214.1550825830226
 10
302.301425654754
 20
-214.1550825830226
 10
302.4947510977664
 20
-214.1550825743795
 97
        0
 97
        1
330
A6
 75
     2
 76
     1
 98
        1
 10
0.0
 20
0.0
450
        0
451
        0
460
0.0
461
0.0
452
        0
462
0.0
453
        0
470

  0
SPLINE
  5
A8
330
82
100
AcDbEntity
  8
Layer 1
100
AcDbSpline
210
0.0
220
0.0
230
1.0
 70
     9
 71
     3
 72
    23
 73
    19
 74
     0
 42
0.0000000001
 43
0.0000000001
 40
0.0
 40
0.0
 40
0.0
 40
0.0
 40
1.0
 40
1.0
 40
1.0
 40
2.0
 40
2.0
 40
2.0
 40
3.0
 40
3.0
 40
3.0
 40
4.0
 40
4.0
 40
4.0
 40
5.0
 40
5.0
 40
5.0
 40
6.0
 40
6.0
 40
6.0
 40
6.0
 10
308.149509520237
 20
-214.1550825657377
 30
0.0
 10
308.2172762479702
 20
-215.3835635978144
 30
0.0
 10
308.3019547898339
 20
-216.6116624153378
 30
0.0
 10
308.3297495466235
 20
-217.8410472077416
 30
0.0
 10
308.332948720254
 20
-217.9824878510319
 30
0.0
 10
308.0218102790341
 20
-218.2404414134132
 30
0.0
 10
307.8513469803592
 20
-218.244766990416
 30
0.0
 10
307.6899612815512
 20
-218.2488621981528
 30
0.0
 10
307.3842189568495
 20
-217.9953603212785
 30
0.0
 10
307.3788095657516
 20
-217.8465406711752
 30
0.0
 10
307.3394305260225
 20
-216.7631613180457
 30
0.0
 10
307.3520900498899
 20
-215.6774723263848
 30
0.0
 10
307.370665611302
 20
-214.5928962215261
 30
0.0
 10
307.3731833565248
 20
-214.4458659086716
 30
0.0
 10
307.5001768325894
 20
-214.3009676349996
 30
0.0
 10
307.5695342974183
 20
-214.1550824447467
 30
0.0
 10
307.7628586342166
 20
-214.1550825830226
 30
0.0
 10
307.9561851834406
 20
-214.1550825830226
 30
0.0
 10
308.149509520237
 20
-214.1550825657377
 30
0.0
  0
HATCH
  5
A9
330
82
100
AcDbEntity
  8
Layer 1
 62
    18
420
        0
440
 33554687
100
AcDbHatch
 10
0.0
 20
0.0
 30
0.0
210
0.0
220
0.0
230
1.0
  2
SOLID
 70
     1
 71
     1
 91
        1
 92
        1
 93
        1
 72
     4
 94
        3
 73
     0
 74
     0
 95
       23
 96
       19
 40
0.0
 40
0.0
 40
0.0
 40
0.0
 40
1.0
 40
1.0
 40
1.0
 40
2.0
 40
2.0
 40
2.0
 40
3.0
 40
3.0
 40
3.0
 40
4.0
 40
4.0
 40
4.0
 40
5.0
 40
5.0
 40
5.0
 40
6.0
 40
6.0
 40
6.0
 40
6.0
 10
308.149509520237
 20
-214.1550825657377
 10
308.2172762479702
 20
-215.3835635978144
 10
308.3019547898339
 20
-216.6116624153378
 10
308.3297495466235
 20
-217.8410472077416
 10
308.332948720254
 20
-217.9824878510319
 10
308.0218102790341
 20
-218.2404414134132
 10
307.8513469803592
 20
-218.244766990416
 10
307.6899612815512
 20
-218.2488621981528
 10
307.3842189568495
 20
-217.9953603212785
 10
307.3788095657516
 20
-217.8465406711752
 10
307.3394305260225
 20
-216.7631613180457
 10
307.3520900498899
 20
-215.6774723263848
 10
307.370665611302
 20
-214.5928962215261
 10
307.3731833565248
 20
-214.4458659086716
 10
307.5001768325894
 20
-214.3009676349996
 10
307.5695342974183
 20
-214.1550824447467
 10
307.7628586342166
 20
-214.1550825830226
 10
307.9561851834406
 20
-214.1550825830226
 10
308.149509520237
 20
-214.1550825657377
 97
        0
 97
        1
330
A8
 75
     2
 76
     1
 98
        1
 10
0.0
 20
0.0
450
        0
451
        0
460
0.0
461
0.0
452
        0
462
0.0
453
        0
470

  0
SPLINE
  5
AA
330
82
100
AcDbEntity
  8
Layer 1
100
AcDbSpline
210
0.0
220
0.0
230
1.0
 70
     9
 71
     3
 72
    23
 73
    19
 74
     0
 42
0.0000000001
 43
0.0000000001
 40
0.0
 40
0.0
 40
0.0
 40
0.0
 40
1.0
 40
1.0
 40
1.0
 40
2.0
 40
2.0
 40
2.0
 40
3.0
 40
3.0
 40
3.0
 40
4.0
 40
4.0
 40
4.0
 40
5.0
 40
5.0
 40
5.0
 40
6.0
 40
6.0
 40
6.0
 40
6.0
 10
286.1829479344146
 20
-232.2068113932198
 30
0.0
 10
287.3992495442287
 20
-232.1386939953475
 30
0.0
 10
288.6151534481642
 20
-232.0519003705035
 30
0.0
 10
289.8323538360173
 20
-232.025968479687
 30
0.0
 10
289.9854672594454
 20
-232.0227062518029
 30
0.0
 10
290.2452720725417
 20
-232.3267261998299
 30
0.0
 10
290.2698856316957
 20
-232.5129287247912
 30
0.0
 10
290.2888179474297
 20
-232.6561536927925
 30
0.0
 10
290.0209759296243
 20
-232.9750245765012
 30
0.0
 10
289.8717630201062
 20
-232.9806684851697
 30
0.0
 10
288.8004762556848
 20
-233.0211957760135
 30
0.0
 10
287.7267620408389
 20
-233.0103128333524
 30
0.0
 10
286.6542423652875
 20
-232.9915315159591
 30
0.0
 10
286.4959975909776
 20
-232.9887593412992
 30
0.0
 10
286.3399903438184
 20
-232.8582149152485
 30
0.0
 10
286.182947921451
 20
-232.7867866160372
 30
0.0
 10
286.1829479560194
 20
-232.593461173028
 30
0.0
 10
286.1829479560194
 20
-232.4001368362309
 30
0.0
 10
286.1829479344146
 20
-232.2068113932198
 30
0.0
  0
HATCH
  5
AB
330
82
100
AcDbEntity
  8
Layer 1
 62
    18
420
        0
440
 33554687
100
AcDbHatch
 10
0.0
 20
0.0
 30
0.0
210
0.0
220
0.0
230
1.0
  2
SOLID
 70
     1
 71
     1
 91
        1
 92
        1
 93
        1
 72
     4
 94
        3
 73
     0
 74
     0
 95
       23
 96
       19
 40
0.0
 40
0.0
 40
0.0
 40
0.0
 40
1.0
 40
1.0
 40
1.0
 40
2.0
 40
2.0
 40
2.0
 40
3.0
 40
3.0
 40
3.0
 40
4.0
 40
4.0
 40
4.0
 40
5.0
 40
5.0
 40
5.0
 40
6.0
 40
6.0
 40
6.0
 40
6.0
 10
286.1829479344146
 20
-232.2068113932198
 10
287.3992495442287
 20
-232.1386939953475
 10
288.6151534481642
 20
-232.0519003705035
 10
289.8323538360173
 20
-232.025968479687
 10
289.9854672594454
 20
-232.0227062518029
 10
290.2452720725417
 20
-232.3267261998299
 10
290.2698856316957
 20
-232.5129287247912
 10
290.2888179474297
 20
-232.6561536927925
 10
290.0209759296243
 20
-232.9750245765012
 10
289.8717630201062
 20
-232.9806684851697
 10
288.8004762556848
 20
-233.0211957760135
 10
287.7267620408389
 20
-233.0103128333524
 10
286.6542423652875
 20
-232.9915315159591
 10
286.4959975909776
 20
-232.9887593412992
 10
286.3399903438184
 20
-232.8582149152485
 10
286.182947921451
 20
-232.7867866160372
 10
286.1829479560194
 20
-232.593461173028
 10
286.1829479560194
 20
-232.4001368362309
 10
286.1829479344146
 20
-232.2068113932198
 97
        0
 97
        1
330
AA
 75
     2
 76
     1
 98
        1
 10
0.0
 20
0.0
450
        0
451
        0
460
0.0
461
0.0
452
        0
462
0.0
453
        0
470

  0
SPLINE
  5
AC
330
82
100
AcDbEntity
  8
Layer 1
100
AcDbSpline
210
0.0
220
0.0
230
1.0
 70
     9
 71
     3
 72
    23
 73
    19
 74
     0
 42
0.0000000001
 43
0.0000000001
 40
0.0
 40
0.0
 40
0.0
 40
0.0
 40
1.0
 40
1.0
 40
1.0
 40
2.0
 40
2.0
 40
2.0
 40
3.0
 40
3.0
 40
3.0
 40
4.0
 40
4.0
 40
4.0
 40
5.0
 40
5.0
 40
5.0
 40
6.0
 40
6.0
 40
6.0
 40
6.0
 10
320.5464799079624
 20
-224.4496427880348
 30
0.0
 10
319.3274509467984
 20
-224.4931778773256
 30
0.0
 10
318.1084949958218
 20
-224.5519864764073
 30
0.0
 10
316.8892846154055
 20
-224.5578660088577
 30
0.0
 10
316.759872953459
 20
-224.5584910203038
 30
0.0
 10
316.5396056453845
 20
-224.2560098172684
 30
0.0
 10
316.5258133574109
 20
-224.0811836068386
 30
0.0
 10
316.5138662359681
 20
-223.9297361431242
 30
0.0
 10
316.7313436699435
 20
-223.6230314114171
 30
0.0
 10
316.8541755653742
 20
-223.6194915235825
 30
0.0
 10
317.9851431793641
 20
-223.5868902628409
 30
0.0
 10
319.1176130332539
 20
-223.602487893614
 30
0.0
 10
320.2495452666801
 20
-223.6139294748229
 30
0.0
 10
320.3488877938964
 20
-223.6149339179962
 30
0.0
 10
320.4475179186874
 20
-223.686097831836
 30
0.0
 10
320.5464799079624
 20
-223.7246737595134
 30
0.0
 10
320.5464799079624
 20
-223.966329733615
 30
0.0
 10
320.5464799079624
 20
-224.2079868139332
 30
0.0
 10
320.5464799079624
 20
-224.4496427880348
 30
0.0
  0
HATCH
  5
AD
330
82
100
AcDbEntity
  8
Layer 1
 62
    18
420
        0
440
 33554687
100
AcDbHatch
 10
0.0
 20
0.0
 30
0.0
210
0.0
220
0.0
230
1.0
  2
SOLID
 70
     1
 71
     1
 91
        1
 92
        1
 93
        1
 72
     4
 94
        3
 73
     0
 74
     0
 95
       23
 96
       19
 40
0.0
 40
0.0
 40
0.0
 40
0.0
 40
1.0
 40
1.0
 40
1.0
 40
2.0
 40
2.0
 40
2.0
 40
3.0
 40
3.0
 40
3.0
 40
4.0
 40
4.0
 40
4.0
 40
5.0
 40
5.0
 40
5.0
 40
6.0
 40
6.0
 40
6.0
 40
6.0
 10
320.5464799079624
 20
-224.4496427880348
 10
319.3274509467984
 20
-224.4931778773256
 10
318.1084949958218
 20
-224.5519864764073
 10
316.8892846154055
 20
-224.5578660088577
 10
316.759872953459
 20
-224.5584910203038
 10
316.5396056453845
 20
-224.2560098172684
 10
316.5258133574109
 20
-224.0811836068386
 10
316.5138662359681
 20
-223.9297361431242
 10
316.7313436699435
 20
-223.6230314114171
 10
316.8541755653742
 20
-223.6194915235825
 10
317.9851431793641
 20
-223.5868902628409
 10
319.1176130332539
 20
-223.602487893614
 10
320.2495452666801
 20
-223.6139294748229
 10
320.3488877938964
 20
-223.6149339179962
 10
320.4475179186874
 20
-223.686097831836
 10
320.5464799079624
 20
-223.7246737595134
 10
320.5464799079624
 20
-223.966329733615
 10
320.5464799079624
 20
-224.2079868139332
 10
320.5464799079624
 20
-224.4496427880348
 97
        0
 97
        1
330
AC
 75
     2
 76
     1
 98
        1
 10
0.0
 20
0.0
450
        0
451
        0
460
0.0
461
0.0
452
        0
462
0.0
453
        0
470

  0
SPLINE
  5
AE
330
82
100
AcDbEntity
  8
Layer 1
100
AcDbSpline
210
0.0
220
0.0
230
1.0
 70
     9
 71
     3
 72
    26
 73
    22
 74
     0
 42
0.0000000001
 43
0.0000000001
 40
0.0
 40
0.0
 40
0.0
 40
0.0
 40
1.0
 40
1.0
 40
1.0
 40
2.0
 40
2.0
 40
2.0
 40
3.0
 40
3.0
 40
3.0
 40
4.0
 40
4.0
 40
4.0
 40
5.0
 40
5.0
 40
5.0
 40
6.0
 40
6.0
 40
6.0
 40
7.0
 40
7.0
 40
7.0
 40
7.0
 10
320.5464799079624
 20
-232.8592835188902
 30
0.0
 10
319.9435153260892
 20
-232.9161960655504
 30
0.0
 10
319.3415861614076
 20
-232.9964254108921
 30
0.0
 10
318.7372852718778
 20
-233.0233108589951
 30
0.0
 10
318.1602813424086
 20
-233.0489838955144
 30
0.0
 10
317.5761932124146
 20
-233.0582915880903
 30
0.0
 10
317.005085408621
 20
-232.9910226570849
 30
0.0
 10
316.8212435463626
 20
-232.9693673932563
 30
0.0
 10
316.6687407535921
 20
-232.6816453100614
 30
0.0
 10
316.5019036275169
 20
-232.5156422700581
 30
0.0
 10
316.6789201435457
 20
-232.3436601382609
 30
0.0
 10
316.8491024636221
 20
-232.0320283251739
 30
0.0
 10
317.034092576997
 20
-232.0229750620357
 30
0.0
 10
318.0319935948553
 20
-231.9741423093579
 30
0.0
 10
319.0336446813874
 20
-231.9941249761846
 30
0.0
 10
320.0338001653085
 20
-232.0066904717833
 30
0.0
 10
320.2052015342601
 20
-232.0088442722873
 30
0.0
 10
320.3756117346188
 20
-232.0897760641187
 30
0.0
 10
320.5464799079624
 20
-232.1343144903681
 30
0.0
 10
320.5464799079624
 20
-232.375970464471
 30
0.0
 10
320.5464799079624
 20
-232.6176275447873
 30
0.0
 10
320.5464799079624
 20
-232.8592835188902
 30
0.0
  0
HATCH
  5
AF
330
82
100
AcDbEntity
  8
Layer 1
 62
    18
420
        0
440
 33554687
100
AcDbHatch
 10
0.0
 20
0.0
 30
0.0
210
0.0
220
0.0
230
1.0
  2
SOLID
 70
     1
 71
     1
 91
        1
 92
        1
 93
        1
 72
     4
 94
        3
 73
     0
 74
     0
 95
       26
 96
       22
 40
0.0
 40
0.0
 40
0.0
 40
0.0
 40
1.0
 40
1.0
 40
1.0
 40
2.0
 40
2.0
 40
2.0
 40
3.0
 40
3.0
 40
3.0
 40
4.0
 40
4.0
 40
4.0
 40
5.0
 40
5.0
 40
5.0
 40
6.0
 40
6.0
 40
6.0
 40
7.0
 40
7.0
 40
7.0
 40
7.0
 10
320.5464799079624
 20
-232.8592835188902
 10
319.9435153260892
 20
-232.9161960655504
 10
319.3415861614076
 20
-232.9964254108921
 10
318.7372852718778
 20
-233.0233108589951
 10
318.1602813424086
 20
-233.0489838955144
 10
317.5761932124146
 20
-233.0582915880903
 10
317.005085408621
 20
-232.9910226570849
 10
316.8212435463626
 20
-232.9693673932563
 10
316.6687407535921
 20
-232.6816453100614
 10
316.5019036275169
 20
-232.5156422700581
 10
316.6789201435457
 20
-232.3436601382609
 10
316.8491024636221
 20
-232.0320283251739
 10
317.034092576997
 20
-232.0229750620357
 10
318.0319935948553
 20
-231.9741423093579
 10
319.0336446813874
 20
-231.9941249761846
 10
320.0338001653085
 20
-232.0066904717833
 10
320.2052015342601
 20
-232.0088442722873
 10
320.3756117346188
 20
-232.0897760641187
 10
320.5464799079624
 20
-232.1343144903681
 10
320.5464799079624
 20
-232.375970464471
 10
320.5464799079624
 20
-232.6176275447873
 10
320.5464799079624
 20
-232.8592835188902
 97
        0
 97
        1
330
AE
 75
     2
 76
     1
 98
        1
 10
0.0
 20
0.0
450
        0
451
        0
460
0.0
461
0.0
452
        0
462
0.0
453
        0
470

  0
SPLINE
  5
B0
330
82
100
AcDbEntity
  8
Layer 1
100
AcDbSpline
210
0.0
220
0.0
230
1.0
 70
     9
 71
     3
 72
    20
 73
    16
 74
     0
 42
0.0000000001
 43
0.0000000001
 40
0.0
 40
0.0
 40
0.0
 40
0.0
 40
1.0
 40
1.0
 40
1.0
 40
2.0
 40
2.0
 40
2.0
 40
3.0
 40
3.0
 40
3.0
 40
4.0
 40
4.0
 40
4.0
 40
5.0
 40
5.0
 40
5.0
 40
5.0
 10
301.8422789720947
 20
-248.5186145349649
 30
0.0
 10
301.7995868185953
 20
-247.3007515243567
 30
0.0
 10
301.7415027903033
 20
-246.0829482493543
 30
0.0
 10
301.7365834524289
 20
-244.8649325810826
 30
0.0
 10
301.7360557878988
 20
-244.7345341754072
 30
0.0
 10
302.0382084450951
 20
-244.5131761393898
 30
0.0
 10
302.213254792299
 20
-244.4990652615106
 30
0.0
 10
302.3641579982583
 20
-244.4869013219391
 30
0.0
 10
302.6745851432671
 20
-244.7109828591577
 30
0.0
 10
302.6738561476154
 20
-244.8291310404958
 30
0.0
 10
302.6662630882099
 20
-246.0591336539475
 30
0.0
 10
302.6100065270146
 20
-247.288830952074
 30
0.0
 10
302.5672480006168
 20
-248.5186145349649
 30
0.0
 10
302.3255920265139
 20
-248.5186145349649
 30
0.0
 10
302.083934946197
 20
-248.5186145349649
 30
0.0
 10
301.8422789720947
 20
-248.5186145349649
 30
0.0
  0
HATCH
  5
B1
330
82
100
AcDbEntity
  8
Layer 1
 62
    18
420
        0
440
 33554687
100
AcDbHatch
 10
0.0
 20
0.0
 30
0.0
210
0.0
220
0.0
230
1.0
  2
SOLID
 70
     1
 71
     1
 91
        1
 92
        1
 93
        1
 72
     4
 94
        3
 73
     0
 74
     0
 95
       20
 96
       16
 40
0.0
 40
0.0
 40
0.0
 40
0.0
 40
1.0
 40
1.0
 40
1.0
 40
2.0
 40
2.0
 40
2.0
 40
3.0
 40
3.0
 40
3.0
 40
4.0
 40
4.0
 40
4.0
 40
5.0
 40
5.0
 40
5.0
 40
5.0
 10
301.8422789720947
 20
-248.5186145349649
 10
301.7995868185953
 20
-247.3007515243567
 10
301.7415027903033
 20
-246.0829482493543
 10
301.7365834524289
 20
-244.8649325810826
 10
301.7360557878988
 20
-244.7345341754072
 10
302.0382084450951
 20
-244.5131761393898
 10
302.213254792299
 20
-244.4990652615106
 10
302.3641579982583
 20
-244.4869013219391
 10
302.6745851432671
 20
-244.7109828591577
 10
302.6738561476154
 20
-244.8291310404958
 10
302.6662630882099
 20
-246.0591336539475
 10
302.6100065270146
 20
-247.288830952074
 10
302.5672480006168
 20
-248.5186145349649
 10
302.3255920265139
 20
-248.5186145349649
 10
302.083934946197
 20
-248.5186145349649
 10
301.8422789720947
 20
-248.5186145349649
 97
        0
 97
        1
330
B0
 75
     2
 76
     1
 98
        1
 10
0.0
 20
0.0
450
        0
451
        0
460
0.0
461
0.0
452
        0
462
0.0
453
        0
470

  0
SPLINE
  5
B2
330
82
100
AcDbEntity
  8
Layer 1
100
AcDbSpline
210
0.0
220
0.0
230
1.0
 70
     9
 71
     3
 72
    20
 73
    16
 74
     0
 42
0.0000000001
 43
0.0000000001
 40
0.0
 40
0.0
 40
0.0
 40
0.0
 40
1.0
 40
1.0
 40
1.0
 40
2.0
 40
2.0
 40
2.0
 40
3.0
 40
3.0
 40
3.0
 40
4.0
 40
4.0
 40
4.0
 40
5.0
 40
5.0
 40
5.0
 40
5.0
 10
296.477508161031
 20
-248.5186145349649
 30
0.0
 10
296.4336168705282
 20
-247.3000369094989
 30
0.0
 10
296.3755638162549
 20
-246.0815632682397
 30
0.0
 10
296.3665525892878
 20
-244.8627290009058
 30
0.0
 10
296.3655946071424
 20
-244.7331314948521
 30
0.0
 10
296.6522381307633
 20
-244.4972643435757
 30
0.0
 10
296.8045108308261
 20
-244.4980364816073
 30
0.0
 10
296.9799421408353
 20
-244.4989258784254
 30
0.0
 10
297.3061605042289
 20
-244.7084983003838
 30
0.0
 10
297.3057512046987
 20
-244.8265380726576
 30
0.0
 10
297.3014911709321
 20
-246.0573349484414
 30
0.0
 10
297.2447025203467
 20
-247.2879504049741
 30
0.0
 10
297.2024771895549
 20
-248.5186145349649
 30
0.0
 10
296.9608212154521
 20
-248.5186145349649
 30
0.0
 10
296.7191641351338
 20
-248.5186145349649
 30
0.0
 10
296.477508161031
 20
-248.5186145349649
 30
0.0
  0
HATCH
  5
B3
330
82
100
AcDbEntity
  8
Layer 1
 62
    18
420
        0
440
 33554687
100
AcDbHatch
 10
0.0
 20
0.0
 30
0.0
210
0.0
220
0.0
230
1.0
  2
SOLID
 70
     1
 71
     1
 91
        1
 92
        1
 93
        1
 72
     4
 94
        3
 73
     0
 74
     0
 95
       20
 96
       16
 40
0.0
 40
0.0
 40
0.0
 40
0.0
 40
1.0
 40
1.0
 40
1.0
 40
2.0
 40
2.0
 40
2.0
 40
3.0
 40
3.0
 40
3.0
 40
4.0
 40
4.0
 40
4.0
 40
5.0
 40
5.0
 40
5.0
 40
5.0
 10
296.477508161031
 20
-248.5186145349649
 10
296.4336168705282
 20
-247.3000369094989
 10
296.3755638162549
 20
-246.0815632682397
 10
296.3665525892878
 20
-244.8627290009058
 10
296.3655946071424
 20
-244.7331314948521
 10
296.6522381307633
 20
-244.4972643435757
 10
296.8045108308261
 20
-244.4980364816073
 10
296.9799421408353
 20
-244.4989258784254
 10
297.3061605042289
 20
-244.7084983003838
 10
297.3057512046987
 20
-244.8265380726576
 10
297.3014911709321
 20
-246.0573349484414
 10
297.2447025203467
 20
-247.2879504049741
 10
297.2024771895549
 20
-248.5186145349649
 10
296.9608212154521
 20
-248.5186145349649
 10
296.7191641351338
 20
-248.5186145349649
 10
296.477508161031
 20
-248.5186145349649
 97
        0
 97
        1
330
B2
 75
     2
 76
     1
 98
        1
 10
0.0
 20
0.0
450
        0
451
        0
460
0.0
461
0.0
452
        0
462
0.0
453
        0
470

  0
SPLINE
  5
B4
330
82
100
AcDbEntity
  8
Layer 1
100
AcDbSpline
210
0.0
220
0.0
230
1.0
 70
     9
 71
     3
 72
    26
 73
    22
 74
     0
 42
0.0000000001
 43
0.0000000001
 40
0.0
 40
0.0
 40
0.0
 40
0.0
 40
1.0
 40
1.0
 40
1.0
 40
2.0
 40
2.0
 40
2.0
 40
3.0
 40
3.0
 40
3.0
 40
4.0
 40
4.0
 40
4.0
 40
5.0
 40
5.0
 40
5.0
 40
6.0
 40
6.0
 40
6.0
 40
7.0
 40
7.0
 40
7.0
 40
7.0
 10
307.4970373945666
 20
-248.5186145349649
 30
0.0
 10
307.4442443923731
 20
-247.6866656712231
 30
0.0
 10
307.3843163037649
 20
-246.8550774335515
 30
0.0
 10
307.3420566803084
 20
-246.0225931617761
 30
0.0
 10
307.3243926400155
 20
-245.6745735141769
 30
0.0
 10
307.2868366425212
 20
-245.3104031283368
 30
0.0
 10
307.3686124763581
 20
-244.9809501924326
 30
0.0
 10
307.417558062961
 20
-244.7837695903255
 30
0.0
 10
307.6799256995403
 20
-244.6395678345229
 30
0.0
 10
307.8463645882324
 20
-244.4715536957455
 30
0.0
 10
308.0166907162535
 20
-244.6509529987707
 30
0.0
 10
308.3251720291667
 20
-244.8236375770622
 30
0.0
 10
308.3342717533316
 20
-245.0108688819216
 30
0.0
 10
308.3827106934871
 20
-246.0077012961407
 30
0.0
 10
308.3623983746084
 20
-247.0082594423062
 30
0.0
 10
308.3496038925154
 20
-248.0073175609982
 30
0.0
 10
308.3474135869183
 20
-248.1782653818205
 30
0.0
 10
308.2665337871878
 20
-248.3482087594696
 30
0.0
 10
308.2220064230887
 20
-248.5186145349649
 30
0.0
 10
307.9803493427724
 20
-248.5186145349649
 30
0.0
 10
307.7386944748848
 20
-248.5186145349649
 30
0.0
 10
307.4970373945666
 20
-248.5186145349649
 30
0.0
  0
HATCH
  5
B5
330
82
100
AcDbEntity
  8
Layer 1
 62
    18
420
        0
440
 33554687
100
AcDbHatch
 10
0.0
 20
0.0
 30
0.0
210
0.0
220
0.0
230
1.0
  2
SOLID
 70
     1
 71
     1
 91
        1
 92
        1
 93
        1
 72
     4
 94
        3
 73
     0
 74
     0
 95
       26
 96
       22
 40
0.0
 40
0.0
 40
0.0
 40
0.0
 40
1.0
 40
1.0
 40
1.0
 40
2.0
 40
2.0
 40
2.0
 40
3.0
 40
3.0
 40
3.0
 40
4.0
 40
4.0
 40
4.0
 40
5.0
 40
5.0
 40
5.0
 40
6.0
 40
6.0
 40
6.0
 40
7.0
 40
7.0
 40
7.0
 40
7.0
 10
307.4970373945666
 20
-248.5186145349649
 10
307.4442443923731
 20
-247.6866656712231
 10
307.3843163037649
 20
-246.8550774335515
 10
307.3420566803084
 20
-246.0225931617761
 10
307.3243926400155
 20
-245.6745735141769
 10
307.2868366425212
 20
-245.3104031283368
 10
307.3686124763581
 20
-244.9809501924326
 10
307.417558062961
 20
-244.7837695903255
 10
307.6799256995403
 20
-244.6395678345229
 10
307.8463645882324
 20
-244.4715536957455
 10
308.0166907162535
 20
-244.6509529987707
 10
308.3251720291667
 20
-244.8236375770622
 10
308.3342717533316
 20
-245.0108688819216
 10
308.3827106934871
 20
-246.0077012961407
 10
308.3623983746084
 20
-247.0082594423062
 10
308.3496038925154
 20
-248.0073175609982
 10
308.3474135869183
 20
-248.1782653818205
 10
308.2665337871878
 20
-248.3482087594696
 10
308.2220064230887
 20
-248.5186145349649
 10
307.9803493427724
 20
-248.5186145349649
 10
307.7386944748848
 20
-248.5186145349649
 10
307.4970373945666
 20
-248.5186145349649
 97
        0
 97
        1
330
B4
 75
     2
 76
     1
 98
        1
 10
0.0
 20
0.0
450
        0
451
        0
460
0.0
461
0.0
452
        0
462
0.0
453
        0
470

  0
SPLINE
  5
B6
330
82
100
AcDbEntity
  8
Layer 1
100
AcDbSpline
210
0.0
220
0.0
230
1.0
 70
     9
 71
     3
 72
    17
 73
    13
 74
     0
 42
0.0000000001
 43
0.0000000001
 40
0.0
 40
0.0
 40
0.0
 40
0.0
 40
1.0
 40
1.0
 40
1.0
 40
2.0
 40
2.0
 40
2.0
 40
3.0
 40
3.0
 40
3.0
 40
4.0
 40
4.0
 40
4.0
 40
4.0
 10
297.018594397341
 20
-222.6802044109764
 30
0.0
 10
296.4649670021642
 20
-222.6841209650002
 30
0.0
 10
296.0332920615303
 20
-223.1129291495943
 30
0.0
 10
296.0298163341635
 20
-223.6624159822223
 30
0.0
 10
296.0262731276847
 20
-224.2224262376528
 30
0.0
 10
296.4800568802733
 20
-224.6817963757303
 30
0.0
 10
297.0320647767675
 20
-224.6769987215006
 30
0.0
 10
297.600280934684
 20
-224.6720605779717
 30
0.0
 10
298.0181945613599
 20
-224.2343545534404
 30
0.0
 10
298.0128183567108
 20
-223.6497940696626
 30
0.0
 10
298.0076921566426
 20
-223.0924420487515
 30
0.0
 10
297.5809022612207
 20
-222.6762264620216
 30
0.0
 10
297.018594397341
 20
-222.6802044109764
 30
0.0
  0
SPLINE
  5
B7
330
82
100
AcDbEntity
  8
Layer 1
100
AcDbSpline
210
0.0
220
0.0
230
1.0
 70
     9
 71
     3
 72
    32
 73
    28
 74
     0
 42
0.0000000001
 43
0.0000000001
 40
0.0
 40
0.0
 40
0.0
 40
0.0
 40
1.0
 40
1.0
 40
1.0
 40
2.0
 40
2.0
 40
2.0
 40
3.0
 40
3.0
 40
3.0
 40
4.0
 40
4.0
 40
4.0
 40
5.0
 40
5.0
 40
5.0
 40
6.0
 40
6.0
 40
6.0
 40
7.0
 40
7.0
 40
7.0
 40
8.0
 40
8.0
 40
8.0
 40
9.0
 40
9.0
 40
9.0
 40
9.0
 10
309.098535749247
 20
-230.7945963721279
 30
0.0
 10
309.098535749247
 20
-229.1404078932443
 30
0.0
 10
309.0913431396533
 20
-227.4861585725383
 30
0.0
 10
309.1051863135175
 20
-225.8320851400092
 30
0.0
 10
309.107668659862
 20
-225.5355277180228
 30
0.0
 10
309.0350345863565
 20
-225.4442373294116
 30
0.0
 10
308.7266838068043
 20
-225.445326951136
 30
0.0
 10
305.4545685750412
 20
-225.456899065711
 30
0.0
 10
302.1823814393063
 20
-225.4577950998193
 30
0.0
 10
298.9102750572654
 20
-225.4454276166967
 30
0.0
 10
298.5787192067427
 20
-225.4441742751605
 30
0.0
 10
298.4890693349019
 20
-225.5301216455689
 30
0.0
 10
298.490358075317
 20
-225.8634573959419
 30
0.0
 10
298.5031060963815
 20
-229.159709131662
 30
0.0
 10
298.5022808600286
 20
-232.4560416210737
 30
0.0
 10
298.4917552247953
 20
-235.7523077375882
 30
0.0
 10
298.4908083047997
 20
-236.0489813121445
 30
0.0
 10
298.5606336985522
 20
-236.142292755464
 30
0.0
 10
298.8681194180149
 20
-236.1412551258418
 30
0.0
 10
302.1523111983665
 20
-236.1301819142113
 30
0.0
 10
305.4365638205437
 20
-236.1296885423436
 30
0.0
 10
308.7207567071118
 20
-236.1400559888378
 30
0.0
 10
309.023085252485
 20
-236.1410095461236
 30
0.0
 10
309.1087815120997
 20
-236.0590080444371
 30
0.0
 10
309.1062681917364
 20
-235.7571020731751
 30
0.0
 10
309.0925024529209
 20
-234.10302974686
 30
0.0
 10
309.0997061246629
 20
-232.4487837447982
 30
0.0
 10
309.098535749247
 20
-230.7945963721279
 30
0.0
  0
SPLINE
  5
B8
330
82
100
AcDbEntity
  8
Layer 1
100
AcDbSpline
210
0.0
220
0.0
230
1.0
 70
     9
 71
     3
 72
    32
 73
    28
 74
     0
 42
0.0000000001
 43
0.0000000001
 40
0.0
 40
0.0
 40
0.0
 40
0.0
 40
1.0
 40
1.0
 40
1.0
 40
2.0
 40
2.0
 40
2.0
 40
3.0
 40
3.0
 40
3.0
 40
4.0
 40
4.0
 40
4.0
 40
5.0
 40
5.0
 40
5.0
 40
6.0
 40
6.0
 40
6.0
 40
7.0
 40
7.0
 40
7.0
 40
8.0
 40
8.0
 40
8.0
 40
9.0
 40
9.0
 40
9.0
 40
9.0
 10
315.2417323199935
 20
-231.0834368386353
 30
0.0
 10
315.241311958315
 20
-233.8258388299719
 30
0.0
 10
315.2417898431723
 20
-236.5682408213104
 30
0.0
 10
315.2411482385006
 20
-239.310642812647
 30
0.0
 10
315.2406991152326
 20
-241.2304545187025
 30
0.0
 10
313.8525144014629
 20
-242.6313452173683
 30
0.0
 10
311.9387802403333
 20
-242.6322655882066
 30
0.0
 10
306.47813820456
 20
-242.6348917424924
 30
0.0
 10
301.0174950625726
 20
-242.6342855367015
 30
0.0
 10
295.5568519205852
 20
-242.6323894842787
 30
0.0
 10
293.6659196150762
 20
-242.6317323926004
 30
0.0
 10
292.2488870278848
 20
-241.2882166384437
 30
0.0
 10
292.2417071397621
 20
-239.3989541644005
 30
0.0
 10
292.2207266670536
 20
-233.8779946523536
 30
0.0
 10
292.2199694629206
 20
-228.3568393402651
 30
0.0
 10
292.2431468785169
 20
-222.8358942090157
 30
0.0
 10
292.2510966922437
 20
-220.9422179373283
 30
0.0
 10
293.6687305072599
 20
-219.6057177983743
 30
0.0
 10
295.5594880308067
 20
-219.6055579503132
 30
0.0
 10
300.9476442258767
 20
-219.6051021897539
 30
0.0
 10
306.3358015271619
 20
-219.6053604909432
 30
0.0
 10
311.72395772223
 20
-219.6055944554069
 30
0.0
 10
313.9280600327134
 20
-219.605690142999
 30
0.0
 10
315.2417500194326
 20
-220.9141919816128
 30
0.0
 10
315.2420641844781
 20
-223.1099694715005
 30
0.0
 10
315.2424447224213
 20
-225.7677919272121
 30
0.0
 10
315.2421526816764
 20
-228.4256138298164
 30
0.0
 10
315.2417323199935
 20
-231.0834368386353
 30
0.0
  0
HATCH
  5
B9
330
82
100
AcDbEntity
  8
Layer 1
 62
    18
420
        0
440
 33554687
100
AcDbHatch
 10
0.0
 20
0.0
 30
0.0
210
0.0
220
0.0
230
1.0
  2
SOLID
 70
     1
 71
     1
 91
        3
 92
        1
 93
        1
 72
     4
 94
        3
 73
     0
 74
     0
 95
       17
 96
       13
 40
0.0
 40
0.0
 40
0.0
 40
0.0
 40
1.0
 40
1.0
 40
1.0
 40
2.0
 40
2.0
 40
2.0
 40
3.0
 40
3.0
 40
3.0
 40
4.0
 40
4.0
 40
4.0
 40
4.0
 10
297.018594397341
 20
-222.6802044109764
 10
296.4649670021642
 20
-222.6841209650002
 10
296.0332920615303
 20
-223.1129291495943
 10
296.0298163341635
 20
-223.6624159822223
 10
296.0262731276847
 20
-224.2224262376528
 10
296.4800568802733
 20
-224.6817963757303
 10
297.0320647767675
 20
-224.6769987215006
 10
297.600280934684
 20
-224.6720605779717
 10
298.0181945613599
 20
-224.2343545534404
 10
298.0128183567108
 20
-223.6497940696626
 10
298.0076921566426
 20
-223.0924420487515
 10
297.5809022612207
 20
-222.6762264620216
 10
297.018594397341
 20
-222.6802044109764
 97
        0
 97
        1
330
B6
 92
        1
 93
        1
 72
     4
 94
        3
 73
     0
 74
     0
 95
       32
 96
       28
 40
0.0
 40
0.0
 40
0.0
 40
0.0
 40
1.0
 40
1.0
 40
1.0
 40
2.0
 40
2.0
 40
2.0
 40
3.0
 40
3.0
 40
3.0
 40
4.0
 40
4.0
 40
4.0
 40
5.0
 40
5.0
 40
5.0
 40
6.0
 40
6.0
 40
6.0
 40
7.0
 40
7.0
 40
7.0
 40
8.0
 40
8.0
 40
8.0
 40
9.0
 40
9.0
 40
9.0
 40
9.0
 10
309.098535749247
 20
-230.7945963721279
 10
309.098535749247
 20
-229.1404078932443
 10
309.0913431396533
 20
-227.4861585725383
 10
309.1051863135175
 20
-225.8320851400092
 10
309.107668659862
 20
-225.5355277180228
 10
309.0350345863565
 20
-225.4442373294116
 10
308.7266838068043
 20
-225.445326951136
 10
305.4545685750412
 20
-225.456899065711
 10
302.1823814393063
 20
-225.4577950998193
 10
298.9102750572654
 20
-225.4454276166967
 10
298.5787192067427
 20
-225.4441742751605
 10
298.4890693349019
 20
-225.5301216455689
 10
298.490358075317
 20
-225.8634573959419
 10
298.5031060963815
 20
-229.159709131662
 10
298.5022808600286
 20
-232.4560416210737
 10
298.4917552247953
 20
-235.7523077375882
 10
298.4908083047997
 20
-236.0489813121445
 10
298.5606336985522
 20
-236.142292755464
 10
298.8681194180149
 20
-236.1412551258418
 10
302.1523111983665
 20
-236.1301819142113
 10
305.4365638205437
 20
-236.1296885423436
 10
308.7207567071118
 20
-236.1400559888378
 10
309.023085252485
 20
-236.1410095461236
 10
309.1087815120997
 20
-236.0590080444371
 10
309.1062681917364
 20
-235.7571020731751
 10
309.0925024529209
 20
-234.10302974686
 10
309.0997061246629
 20
-232.4487837447982
 10
309.098535749247
 20
-230.7945963721279
 97
        0
 97
        1
330
B7
 92
        1
 93
        1
 72
     4
 94
        3
 73
     0
 74
     0
 95
       32
 96
       28
 40
0.0
 40
0.0
 40
0.0
 40
0.0
 40
1.0
 40
1.0
 40
1.0
 40
2.0
 40
2.0
 40
2.0
 40
3.0
 40
3.0
 40
3.0
 40
4.0
 40
4.0
 40
4.0
 40
5.0
 40
5.0
 40
5.0
 40
6.0
 40
6.0
 40
6.0
 40
7.0
 40
7.0
 40
7.0
 40
8.0
 40
8.0
 40
8.0
 40
9.0
 40
9.0
 40
9.0
 40
9.0
 10
315.2417323199935
 20
-231.0834368386353
 10
315.241311958315
 20
-233.8258388299719
 10
315.2417898431723
 20
-236.5682408213104
 10
315.2411482385006
 20
-239.310642812647
 10
315.2406991152326
 20
-241.2304545187025
 10
313.8525144014629
 20
-242.6313452173683
 10
311.9387802403333
 20
-242.6322655882066
 10
306.47813820456
 20
-242.6348917424924
 10
301.0174950625726
 20
-242.6342855367015
 10
295.5568519205852
 20
-242.6323894842787
 10
293.6659196150762
 20
-242.6317323926004
 10
292.2488870278848
 20
-241.2882166384437
 10
292.2417071397621
 20
-239.3989541644005
 10
292.2207266670536
 20
-233.8779946523536
 10
292.2199694629206
 20
-228.3568393402651
 10
292.2431468785169
 20
-222.8358942090157
 10
292.2510966922437
 20
-220.9422179373283
 10
293.6687305072599
 20
-219.6057177983743
 10
295.5594880308067
 20
-219.6055579503132
 10
300.9476442258767
 20
-219.6051021897539
 10
306.3358015271619
 20
-219.6053604909432
 10
311.72395772223
 20
-219.6055944554069
 10
313.9280600327134
 20
-219.605690142999
 10
315.2417500194326
 20
-220.9141919816128
 10
315.2420641844781
 20
-223.1099694715005
 10
315.2424447224213
 20
-225.7677919272121
 10
315.2421526816764
 20
-228.4256138298164
 10
315.2417323199935
 20
-231.0834368386353
 97
        0
 97
        1
330
B8
 75
     2
 76
     1
 98
        1
 10
0.0
 20
0.0
450
        0
451
        0
460
0.0
461
0.0
452
        0
462
0.0
453
        0
470

  0
ENDBLK
  5
85
330
82
100
AcDbEntity
  8
0
100
AcDbBlockEnd
  0
BLOCK
  5
BC
330
BA
100
AcDbEntity
  8
0
100
AcDbBlockBegin
  2
Block_2
 70
     0
 10
0.0
 20
0.0
 30
0.0
  3
Block_2
  1

  0
INSERT
  5
BF
330
BA
100
AcDbEntity
  8
Layer 1
100
AcDbBlockReference
  2
Block_3
 10
0.0
 20
0.0
 30
0.0
  0
ENDBLK
  5
BD
330
BA
100
AcDbEntity
  8
0
100
AcDbBlockEnd
  0
BLOCK
  5
C0
330
BE
100
AcDbEntity
  8
0
100
AcDbBlockBegin
  2
Block_3
 70
     0
 10
0.0
 20
0.0
 30
0.0
  3
Block_3
  1

  0
SPLINE
  5
C2
330
BE
100
AcDbEntity
  8
Layer 1
100
AcDbSpline
210
0.0
220
0.0
230
1.0
 70
     9
 71
     3
 72
    50
 73
    46
 74
     0
 42
0.0000000001
 43
0.0000000001
 40
0.0
 40
0.0
 40
0.0
 40
0.0
 40
1.0
 40
1.0
 40
1.0
 40
2.0
 40
2.0
 40
2.0
 40
3.0
 40
3.0
 40
3.0
 40
4.0
 40
4.0
 40
4.0
 40
5.0
 40
5.0
 40
5.0
 40
6.0
 40
6.0
 40
6.0
 40
7.0
 40
7.0
 40
7.0
 40
8.0
 40
8.0
 40
8.0
 40
9.0
 40
9.0
 40
9.0
 40
10.0
 40
10.0
 40
10.0
 40
11.0
 40
11.0
 40
11.0
 40
12.0
 40
12.0
 40
12.0
 40
13.0
 40
13.0
 40
13.0
 40
14.0
 40
14.0
 40
14.0
 40
15.0
 40
15.0
 40
15.0
 40
15.0
 10
363.5885647126017
 20
-172.1877327236041
 30
0.0
 10
363.6311961555074
 20
-179.2276457304688
 30
0.0
 10
361.385973123704
 20
-185.4638125922399
 30
0.0
 10
356.9592465308688
 20
-190.9198967093877
 30
0.0
 10
354.3484763122012
 20
-194.1377554068836
 30
0.0
 10
351.1835531107063
 20
-196.6967054146117
 30
0.0
 10
347.5628459475925
 20
-198.7025733741205
 30
0.0
 10
347.2905024228328
 20
-198.8534484068532
 30
0.0
 10
347.1561722930295
 20
-198.8465195271501
 30
0.0
 10
346.9747560767091
 20
-198.5643488689037
 30
0.0
 10
346.0429376857954
 20
-197.1150270397466
 30
0.0
 10
345.0856597981874
 20
-195.6820727764801
 30
0.0
 10
344.1370779495206
 20
-194.2435277422826
 30
0.0
 10
343.9071017661129
 20
-193.8947649107271
 30
0.0
 10
343.9089826063162
 20
-193.8987038126569
 30
0.0
 10
344.2808070950523
 20
-193.6763636304532
 30
0.0
 10
349.2796338468904
 20
-190.6872522565153
 30
0.0
 10
352.900512015848
 20
-186.5255522681669
 30
0.0
 10
354.9774397029897
 20
-181.0621981802403
 30
0.0
 10
355.7402517176325
 20
-179.0556243031089
 30
0.0
 10
356.2270128662877
 20
-176.9780411870697
 30
0.0
 10
356.3555976702378
 20
-174.8318994611577
 30
0.0
 10
356.8979951744013
 20
-165.7788712308562
 30
0.0
 10
353.3122848311125
 20
-158.6899326766661
 30
0.0
 10
346.0912179581476
 20
-153.3421147443118
 30
0.0
 10
345.805264100681
 20
-153.1303428369202
 30
0.0
 10
345.5052785686101
 20
-152.9367696959369
 30
0.0
 10
345.2051165788903
 20
-152.7452441067931
 30
0.0
 10
345.0528394532339
 20
-152.648077962849
 30
0.0
 10
345.045041615252
 20
-152.5611492240352
 30
0.0
 10
345.1576607397322
 20
-152.4241621637822
 30
0.0
 10
346.4478647983144
 20
-150.8548022895793
 30
0.0
 10
347.7367557317497
 20
-149.2843472673448
 30
0.0
 10
349.0190850230344
 20
-147.7085601719381
 30
0.0
 10
349.1644791330007
 20
-147.529890627895
 30
0.0
 10
349.2780217983614
 20
-147.5803756857433
 30
0.0
 10
349.4328568154064
 20
-147.6790744997344
 30
0.0
 10
352.2973713471003
 20
-149.5050403255286
 30
0.0
 10
354.8303328440681
 20
-151.7074808753991
 30
0.0
 10
356.9815291978559
 20
-154.3399971491838
 30
0.0
 10
359.9116375982366
 20
-157.9257104402435
 30
0.0
 10
361.9171273003258
 20
-161.9674845918979
 30
0.0
 10
362.9266666395076
 20
-166.4924825863217
 30
0.0
 10
363.3446459977172
 20
-168.3659648195494
 30
0.0
 10
363.5641169073056
 20
-170.2650155480374
 30
0.0
 10
363.5885647126017
 20
-172.1877327236041
 30
0.0
  0
HATCH
  5
C3
330
BE
100
AcDbEntity
  8
Layer 1
 62
    18
420
        0
440
 33554687
100
AcDbHatch
 10
0.0
 20
0.0
 30
0.0
210
0.0
220
0.0
230
1.0
  2
SOLID
 70
     1
 71
     1
 91
        1
 92
        1
 93
        1
 72
     4
 94
        3
 73
     0
 74
     0
 95
       50
 96
       46
 40
0.0
 40
0.0
 40
0.0
 40
0.0
 40
1.0
 40
1.0
 40
1.0
 40
2.0
 40
2.0
 40
2.0
 40
3.0
 40
3.0
 40
3.0
 40
4.0
 40
4.0
 40
4.0
 40
5.0
 40
5.0
 40
5.0
 40
6.0
 40
6.0
 40
6.0
 40
7.0
 40
7.0
 40
7.0
 40
8.0
 40
8.0
 40
8.0
 40
9.0
 40
9.0
 40
9.0
 40
10.0
 40
10.0
 40
10.0
 40
11.0
 40
11.0
 40
11.0
 40
12.0
 40
12.0
 40
12.0
 40
13.0
 40
13.0
 40
13.0
 40
14.0
 40
14.0
 40
14.0
 40
15.0
 40
15.0
 40
15.0
 40
15.0
 10
363.5885647126017
 20
-172.1877327236041
 10
363.6311961555074
 20
-179.2276457304688
 10
361.385973123704
 20
-185.4638125922399
 10
356.9592465308688
 20
-190.9198967093877
 10
354.3484763122012
 20
-194.1377554068836
 10
351.1835531107063
 20
-196.6967054146117
 10
347.5628459475925
 20
-198.7025733741205
 10
347.2905024228328
 20
-198.8534484068532
 10
347.1561722930295
 20
-198.8465195271501
 10
346.9747560767091
 20
-198.5643488689037
 10
346.0429376857954
 20
-197.1150270397466
 10
345.0856597981874
 20
-195.6820727764801
 10
344.1370779495206
 20
-194.2435277422826
 10
343.9071017661129
 20
-193.8947649107271
 10
343.9089826063162
 20
-193.8987038126569
 10
344.2808070950523
 20
-193.6763636304532
 10
349.2796338468904
 20
-190.6872522565153
 10
352.900512015848
 20
-186.5255522681669
 10
354.9774397029897
 20
-181.0621981802403
 10
355.7402517176325
 20
-179.0556243031089
 10
356.2270128662877
 20
-176.9780411870697
 10
356.3555976702378
 20
-174.8318994611577
 10
356.8979951744013
 20
-165.7788712308562
 10
353.3122848311125
 20
-158.6899326766661
 10
346.0912179581476
 20
-153.3421147443118
 10
345.805264100681
 20
-153.1303428369202
 10
345.5052785686101
 20
-152.9367696959369
 10
345.2051165788903
 20
-152.7452441067931
 10
345.0528394532339
 20
-152.648077962849
 10
345.045041615252
 20
-152.5611492240352
 10
345.1576607397322
 20
-152.4241621637822
 10
346.4478647983144
 20
-150.8548022895793
 10
347.7367557317497
 20
-149.2843472673448
 10
349.0190850230344
 20
-147.7085601719381
 10
349.1644791330007
 20
-147.529890627895
 10
349.2780217983614
 20
-147.5803756857433
 10
349.4328568154064
 20
-147.6790744997344
 10
352.2973713471003
 20
-149.5050403255286
 10
354.8303328440681
 20
-151.7074808753991
 10
356.9815291978559
 20
-154.3399971491838
 10
359.9116375982366
 20
-157.9257104402435
 10
361.9171273003258
 20
-161.9674845918979
 10
362.9266666395076
 20
-166.4924825863217
 10
363.3446459977172
 20
-168.3659648195494
 10
363.5641169073056
 20
-170.2650155480374
 10
363.5885647126017
 20
-172.1877327236041
 97
        0
 97
        1
330
C2
 75
     2
 76
     1
 98
        1
 10
0.0
 20
0.0
450
        0
451
        0
460
0.0
461
0.0
452
        0
462
0.0
453
        0
470

  0
SPLINE
  5
C4
330
BE
100
AcDbEntity
  8
Layer 1
100
AcDbSpline
210
0.0
220
0.0
230
1.0
 70
     9
 71
     3
 72
    41
 73
    37
 74
     0
 42
0.0000000001
 43
0.0000000001
 40
0.0
 40
0.0
 40
0.0
 40
0.0
 40
1.0
 40
1.0
 40
1.0
 40
2.0
 40
2.0
 40
2.0
 40
3.0
 40
3.0
 40
3.0
 40
4.0
 40
4.0
 40
4.0
 40
5.0
 40
5.0
 40
5.0
 40
6.0
 40
6.0
 40
6.0
 40
7.0
 40
7.0
 40
7.0
 40
8.0
 40
8.0
 40
8.0
 40
9.0
 40
9.0
 40
9.0
 40
10.0
 40
10.0
 40
10.0
 40
11.0
 40
11.0
 40
11.0
 40
12.0
 40
12.0
 40
12.0
 40
12.0
 10
346.3480399121014
 20
-172.8167673683264
 30
0.0
 10
346.1200216681165
 20
-167.5353041541838
 30
0.0
 10
343.768530336313
 20
-163.4406709964515
 30
0.0
 10
339.417028477121
 20
-160.4658025430323
 30
0.0
 10
339.0561307732677
 20
-160.2190802275104
 30
0.0
 10
339.0536764145004
 20
-160.2252746734298
 30
0.0
 10
339.3383260182734
 20
-159.878338336947
 30
0.0
 10
340.1626133974941
 20
-158.8736782061842
 30
0.0
 10
340.9892222019164
 20
-157.870883299785
 30
0.0
 10
341.8063767933331
 20
-156.8604502187645
 30
0.0
 10
341.9463099510484
 20
-156.6874202132257
 30
0.0
 10
342.0528198598578
 20
-156.6387460200244
 30
0.0
 10
342.2538454381629
 20
-156.779094834653
 30
0.0
 10
346.6689239791441
 20
-159.8615373524726
 30
0.0
 10
349.5988428275272
 20
-163.9908887101238
 30
0.0
 10
350.531016593427
 20
-169.3045541416389
 30
0.0
 10
351.8740774935121
 20
-176.9604052480804
 30
0.0
 10
349.3554596112625
 20
-183.2778141236208
 30
0.0
 10
343.4040417977088
 20
-188.241027128305
 30
0.0
 10
342.8736599685602
 20
-188.6833395705836
 30
0.0
 10
342.2753183847506
 20
-189.0434842271215
 30
0.0
 10
341.7167634449033
 20
-189.4530069176333
 30
0.0
 10
341.4911979783403
 20
-189.618385512866
 30
0.0
 10
341.3583420108228
 20
-189.6103051875783
 30
0.0
 10
341.1944123768666
 20
-189.3536543300245
 30
0.0
 10
340.541733404964
 20
-188.3317937062089
 30
0.0
 10
339.8761170141065
 20
-187.317688007001
 30
0.0
 10
339.1905295963269
 20
-186.3176888533747
 30
0.0
 10
338.9963176556316
 20
-186.0344109031865
 30
0.0
 10
339.0552892763317
 20
-185.9186120316819
 30
0.0
 10
339.3213976761722
 20
-185.7426782078743
 30
0.0
 10
342.5620639843527
 20
-183.6002240959754
 30
0.0
 10
344.772790978805
 20
-180.6883384172887
 30
0.0
 10
345.8303146530866
 20
-176.9333229512494
 30
0.0
 10
346.2078495298704
 20
-175.592785222297
 30
0.0
 10
346.3832145692584
 20
-174.2220476952875
 30
0.0
 10
346.3480399121014
 20
-172.8167673683264
 30
0.0
  0
HATCH
  5
C5
330
BE
100
AcDbEntity
  8
Layer 1
 62
    18
420
        0
440
 33554687
100
AcDbHatch
 10
0.0
 20
0.0
 30
0.0
210
0.0
220
0.0
230
1.0
  2
SOLID
 70
     1
 71
     1
 91
        1
 92
        1
 93
        1
 72
     4
 94
        3
 73
     0
 74
     0
 95
       41
 96
       37
 40
0.0
 40
0.0
 40
0.0
 40
0.0
 40
1.0
 40
1.0
 40
1.0
 40
2.0
 40
2.0
 40
2.0
 40
3.0
 40
3.0
 40
3.0
 40
4.0
 40
4.0
 40
4.0
 40
5.0
 40
5.0
 40
5.0
 40
6.0
 40
6.0
 40
6.0
 40
7.0
 40
7.0
 40
7.0
 40
8.0
 40
8.0
 40
8.0
 40
9.0
 40
9.0
 40
9.0
 40
10.0
 40
10.0
 40
10.0
 40
11.0
 40
11.0
 40
11.0
 40
12.0
 40
12.0
 40
12.0
 40
12.0
 10
346.3480399121014
 20
-172.8167673683264
 10
346.1200216681165
 20
-167.5353041541838
 10
343.768530336313
 20
-163.4406709964515
 10
339.417028477121
 20
-160.4658025430323
 10
339.0561307732677
 20
-160.2190802275104
 10
339.0536764145004
 20
-160.2252746734298
 10
339.3383260182734
 20
-159.878338336947
 10
340.1626133974941
 20
-158.8736782061842
 10
340.9892222019164
 20
-157.870883299785
 10
341.8063767933331
 20
-156.8604502187645
 10
341.9463099510484
 20
-156.6874202132257
 10
342.0528198598578
 20
-156.6387460200244
 10
342.2538454381629
 20
-156.779094834653
 10
346.6689239791441
 20
-159.8615373524726
 10
349.5988428275272
 20
-163.9908887101238
 10
350.531016593427
 20
-169.3045541416389
 10
351.8740774935121
 20
-176.9604052480804
 10
349.3554596112625
 20
-183.2778141236208
 10
343.4040417977088
 20
-188.241027128305
 10
342.8736599685602
 20
-188.6833395705836
 10
342.2753183847506
 20
-189.0434842271215
 10
341.7167634449033
 20
-189.4530069176333
 10
341.4911979783403
 20
-189.618385512866
 10
341.3583420108228
 20
-189.6103051875783
 10
341.1944123768666
 20
-189.3536543300245
 10
340.541733404964
 20
-188.3317937062089
 10
339.8761170141065
 20
-187.317688007001
 10
339.1905295963269
 20
-186.3176888533747
 10
338.9963176556316
 20
-186.0344109031865
 10
339.0552892763317
 20
-185.9186120316819
 10
339.3213976761722
 20
-185.7426782078743
 10
342.5620639843527
 20
-183.6002240959754
 10
344.772790978805
 20
-180.6883384172887
 10
345.8303146530866
 20
-176.9333229512494
 10
346.2078495298704
 20
-175.592785222297
 10
346.3832145692584
 20
-174.2220476952875
 10
346.3480399121014
 20
-172.8167673683264
 97
        0
 97
        1
330
C4
 75
     2
 76
     1
 98
        1
 10
0.0
 20
0.0
450
        0
451
        0
460
0.0
461
0.0
452
        0
462
0.0
453
        0
470

  0
SPLINE
  5
C6
330
BE
100
AcDbEntity
  8
Layer 1
100
AcDbSpline
210
0.0
220
0.0
230
1.0
 70
     9
 71
     3
 72
    38
 73
    34
 74
     0
 42
0.0000000001
 43
0.0000000001
 40
0.0
 40
0.0
 40
0.0
 40
0.0
 40
1.0
 40
1.0
 40
1.0
 40
2.0
 40
2.0
 40
2.0
 40
3.0
 40
3.0
 40
3.0
 40
4.0
 40
4.0
 40
4.0
 40
5.0
 40
5.0
 40
5.0
 40
6.0
 40
6.0
 40
6.0
 40
7.0
 40
7.0
 40
7.0
 40
8.0
 40
8.0
 40
8.0
 40
9.0
 40
9.0
 40
9.0
 40
10.0
 40
10.0
 40
10.0
 40
11.0
 40
11.0
 40
11.0
 40
11.0
 10
342.262102060573
 20
-172.6829043985019
 30
0.0
 10
342.1947832041362
 20
-176.6525771823832
 30
0.0
 10
340.6302848984144
 20
-179.7541696440952
 30
0.0
 10
337.5902214856708
 20
-182.123972786813
 30
0.0
 10
337.3701757667697
 20
-182.2955054932228
 30
0.0
 10
337.2666313248338
 20
-182.2569356067738
 30
0.0
 10
337.1249519584462
 20
-182.0362134224787
 30
0.0
 10
336.5792617001207
 20
-181.1861119936879
 30
0.0
 10
336.0234846948206
 20
-180.3422189026199
 30
0.0
 10
335.4553554161412
 20
-179.5069710997125
 30
0.0
 10
335.307387077178
 20
-179.2894322924702
 30
0.0
 10
335.3158519273034
 20
-179.1677653375104
 30
0.0
 10
335.5191730055913
 20
-178.9850986002449
 30
0.0
 10
337.1108803436479
 20
-177.555059546353
 30
0.0
 10
338.0729608409403
 20
-175.7762150825081
 30
0.0
 10
338.2302975462908
 20
-173.6389193941386
 30
0.0
 10
338.4518325629135
 20
-170.6296014299695
 30
0.0
 10
337.2682204192268
 20
-168.228996439098
 30
0.0
 10
334.8785002606741
 20
-166.4101010214007
 30
0.0
 10
334.5379121301054
 20
-166.1508664600039
 30
0.0
 10
334.5349623311261
 20
-166.1590084562367
 30
0.0
 10
334.8007636970412
 20
-165.8358413885404
 30
0.0
 10
335.4365324576556
 20
-165.0628767047305
 30
0.0
 10
336.0746040859518
 20
-164.2917175716758
 30
0.0
 10
336.7013475581327
 20
-163.5114819557846
 30
0.0
 10
336.8383387509808
 20
-163.340938151343
 30
0.0
 10
336.9472007881289
 20
-163.3132349048056
 30
0.0
 10
337.1296673537368
 20
-163.4417461652359
 30
0.0
 10
339.874842365098
 20
-165.3751701298449
 30
0.0
 10
341.5948906105438
 20
-167.9580733319691
 30
0.0
 10
342.1111212402274
 20
-171.3012638502297
 30
0.0
 10
342.1872064790443
 20
-171.7939958379797
 30
0.0
 10
342.2204482129838
 20
-172.2933435841782
 30
0.0
 10
342.262102060573
 20
-172.6829043985019
 30
0.0
  0
HATCH
  5
C7
330
BE
100
AcDbEntity
  8
Layer 1
 62
    18
420
        0
440
 33554687
100
AcDbHatch
 10
0.0
 20
0.0
 30
0.0
210
0.0
220
0.0
230
1.0
  2
SOLID
 70
     1
 71
     1
 91
        1
 92
        1
 93
        1
 72
     4
 94
        3
 73
     0
 74
     0
 95
       38
 96
       34
 40
0.0
 40
0.0
 40
0.0
 40
0.0
 40
1.0
 40
1.0
 40
1.0
 40
2.0
 40
2.0
 40
2.0
 40
3.0
 40
3.0
 40
3.0
 40
4.0
 40
4.0
 40
4.0
 40
5.0
 40
5.0
 40
5.0
 40
6.0
 40
6.0
 40
6.0
 40
7.0
 40
7.0
 40
7.0
 40
8.0
 40
8.0
 40
8.0
 40
9.0
 40
9.0
 40
9.0
 40
10.0
 40
10.0
 40
10.0
 40
11.0
 40
11.0
 40
11.0
 40
11.0
 10
342.262102060573
 20
-172.6829043985019
 10
342.1947832041362
 20
-176.6525771823832
 10
340.6302848984144
 20
-179.7541696440952
 10
337.5902214856708
 20
-182.123972786813
 10
337.3701757667697
 20
-182.2955054932228
 10
337.2666313248338
 20
-182.2569356067738
 10
337.1249519584462
 20
-182.0362134224787
 10
336.5792617001207
 20
-181.1861119936879
 10
336.0234846948206
 20
-180.3422189026199
 10
335.4553554161412
 20
-179.5069710997125
 10
335.307387077178
 20
-179.2894322924702
 10
335.3158519273034
 20
-179.1677653375104
 10
335.5191730055913
 20
-178.9850986002449
 10
337.1108803436479
 20
-177.555059546353
 10
338.0729608409403
 20
-175.7762150825081
 10
338.2302975462908
 20
-173.6389193941386
 10
338.4518325629135
 20
-170.6296014299695
 10
337.2682204192268
 20
-168.228996439098
 10
334.8785002606741
 20
-166.4101010214007
 10
334.5379121301054
 20
-166.1508664600039
 10
334.5349623311261
 20
-166.1590084562367
 10
334.8007636970412
 20
-165.8358413885404
 10
335.4365324576556
 20
-165.0628767047305
 10
336.0746040859518
 20
-164.2917175716758
 10
336.7013475581327
 20
-163.5114819557846
 10
336.8383387509808
 20
-163.340938151343
 10
336.9472007881289
 20
-163.3132349048056
 10
337.1296673537368
 20
-163.4417461652359
 10
339.874842365098
 20
-165.3751701298449
 10
341.5948906105438
 20
-167.9580733319691
 10
342.1111212402274
 20
-171.3012638502297
 10
342.1872064790443
 20
-171.7939958379797
 10
342.2204482129838
 20
-172.2933435841782
 10
342.262102060573
 20
-172.6829043985019
 97
        0
 97
        1
330
C6
 75
     2
 76
     1
 98
        1
 10
0.0
 20
0.0
450
        0
451
        0
460
0.0
461
0.0
452
        0
462
0.0
453
        0
470

  0
SPLINE
  5
C8
330
BE
100
AcDbEntity
  8
Layer 1
100
AcDbSpline
210
0.0
220
0.0
230
1.0
 70
     9
 71
     3
 72
    17
 73
    13
 74
     0
 42
0.0000000001
 43
0.0000000001
 40
0.0
 40
0.0
 40
0.0
 40
0.0
 40
1.0
 40
1.0
 40
1.0
 40
2.0
 40
2.0
 40
2.0
 40
3.0
 40
3.0
 40
3.0
 40
4.0
 40
4.0
 40
4.0
 40
4.0
 10
325.3310602004924
 20
-172.88631600817
 30
0.0
 10
325.3020655625716
 20
-170.1613269872422
 30
0.0
 10
327.3799023262057
 20
-167.9793608470761
 30
0.0
 10
330.0328197624891
 20
-167.9489333543858
 30
0.0
 10
332.6312393532759
 20
-167.9191310828147
 30
0.0
 10
334.7805683118111
 20
-170.0900227780996
 30
0.0
 10
334.8030511368695
 20
-172.767025967635
 30
0.0
 10
334.8257496104518
 20
-175.4696253773396
 30
0.0
 10
332.7517883317032
 20
-177.6561062547704
 30
0.0
 10
330.1417348339581
 20
-177.6812403285607
 30
0.0
 10
327.4838541809519
 20
-177.7068348196567
 30
0.0
 10
325.3598277203674
 20
-175.5897598384709
 30
0.0
 10
325.3310602004924
 20
-172.88631600817
 30
0.0
  0
HATCH
  5
C9
330
BE
100
AcDbEntity
  8
Layer 1
 62
    18
420
        0
440
 33554687
100
AcDbHatch
 10
0.0
 20
0.0
 30
0.0
210
0.0
220
0.0
230
1.0
  2
SOLID
 70
     1
 71
     1
 91
        1
 92
        1
 93
        1
 72
     4
 94
        3
 73
     0
 74
     0
 95
       17
 96
       13
 40
0.0
 40
0.0
 40
0.0
 40
0.0
 40
1.0
 40
1.0
 40
1.0
 40
2.0
 40
2.0
 40
2.0
 40
3.0
 40
3.0
 40
3.0
 40
4.0
 40
4.0
 40
4.0
 40
4.0
 10
325.3310602004924
 20
-172.88631600817
 10
325.3020655625716
 20
-170.1613269872422
 10
327.3799023262057
 20
-167.9793608470761
 10
330.0328197624891
 20
-167.9489333543858
 10
332.6312393532759
 20
-167.9191310828147
 10
334.7805683118111
 20
-170.0900227780996
 10
334.8030511368695
 20
-172.767025967635
 10
334.8257496104518
 20
-175.4696253773396
 10
332.7517883317032
 20
-177.6561062547704
 10
330.1417348339581
 20
-177.6812403285607
 10
327.4838541809519
 20
-177.7068348196567
 10
325.3598277203674
 20
-175.5897598384709
 10
325.3310602004924
 20
-172.88631600817
 97
        0
 97
        1
330
C8
 75
     2
 76
     1
 98
        1
 10
0.0
 20
0.0
450
        0
451
        0
460
0.0
461
0.0
452
        0
462
0.0
453
        0
470

  0
ENDBLK
  5
C1
330
BE
100
AcDbEntity
  8
0
100
AcDbBlockEnd
  0
ENDSEC
  0
SECTION
  2
ENTITIES
  0
SPLINE
  5
79
330
70
100
AcDbEntity
  8
Layer 1
100
AcDbSpline
210
0.0
220
0.0
230
1.0
 70
     9
 71
     3
 72
   110
 73
   106
 74
     0
 42
0.0000000001
 43
0.0000000001
 40
0.0
 40
0.0
 40
0.0
 40
0.0
 40
1.0
 40
1.0
 40
1.0
 40
2.0
 40
2.0
 40
2.0
 40
3.0
 40
3.0
 40
3.0
 40
4.0
 40
4.0
 40
4.0
 40
5.0
 40
5.0
 40
5.0
 40
6.0
 40
6.0
 40
6.0
 40
7.0
 40
7.0
 40
7.0
 40
8.0
 40
8.0
 40
8.0
 40
9.0
 40
9.0
 40
9.0
 40
10.0
 40
10.0
 40
10.0
 40
11.0
 40
11.0
 40
11.0
 40
12.0
 40
12.0
 40
12.0
 40
13.0
 40
13.0
 40
13.0
 40
14.0
 40
14.0
 40
14.0
 40
15.0
 40
15.0
 40
15.0
 40
16.0
 40
16.0
 40
16.0
 40
17.0
 40
17.0
 40
17.0
 40
18.0
 40
18.0
 40
18.0
 40
19.0
 40
19.0
 40
19.0
 40
20.0
 40
20.0
 40
20.0
 40
21.0
 40
21.0
 40
21.0
 40
22.0
 40
22.0
 40
22.0
 40
23.0
 40
23.0
 40
23.0
 40
24.0
 40
24.0
 40
24.0
 40
25.0
 40
25.0
 40
25.0
 40
26.0
 40
26.0
 40
26.0
 40
27.0
 40
27.0
 40
27.0
 40
28.0
 40
28.0
 40
28.0
 40
29.0
 40
29.0
 40
29.0
 40
30.0
 40
30.0
 40
30.0
 40
31.0
 40
31.0
 40
31.0
 40
32.0
 40
32.0
 40
32.0
 40
33.0
 40
33.0
 40
33.0
 40
34.0
 40
34.0
 40
34.0
 40
35.0
 40
35.0
 40
35.0
 40
35.0
 10
242.2618154693003
 20
-173.4985179791786
 30
0.0
 10
242.2618153798635
 20
-172.9983424452841
 30
0.0
 10
242.2618153798635
 20
-172.4981669113895
 30
0.0
 10
242.2618153798635
 20
-171.997991377493
 30
0.0
 10
243.6757592142661
 20
-168.9390889690704
 30
0.0
 10
244.239959254263
 20
-168.6948664501964
 30
0.0
 10
247.542897434276
 20
-169.7149635987669
 30
0.0
 10
248.8155060099697
 20
-170.1080020003827
 30
0.0
 10
250.1018575640416
 20
-170.462322895843
 30
0.0
 10
251.3569920316719
 20
-170.905032736339
 30
0.0
 10
254.6277121311709
 20
-172.0586854377587
 30
0.0
 10
257.5291534261997
 20
-171.6043137897717
 30
0.0
 10
260.178591303969
 20
-169.2479913983111
 30
0.0
 10
261.1762921344187
 20
-168.3606656070926
 30
0.0
 10
262.4903175850664
 20
-167.8346803104452
 30
0.0
 10
263.6325870496583
 20
-167.1010682847986
 30
0.0
 10
264.0166062490473
 20
-166.8544321228516
 30
0.0
 10
264.4823153414249
 20
-166.5356175388433
 30
0.0
 10
264.6237662737561
 20
-166.1457063791261
 30
0.0
 10
265.1905049320249
 20
-164.5834592033695
 30
0.0
 10
265.5481610433649
 20
-162.942344093601
 30
0.0
 10
266.156444890827
 20
-161.3986905556047
 30
0.0
 10
269.3537625745646
 20
-153.2847943292576
 30
0.0
 10
274.8863362203525
 20
-147.58039314672
 30
0.0
 10
283.4230807713129
 20
-145.1822269612156
 30
0.0
 10
289.9115333957194
 20
-143.3594723308963
 30
0.0
 10
296.4488999757686
 20
-143.6418404274587
 30
0.0
 10
302.9259502831649
 20
-145.3048829598621
 30
0.0
 10
309.7787733351101
 20
-147.0644077736791
 30
0.0
 10
315.2933047604067
 20
-150.797057181417
 30
0.0
 10
319.1214380790177
 20
-156.8206240233153
 30
0.0
 10
321.9961270502817
 20
-161.3439514202762
 30
0.0
 10
323.4277360330778
 20
-166.3402135747006
 30
0.0
 10
323.8035316738538
 20
-171.6712547017542
 30
0.0
 10
324.2050321363712
 20
-177.3670974684694
 30
0.0
 10
323.3109729487746
 20
-182.7847588076493
 30
0.0
 10
320.5324175685868
 20
-187.8301848680994
 30
0.0
 10
317.6615827941717
 20
-193.0431921707
 30
0.0
 10
313.1535920478347
 20
-196.5616274164585
 30
0.0
 10
308.2734995840426
 20
-199.6992107731107
 30
0.0
 10
307.8603525781793
 20
-199.964845072684
 30
0.0
 10
307.4818399194356
 20
-200.2843427272216
 30
0.0
 10
306.9876937231823
 20
-200.6530977806783
 30
0.0
 10
307.2967010934274
 20
-200.7632629379087
 30
0.0
 10
307.3739834642802
 20
-200.8147260059152
 30
0.0
 10
307.4513497879337
 20
-200.8148404870118
 30
0.0
 10
308.7846881992292
 20
-200.8168515382354
 30
0.0
 10
310.1185303273324
 20
-200.8351494331735
 30
0.0
 10
311.4512963331512
 20
-200.8058613531706
 30
0.0
 10
318.9104036294396
 20
-200.6419816664059
 30
0.0
 10
326.2687751946412
 20
-201.4399263430989
 30
0.0
 10
333.4395580384236
 20
-203.4847418604205
 30
0.0
 10
338.6395641047205
 20
-204.9675620528185
 30
0.0
 10
343.7787272853431
 20
-206.6795581322375
 30
0.0
 10
348.8965817182458
 20
-208.4309204440206
 30
0.0
 10
356.5424611041384
 20
-211.04738585856
 30
0.0
 10
363.642280933486
 20
-210.636406361415
 30
0.0
 10
369.9423053084374
 20
-205.0517896100675
 30
0.0
 10
369.9620494812072
 20
-205.4660051061464
 30
0.0
 10
370.0558781862458
 20
-205.8923784944693
 30
0.0
 10
369.990196566303
 20
-206.2925738725027
 30
0.0
 10
369.2499083848248
 20
-210.8027015992735
 30
0.0
 10
368.8087440391062
 20
-215.3925768564591
 30
0.0
 10
367.6677720269142
 20
-219.8006866638903
 30
0.0
 10
363.853765675369
 20
-234.5360596844117
 30
0.0
 10
356.4238510581821
 20
-246.9098098388028
 30
0.0
 10
343.2576475035957
 20
-255.2181455260848
 30
0.0
 10
337.7528317071822
 20
-258.6918759044427
 30
0.0
 10
331.7490309802507
 20
-260.9193116636906
 30
0.0
 10
325.1512947030465
 20
-260.9628068475233
 30
0.0
 10
313.3565136038521
 20
-261.0405547748299
 30
0.0
 10
301.5609006086995
 20
-260.9900686121588
 30
0.0
 10
289.7656425049401
 20
-261.0005932407844
 30
0.0
 10
285.4073128934289
 20
-261.0044779659179
 30
0.0
 10
281.1272959826259
 20
-260.4414599432237
 30
0.0
 10
276.9496480665075
 20
-259.1998132565446
 30
0.0
 10
271.4937557658232
 20
-257.5782725059193
 30
0.0
 10
266.609322560532
 20
-254.9423071449484
 30
0.0
 10
262.8463347087426
 20
-250.5940556857886
 30
0.0
 10
256.5508342450438
 20
-243.3194003289429
 30
0.0
 10
254.9235770717583
 20
-234.8023808705597
 30
0.0
 10
256.7493807152327
 20
-225.5664964595225
 30
0.0
 10
258.085338835569
 20
-218.8085095462487
 30
0.0
 10
261.7828492253581
 20
-213.2063313950075
 30
0.0
 10
266.0662433284638
 20
-207.9608839662701
 30
0.0
 10
267.9900866732321
 20
-205.6049469944923
 30
0.0
 10
269.9796555223733
 20
-203.3006791566979
 30
0.0
 10
271.8452566103175
 20
-200.8998007232718
 30
0.0
 10
273.4486902678415
 20
-198.8363133394388
 30
0.0
 10
273.4259905748193
 20
-198.1467555469653
 30
0.0
 10
272.0597178606625
 20
-195.9569764357343
 30
0.0
 10
271.3981735920165
 20
-194.8966945149822
 30
0.0
 10
270.644710544583
 20
-193.8918634203637
 30
0.0
 10
270.017254929836
 20
-192.8128523925479
 30
0.0
 10
269.5745889737622
 20
-192.0516103547508
 30
0.0
 10
269.0169343903339
 20
-191.8514745053605
 30
0.0
 10
268.1698544278936
 20
-191.9296612768629
 30
0.0
 10
266.5987941158781
 20
-192.0746668471788
 30
0.0
 10
265.0102220124377
 20
-192.2424198109684
 30
0.0
 10
263.4412090039936
 20
-192.1618365685593
 30
0.0
 10
254.745088643333
 20
-191.7151962104833
 30
0.0
 10
248.1446992667636
 20
-187.8875284483294
 30
0.0
 10
244.3640310024421
 20
-179.862094625719
 30
0.0
 10
243.4189826508707
 20
-177.8559927985169
 30
0.0
 10
242.9497401472166
 20
-175.6257484364196
 30
0.0
 10
242.2618154693003
 20
-173.4985179791786
 30
0.0
  0
HATCH
  5
7A
330
70
100
AcDbEntity
  8
Layer 1
 62
    18
420
        0
440
 33554687
100
AcDbHatch
 10
0.0
 20
0.0
 30
0.0
210
0.0
220
0.0
230
1.0
  2
SOLID
 70
     1
 71
     1
 91
        1
 92
        1
 93
        1
 72
     4
 94
        3
 73
     0
 74
     0
 95
      110
 96
      106
 40
0.0
 40
0.0
 40
0.0
 40
0.0
 40
1.0
 40
1.0
 40
1.0
 40
2.0
 40
2.0
 40
2.0
 40
3.0
 40
3.0
 40
3.0
 40
4.0
 40
4.0
 40
4.0
 40
5.0
 40
5.0
 40
5.0
 40
6.0
 40
6.0
 40
6.0
 40
7.0
 40
7.0
 40
7.0
 40
8.0
 40
8.0
 40
8.0
 40
9.0
 40
9.0
 40
9.0
 40
10.0
 40
10.0
 40
10.0
 40
11.0
 40
11.0
 40
11.0
 40
12.0
 40
12.0
 40
12.0
 40
13.0
 40
13.0
 40
13.0
 40
14.0
 40
14.0
 40
14.0
 40
15.0
 40
15.0
 40
15.0
 40
16.0
 40
16.0
 40
16.0
 40
17.0
 40
17.0
 40
17.0
 40
18.0
 40
18.0
 40
18.0
 40
19.0
 40
19.0
 40
19.0
 40
20.0
 40
20.0
 40
20.0
 40
21.0
 40
21.0
 40
21.0
 40
22.0
 40
22.0
 40
22.0
 40
23.0
 40
23.0
 40
23.0
 40
24.0
 40
24.0
 40
24.0
 40
25.0
 40
25.0
 40
25.0
 40
26.0
 40
26.0
 40
26.0
 40
27.0
 40
27.0
 40
27.0
 40
28.0
 40
28.0
 40
28.0
 40
29.0
 40
29.0
 40
29.0
 40
30.0
 40
30.0
 40
30.0
 40
31.0
 40
31.0
 40
31.0
 40
32.0
 40
32.0
 40
32.0
 40
33.0
 40
33.0
 40
33.0
 40
34.0
 40
34.0
 40
34.0
 40
35.0
 40
35.0
 40
35.0
 40
35.0
 10
242.2618154693003
 20
-173.4985179791786
 10
242.2618153798635
 20
-172.9983424452841
 10
242.2618153798635
 20
-172.4981669113895
 10
242.2618153798635
 20
-171.997991377493
 10
243.6757592142661
 20
-168.9390889690704
 10
244.239959254263
 20
-168.6948664501964
 10
247.542897434276
 20
-169.7149635987669
 10
248.8155060099697
 20
-170.1080020003827
 10
250.1018575640416
 20
-170.462322895843
 10
251.3569920316719
 20
-170.905032736339
 10
254.6277121311709
 20
-172.0586854377587
 10
257.5291534261997
 20
-171.6043137897717
 10
260.178591303969
 20
-169.2479913983111
 10
261.1762921344187
 20
-168.3606656070926
 10
262.4903175850664
 20
-167.8346803104452
 10
263.6325870496583
 20
-167.1010682847986
 10
264.0166062490473
 20
-166.8544321228516
 10
264.4823153414249
 20
-166.5356175388433
 10
264.6237662737561
 20
-166.1457063791261
 10
265.1905049320249
 20
-164.5834592033695
 10
265.5481610433649
 20
-162.942344093601
 10
266.156444890827
 20
-161.3986905556047
 10
269.3537625745646
 20
-153.2847943292576
 10
274.8863362203525
 20
-147.58039314672
 10
283.4230807713129
 20
-145.1822269612156
 10
289.9115333957194
 20
-143.3594723308963
 10
296.4488999757686
 20
-143.6418404274587
 10
302.9259502831649
 20
-145.3048829598621
 10
309.7787733351101
 20
-147.0644077736791
 10
315.2933047604067
 20
-150.797057181417
 10
319.1214380790177
 20
-156.8206240233153
 10
321.9961270502817
 20
-161.3439514202762
 10
323.4277360330778
 20
-166.3402135747006
 10
323.8035316738538
 20
-171.6712547017542
 10
324.2050321363712
 20
-177.3670974684694
 10
323.3109729487746
 20
-182.7847588076493
 10
320.5324175685868
 20
-187.8301848680994
 10
317.6615827941717
 20
-193.0431921707
 10
313.1535920478347
 20
-196.5616274164585
 10
308.2734995840426
 20
-199.6992107731107
 10
307.8603525781793
 20
-199.964845072684
 10
307.4818399194356
 20
-200.2843427272216
 10
306.9876937231823
 20
-200.6530977806783
 10
307.2967010934274
 20
-200.7632629379087
 10
307.3739834642802
 20
-200.8147260059152
 10
307.4513497879337
 20
-200.8148404870118
 10
308.7846881992292
 20
-200.8168515382354
 10
310.1185303273324
 20
-200.8351494331735
 10
311.4512963331512
 20
-200.8058613531706
 10
318.9104036294396
 20
-200.6419816664059
 10
326.2687751946412
 20
-201.4399263430989
 10
333.4395580384236
 20
-203.4847418604205
 10
338.6395641047205
 20
-204.9675620528185
 10
343.7787272853431
 20
-206.6795581322375
 10
348.8965817182458
 20
-208.4309204440206
 10
356.5424611041384
 20
-211.04738585856
 10
363.642280933486
 20
-210.636406361415
 10
369.9423053084374
 20
-205.0517896100675
 10
369.9620494812072
 20
-205.4660051061464
 10
370.0558781862458
 20
-205.8923784944693
 10
369.990196566303
 20
-206.2925738725027
 10
369.2499083848248
 20
-210.8027015992735
 10
368.8087440391062
 20
-215.3925768564591
 10
367.6677720269142
 20
-219.8006866638903
 10
363.853765675369
 20
-234.5360596844117
 10
356.4238510581821
 20
-246.9098098388028
 10
343.2576475035957
 20
-255.2181455260848
 10
337.7528317071822
 20
-258.6918759044427
 10
331.7490309802507
 20
-260.9193116636906
 10
325.1512947030465
 20
-260.9628068475233
 10
313.3565136038521
 20
-261.0405547748299
 10
301.5609006086995
 20
-260.9900686121588
 10
289.7656425049401
 20
-261.0005932407844
 10
285.4073128934289
 20
-261.0044779659179
 10
281.1272959826259
 20
-260.4414599432237
 10
276.9496480665075
 20
-259.1998132565446
 10
271.4937557658232
 20
-257.5782725059193
 10
266.609322560532
 20
-254.9423071449484
 10
262.8463347087426
 20
-250.5940556857886
 10
256.5508342450438
 20
-243.3194003289429
 10
254.9235770717583
 20
-234.8023808705597
 10
256.7493807152327
 20
-225.5664964595225
 10
258.085338835569
 20
-218.8085095462487
 10
261.7828492253581
 20
-213.2063313950075
 10
266.0662433284638
 20
-207.9608839662701
 10
267.9900866732321
 20
-205.6049469944923
 10
269.9796555223733
 20
-203.3006791566979
 10
271.8452566103175
 20
-200.8998007232718
 10
273.4486902678415
 20
-198.8363133394388
 10
273.4259905748193
 20
-198.1467555469653
 10
272.0597178606625
 20
-195.9569764357343
 10
271.3981735920165
 20
-194.8966945149822
 10
270.644710544583
 20
-193.8918634203637
 10
270.017254929836
 20
-192.8128523925479
 10
269.5745889737622
 20
-192.0516103547508
 10
269.0169343903339
 20
-191.8514745053605
 10
268.1698544278936
 20
-191.9296612768629
 10
266.5987941158781
 20
-192.0746668471788
 10
265.0102220124377
 20
-192.2424198109684
 10
263.4412090039936
 20
-192.1618365685593
 10
254.745088643333
 20
-191.7151962104833
 10
248.1446992667636
 20
-187.8875284483294
 10
244.3640310024421
 20
-179.862094625719
 10
243.4189826508707
 20
-177.8559927985169
 10
242.9497401472166
 20
-175.6257484364196
 10
242.2618154693003
 20
-173.4985179791786
 97
        0
 97
        1
330
79
 75
     2
 76
     1
 98
        1
 10
0.0
 20
0.0
450
        0
451
        0
460
0.0
461
0.0
452
        0
462
0.0
453
        0
470

  0
SPLINE
  5
7B
330
70
100
AcDbEntity
  8
Layer 1
100
AcDbSpline
210
0.0
220
0.0
230
1.0
 70
     9
 71
     3
 72
    47
 73
    43
 74
     0
 42
0.0000000001
 43
0.0000000001
 40
0.0
 40
0.0
 40
0.0
 40
0.0
 40
1.0
 40
1.0
 40
1.0
 40
2.0
 40
2.0
 40
2.0
 40
3.0
 40
3.0
 40
3.0
 40
4.0
 40
4.0
 40
4.0
 40
5.0
 40
5.0
 40
5.0
 40
6.0
 40
6.0
 40
6.0
 40
7.0
 40
7.0
 40
7.0
 40
8.0
 40
8.0
 40
8.0
 40
9.0
 40
9.0
 40
9.0
 40
10.0
 40
10.0
 40
10.0
 40
11.0
 40
11.0
 40
11.0
 40
12.0
 40
12.0
 40
12.0
 40
13.0
 40
13.0
 40
13.0
 40
14.0
 40
14.0
 40
14.0
 40
14.0
 10
324.6564140311267
 20
-226.8304161443378
 30
0.0
 10
330.413433505315
 20
-223.552988828875
 30
0.0
 10
335.8733377393193
 20
-220.4447083704369
 30
0.0
 10
341.7809977914126
 20
-217.0815237230849
 30
0.0
 10
340.6394478893527
 20
-216.7854677648758
 30
0.0
 10
340.0183169878844
 20
-216.5654842748295
 30
0.0
 10
339.3784928751827
 20
-216.4673360143558
 30
0.0
 10
330.7958788039822
 20
-215.1508087536641
 30
0.0
 10
322.2261541470018
 20
-213.7357148606359
 30
0.0
 10
313.621455381953
 20
-212.5820321743348
 30
0.0
 10
305.9610664359301
 20
-211.5549559372275
 30
0.0
 10
298.2539355602976
 20
-210.9799616613723
 30
0.0
 10
290.516299144259
 20
-211.7255715465672
 30
0.0
 10
286.5755254253043
 20
-212.105319681899
 30
0.0
 10
282.7203265568899
 20
-212.7496746729325
 30
0.0
 10
279.4210459873444
 20
-215.2279405038024
 30
0.0
 10
275.4528066001793
 20
-218.2086976555568
 30
0.0
 10
272.5548114157606
 20
-221.8546660811471
 30
0.0
 10
272.1732073115992
 20
-226.9909641242046
 30
0.0
 10
271.63745542703
 20
-234.2020305830079
 30
0.0
 10
274.996656640094
 20
-239.6652461858585
 30
0.0
 10
280.3790241043789
 20
-243.9731412210422
 30
0.0
 10
286.3105001977323
 20
-248.7205225537336
 30
0.0
 10
293.4181887476877
 20
-250.2414734314946
 30
0.0
 10
300.8058348403555
 20
-250.6752182426886
 30
0.0
 10
308.5700512224623
 20
-251.1310744523149
 30
0.0
 10
316.2230518992882
 20
-250.1997252597531
 30
0.0
 10
323.7971049140255
 20
-248.5481444416206
 30
0.0
 10
325.7460502151504
 20
-248.1231498335827
 30
0.0
 10
327.6637066412924
 20
-247.5546269694289
 30
0.0
 10
330.0874417045531
 20
-246.9241316592905
 30
0.0
 10
326.6662992008496
 20
-244.5351214612659
 30
0.0
 10
323.7039860175234
 20
-242.4665129036921
 30
0.0
 10
320.5112745550343
 20
-240.2370181081537
 30
0.0
 10
323.0945428238348
 20
-238.8329354066839
 30
0.0
 10
325.4296186566995
 20
-237.5660341710478
 30
0.0
 10
327.7624958118668
 20
-236.2951005427001
 30
0.0
 10
330.1190421330536
 20
-235.0112596970776
 30
0.0
 10
332.4734075796043
 20
-233.7234131633285
 30
0.0
 10
335.1858548395193
 20
-232.2423144316054
 30
0.0
 10
331.5208994522349
 20
-230.3586084376711
 30
0.0
 10
328.2591121234961
 20
-228.6821122394353
 30
0.0
 10
324.6564140311267
 20
-226.8304161443378
 30
0.0
  0
SPLINE
  5
7C
330
70
100
AcDbEntity
  8
Layer 1
100
AcDbSpline
210
0.0
220
0.0
230
1.0
 70
     9
 71
     3
 72
    35
 73
    31
 74
     0
 42
0.0000000001
 43
0.0000000001
 40
0.0
 40
0.0
 40
0.0
 40
0.0
 40
1.0
 40
1.0
 40
1.0
 40
2.0
 40
2.0
 40
2.0
 40
3.0
 40
3.0
 40
3.0
 40
4.0
 40
4.0
 40
4.0
 40
5.0
 40
5.0
 40
5.0
 40
6.0
 40
6.0
 40
6.0
 40
7.0
 40
7.0
 40
7.0
 40
8.0
 40
8.0
 40
8.0
 40
9.0
 40
9.0
 40
9.0
 40
10.0
 40
10.0
 40
10.0
 40
10.0
 10
245.4424047521593
 20
-172.366422067855
 30
0.0
 10
245.4977544533298
 20
-173.1118542665063
 30
0.0
 10
245.4741336645048
 20
-173.6815350889019
 30
0.0
 10
245.5900393331162
 20
-174.2212485767952
 30
0.0
 10
247.2705035030724
 20
-182.0463519321601
 30
0.0
 10
253.0373321804478
 20
-187.4997351888553
 30
0.0
 10
261.0919882564315
 20
-188.8042968690288
 30
0.0
 10
264.4577820428777
 20
-189.349436760804
 30
0.0
 10
267.8066936839105
 20
-189.2962335801543
 30
0.0
 10
271.0382393068899
 20
-187.9796170407352
 30
0.0
 10
272.1092347500638
 20
-187.543268533054
 30
0.0
 10
272.5144672962629
 20
-186.9951445007474
 30
0.0
 10
271.6442392565112
 20
-185.9511074473022
 30
0.0
 10
270.9800561986337
 20
-185.1542656051577
 30
0.0
 10
270.4401824372065
 20
-184.2550280560621
 30
0.0
 10
269.8233602081186
 20
-183.4172783028022
 30
0.0
 10
267.1673453914719
 20
-179.809963751326
 30
0.0
 10
264.6209118784698
 20
-176.1687093713604
 30
0.0
 10
264.5179304099189
 20
-171.4165838749901
 30
0.0
 10
264.4981976852673
 20
-170.5059898013199
 30
0.0
 10
263.950670862674
 20
-170.1260575770008
 30
0.0
 10
263.1048253880264
 20
-170.8418925966951
 30
0.0
 10
262.8190920242888
 20
-171.0837071965434
 30
0.0
 10
262.5011398645292
 20
-171.2888954782359
 30
0.0
 10
262.2255418936951
 20
-171.5410210086639
 30
0.0
 10
258.8836345876238
 20
-174.5983531180771
 30
0.0
 10
255.071771894571
 20
-175.3940959417199
 30
0.0
 10
250.7707200366537
 20
-173.9814106838427
 30
0.0
 10
249.0819440622299
 20
-173.4267345169012
 30
0.0
 10
247.3683881778979
 20
-172.9475052072598
 30
0.0
 10
245.4424047521593
 20
-172.366422067855
 30
0.0
  0
SPLINE
  5
7D
330
70
100
AcDbEntity
  8
Layer 1
100
AcDbSpline
210
0.0
220
0.0
230
1.0
 70
     9
 71
     3
 72
    17
 73
    13
 74
     0
 42
0.0000000001
 43
0.0000000001
 40
0.0
 40
0.0
 40
0.0
 40
0.0
 40
1.0
 40
1.0
 40
1.0
 40
2.0
 40
2.0
 40
2.0
 40
3.0
 40
3.0
 40
3.0
 40
4.0
 40
4.0
 40
4.0
 40
4.0
 10
282.4909451716944
 20
-163.1539490406355
 30
0.0
 10
279.3756474681058
 20
-163.1571602353363
 30
0.0
 10
276.9388563153305
 20
-165.5988645350801
 30
0.0
 10
276.9510638160362
 20
-168.7049999350769
 30
0.0
 10
276.9631301234039
 20
-171.7751043185973
 30
0.0
 10
279.474005808457
 20
-174.2858540744512
 30
0.0
 10
282.5286743244059
 20
-174.2823356888143
 30
0.0
 10
285.5478117246658
 20
-174.2788592795761
 30
0.0
 10
288.10574677162
 20
-171.6957880003014
 30
0.0
 10
288.0883189330067
 20
-168.668051161832
 30
0.0
 10
288.0704522501975
 20
-165.5645888953936
 30
0.0
 10
285.6201294320527
 20
-163.1507225817893
 30
0.0
 10
282.4909451716944
 20
-163.1539490406355
 30
0.0
  0
INSERT
  5
7F
330
70
100
AcDbEntity
  8
Layer 1
100
AcDbBlockReference
  2
Block_0
 10
0.0
 20
0.0
 30
0.0
  0
INSERT
  5
BB
330
70
100
AcDbEntity
  8
Layer 1
100
AcDbBlockReference
  2
Block_2
 10
0.0
 20
0.0
 30
0.0
  0
ENDSEC
  0
SECTION
  2
OBJECTS
  0
DICTIONARY
  5
C
330
0
100
AcDbDictionary
281
     1
  3
ACAD_COLOR
350
63
  3
ACAD_DETAILVIEWSTYLE
350
6A
  3
ACAD_GROUP
350
D
  3
ACAD_LAYOUT
350
62
  3
ACAD_MATERIAL
350
10
  3
ACAD_MLEADERSTYLE
350
66
  3
ACAD_MLINESTYLE
350
5F
  3
ACAD_PLOTSETTINGS
350
61
  3
ACAD_PLOTSTYLENAME
350
E
  3
ACAD_SCALELIST
350
42
  3
ACAD_SECTIONVIEWSTYLE
350
68
  3
ACAD_TABLESTYLE
350
64
  3
ACAD_VISUALSTYLE
350
29
  3
ACDB_RECOMPOSE_DATA
350
D2
  3
AcDbVariableDictionary
350
CA
  0
DICTIONARY
  5
63
102
{ACAD_REACTORS
330
C
102
}
330
C
100
AcDbDictionary
281
     1
  0
DICTIONARY
  5
6A
102
{ACAD_REACTORS
330
C
102
}
330
C
100
AcDbDictionary
281
     1
  3
Imperial24
350
6B
  0
DICTIONARY
  5
D
102
{ACAD_REACTORS
330
C
102
}
330
C
100
AcDbDictionary
281
     1
  0
DICTIONARY
  5
62
102
{ACAD_REACTORS
330
C
102
}
330
C
100
AcDbDictionary
281
     1
  3
Layout1
350
6F
  3
Layout2
350
77
  3
Model
350
73
  0
DICTIONARY
  5
10
102
{ACAD_REACTORS
330
C
102
}
330
C
100
AcDbDictionary
281
     1
  3
ByBlock
350
19
  3
ByLayer
350
11
  3
Global
350
21
  0
DICTIONARY
  5
66
102
{ACAD_REACTORS
330
C
102
}
330
C
100
AcDbDictionary
281
     1
  3
Standard
350
67
  0
DICTIONARY
  5
5F
102
{ACAD_REACTORS
330
C
102
}
330
C
100
AcDbDictionary
281
     1
  3
Standard
350
60
  0
DICTIONARY
  5
61
102
{ACAD_REACTORS
330
C
102
}
330
C
100
AcDbDictionary
281
     1
  0
ACDBDICTIONARYWDFLT
  5
E
102
{ACAD_REACTORS
330
C
102
}
330
C
100
AcDbDictionary
281
     1
  3
Normal
350
F
100
AcDbDictionaryWithDefault
340
F
  0
DICTIONARY
  5
42
102
{ACAD_REACTORS
330
C
102
}
330
C
100
AcDbDictionary
281
     1
  3
A0
350
43
  3
A1
350
44
  3
A2
350
45
  3
A3
350
46
  3
A4
350
47
  3
A5
350
48
  3
A6
350
49
  3
A7
350
4A
  3
A8
350
4B
  3
A9
350
4C
  3
B0
350
4D
  3
B1
350
4E
  3
B2
350
4F
  3
B3
350
50
  3
B4
350
51
  3
B5
350
52
  3
B6
350
53
  0
DICTIONARY
  5
68
102
{ACAD_REACTORS
330
C
102
}
330
C
100
AcDbDictionary
281
     1
  3
Imperial24
350
69
  0
DICTIONARY
  5
64
102
{ACAD_REACTORS
330
C
102
}
330
C
100
AcDbDictionary
281
     1
  3
Standard
350
65
  0
DICTIONARY
  5
29
102
{ACAD_REACTORS
330
C
102
}
330
C
100
AcDbDictionary
281
     1
  3
2dWireframe
350
2F
  3
Basic
350
2E
  3
Brighten
350
35
  3
ColorChange
350
39
  3
Conceptual
350
32
  3
Dim
350
34
  3
EdgeColorOff
350
41
  3
Facepattern
350
38
  3
Flat
350
2A
  3
FlatWithEdges
350
2B
  3
Gouraud
350
2C
  3
GouraudWithEdges
350
2D
  3
Hidden
350
31
  3
JitterOff
350
3F
  3
Linepattern
350
37
  3
OverhangOff
350
40
  3
Realistic
350
33
  3
Shaded
350
3E
  3
Shaded with edges
350
3D
  3
Shades of Gray
350
3A
  3
Sketchy
350
3B
  3
Thicken
350
36
  3
Wireframe
350
30
  3
X-Ray
350
3C
  0
XRECORD
  5
D2
102
{ACAD_REACTORS
330
C
102
}
330
C
100
AcDbXrecord
280
     1
 90
        1
330
65
  0
DICTIONARY
  5
CA
102
{ACAD_REACTORS
330
C
102
}
330
C
100
AcDbDictionary
281
     1
  3
CANNOSCALE
350
CF
  3
CMLEADERSTYLE
350
CC
  3
CTABLESTYLE
350
CB
  3
CVIEWDETAILSTYLE
350
CD
  3
CVIEWSECTIONSTYLE
350
CE
  0
ACDBDETAILVIEWSTYLE
  5
6B
102
{ACAD_REACTORS
330
6A
102
}
330
6A
100
AcDbModelDocViewStyle
 70
     0
  3
Imperial24
290
     1
300
Imperial24
 90
        0
100
AcDbDetailViewStyle
 70
     0
 71
     0
 90
        3
 71
     1
340
55
 62
   256
 40
0.24
340
0
 62
   256
 40
0.24
300

 40
0.36
280
     3
 71
     2
340
5D
 90
       25
 62
   256
 71
     3
340
55
 62
   256
 40
0.24
 90
        1
 40
0.75
 90
        1
300
%<\AcVar ViewType \f "%tc1">% %<\AcVar ViewDetailId>%\PSCALE %<\AcVar ViewScale \f "%sn">%
 71
     4
340
5D
 90
       25
 62
   256
340
5D
 90
       25
 62
   256
280
     0
  0
LAYOUT
  5
6F
102
{ACAD_REACTORS
330
62
102
}
330
62
100
AcDbPlotSettings
  1

  2

  4

  6

 40
0.0
 41
0.0
 42
0.0
 43
0.0
 44
0.0
 45
0.0
 46
0.0
 47
0.0
 48
0.0
 49
0.0
140
0.0
141
0.0
142
1.0
143
1.0
 70
   688
 72
     0
 73
     0
 74
     5
  7

 75
    16
147
1.0
 76
     0
 77
     2
 78
   300
148
0.0
149
0.0
100
AcDbLayout
  1
Layout1
 70
     1
 71
     1
 10
0.0
 20
0.0
 11
12.0
 21
9.0
 12
0.0
 22
0.0
 32
0.0
 14
0.0
 24
0.0
 34
0.0
 15
0.0
 25
0.0
 35
0.0
146
0.0
 13
0.0
 23
0.0
 33
0.0
 16
1.0
 26
0.0
 36
0.0
 17
0.0
 27
1.0
 37
0.0
 76
     0
330
6C
  0
LAYOUT
  5
77
102
{ACAD_REACTORS
330
62
102
}
330
62
100
AcDbPlotSettings
  1

  2

  4

  6

 40
0.0
 41
0.0
 42
0.0
 43
0.0
 44
0.0
 45
0.0
 46
0.0
 47
0.0
 48
0.0
 49
0.0
140
0.0
141
0.0
142
1.0
143
1.0
 70
   688
 72
     0
 73
     0
 74
     5
  7

 75
    16
147
1.0
 76
     0
 77
     2
 78
   300
148
0.0
149
0.0
100
AcDbLayout
  1
Layout2
 70
     1
 71
     2
 10
0.0
 20
0.0
 11
12.0
 21
9.0
 12
0.0
 22
0.0
 32
0.0
 14
0.0
 24
0.0
 34
0.0
 15
0.0
 25
0.0
 35
0.0
146
0.0
 13
0.0
 23
0.0
 33
0.0
 16
1.0
 26
0.0
 36
0.0
 17
0.0
 27
1.0
 37
0.0
 76
     0
330
74
  0
LAYOUT
  5
73
102
{ACAD_REACTORS
330
62
102
}
330
62
100
AcDbPlotSettings
  1

  2

  4

  6

 40
0.0
 41
0.0
 42
0.0
 43
0.0
 44
0.0
 45
0.0
 46
0.0
 47
0.0
 48
0.0
 49
0.0
140
0.0
141
0.0
142
1.0
143
1.0
 70
  1712
 72
     0
 73
     0
 74
     0
  7

 75
     0
147
1.0
 76
     0
 77
     2
 78
   300
148
0.0
149
0.0
100
AcDbLayout
  1
Model
 70
     1
 71
     0
 10
0.0
 20
0.0
 11
12.0
 21
9.0
 12
0.0
 22
0.0
 32
0.0
 14
0.0
 24
0.0
 34
0.0
 15
0.0
 25
0.0
 35
0.0
146
0.0
 13
0.0
 23
0.0
 33
0.0
 16
1.0
 26
0.0
 36
0.0
 17
0.0
 27
1.0
 37
0.0
 76
     0
330
70
  0
MATERIAL
  5
19
102
{ACAD_XDICTIONARY
360
1A
102
}
102
{ACAD_REACTORS
330
10
102
}
330
10
100
AcDbMaterial
  1
ByBlock
 72
     0
 43
0.0208333333333333
 43
0.0
 43
0.0
 43
0.0
 43
0.0
 43
0.0208333333333333
 43
0.0
 43
0.0
 43
0.0
 43
0.0
 43
1.0
 43
0.0
 43
0.0
 43
0.0
 43
0.0
 43
1.0
 77
     0
 47
0.0208333333333333
 47
0.0
 47
0.0
 47
0.0
 47
0.0
 47
0.0208333333333333
 47
0.0
 47
0.0
 47
0.0
 47
0.0
 47
1.0
 47
0.0
 47
0.0
 47
0.0
 47
0.0
 47
1.0
171
     0
 49
0.0208333333333333
 49
0.0
 49
0.0
 49
0.0
 49
0.0
 49
0.0208333333333333
 49
0.0
 49
0.0
 49
0.0
 49
0.0
 49
1.0
 49
0.0
 49
0.0
 49
0.0
 49
0.0
 49
1.0
175
     0
142
0.0208333333333333
142
0.0
142
0.0
142
0.0
142
0.0
142
0.0208333333333333
142
0.0
142
0.0
142
0.0
142
0.0
142
1.0
142
0.0
142
0.0
142
0.0
142
0.0
142
1.0
179
     0
144
0.0208333333333333
144
0.0
144
0.0
144
0.0
144
0.0
144
0.0208333333333333
144
0.0
144
0.0
144
0.0
144
0.0
144
1.0
144
0.0
144
0.0
144
0.0
144
0.0
144
1.0
147
0.0208333333333333
147
0.0
147
0.0
147
0.0
147
0.0
147
0.0208333333333333
147
0.0
147
0.0
147
0.0
147
0.0
147
1.0
147
0.0
147
0.0
147
0.0
147
0.0
147
1.0
  0
MATERIAL
  5
11
102
{ACAD_XDICTIONARY
360
12
102
}
102
{ACAD_REACTORS
330
10
102
}
330
10
100
AcDbMaterial
  1
ByLayer
 72
     0
 43
0.0208333333333333
 43
0.0
 43
0.0
 43
0.0
 43
0.0
 43
0.0208333333333333
 43
0.0
 43
0.0
 43
0.0
 43
0.0
 43
1.0
 43
0.0
 43
0.0
 43
0.0
 43
0.0
 43
1.0
 77
     0
 47
0.0208333333333333
 47
0.0
 47
0.0
 47
0.0
 47
0.0
 47
0.0208333333333333
 47
0.0
 47
0.0
 47
0.0
 47
0.0
 47
1.0
 47
0.0
 47
0.0
 47
0.0
 47
0.0
 47
1.0
171
     0
 49
0.0208333333333333
 49
0.0
 49
0.0
 49
0.0
 49
0.0
 49
0.0208333333333333
 49
0.0
 49
0.0
 49
0.0
 49
0.0
 49
1.0
 49
0.0
 49
0.0
 49
0.0
 49
0.0
 49
1.0
175
     0
142
0.0208333333333333
142
0.0
142
0.0
142
0.0
142
0.0
142
0.0208333333333333
142
0.0
142
0.0
142
0.0
142
0.0
142
1.0
142
0.0
142
0.0
142
0.0
142
0.0
142
1.0
179
     0
144
0.0208333333333333
144
0.0
144
0.0
144
0.0
144
0.0
144
0.0208333333333333
144
0.0
144
0.0
144
0.0
144
0.0
144
1.0
144
0.0
144
0.0
144
0.0
144
0.0
144
1.0
147
0.0208333333333333
147
0.0
147
0.0
147
0.0
147
0.0
147
0.0208333333333333
147
0.0
147
0.0
147
0.0
147
0.0
147
1.0
147
0.0
147
0.0
147
0.0
147
0.0
147
1.0
  0
MATERIAL
  5
21
102
{ACAD_XDICTIONARY
360
22
102
}
102
{ACAD_REACTORS
330
10
102
}
330
10
100
AcDbMaterial
  1
Global
 72
     0
 43
0.0208333333333333
 43
0.0
 43
0.0
 43
0.0
 43
0.0
 43
0.0208333333333333
 43
0.0
 43
0.0
 43
0.0
 43
0.0
 43
1.0
 43
0.0
 43
0.0
 43
0.0
 43
0.0
 43
1.0
 77
     0
 47
0.0208333333333333
 47
0.0
 47
0.0
 47
0.0
 47
0.0
 47
0.0208333333333333
 47
0.0
 47
0.0
 47
0.0
 47
0.0
 47
1.0
 47
0.0
 47
0.0
 47
0.0
 47
0.0
 47
1.0
171
     0
 49
0.0208333333333333
 49
0.0
 49
0.0
 49
0.0
 49
0.0
 49
0.0208333333333333
 49
0.0
 49
0.0
 49
0.0
 49
0.0
 49
1.0
 49
0.0
 49
0.0
 49
0.0
 49
0.0
 49
1.0
175
     0
142
0.0208333333333333
142
0.0
142
0.0
142
0.0
142
0.0
142
0.0208333333333333
142
0.0
142
0.0
142
0.0
142
0.0
142
1.0
142
0.0
142
0.0
142
0.0
142
0.0
142
1.0
179
     0
144
0.0208333333333333
144
0.0
144
0.0
144
0.0
144
0.0
144
0.0208333333333333
144
0.0
144
0.0
144
0.0
144
0.0
144
1.0
144
0.0
144
0.0
144
0.0
144
0.0
144
1.0
147
0.0208333333333333
147
0.0
147
0.0
147
0.0
147
0.0
147
0.0208333333333333
147
0.0
147
0.0
147
0.0
147
0.0
147
1.0
147
0.0
147
0.0
147
0.0
147
0.0
147
1.0
  0
MLEADERSTYLE
  5
67
102
{ACAD_REACTORS
330
66
102
}
330
66
100
AcDbMLeaderStyle
179
     2
170
     2
171
     1
172
     0
 90
        2
 40
0.0
 41
0.0
173
     1
 91
-1056964608
340
5B
 92
       -2
290
     1
 42
0.09
291
     1
 43
0.36
  3
Standard
 44
0.18
300

342
55
174
     1
178
     6
175
     1
176
     0
 93
-1056964608
 45
0.18
292
     0
297
     0
 46
0.18
 94
-1056964608
 47
1.0
 49
1.0
140
1.0
293
     1
141
0.0
294
     1
177
     0
142
1.0
295
     1
296
     0
143
0.125
271
     0
272
     9
273
     9
298
     1
  0
MLINESTYLE
  5
60
102
{ACAD_REACTORS
330
5F
102
}
330
5F
100
AcDbMlineStyle
  2
STANDARD
 70
     0
  3

 62
   256
 51
90.0
 52
90.0
 71
     2
 49
0.5
 62
   256
  6
BYLAYER
 49
-0.5
 62
   256
  6
BYLAYER
  0
ACDBPLACEHOLDER
  5
F
102
{ACAD_REACTORS
330
E
102
}
330
E
  0
SCALE
  5
43
102
{ACAD_REACTORS
330
42
102
}
330
42
100
AcDbScale
 70
     0
300
1:1
140
1.0
141
1.0
290
     1
  0
SCALE
  5
44
102
{ACAD_REACTORS
330
42
102
}
330
42
100
AcDbScale
 70
     0
300
1/128" = 1'-0"
140
0.0078125
141
12.0
290
     0
  0
SCALE
  5
45
102
{ACAD_REACTORS
330
42
102
}
330
42
100
AcDbScale
 70
     0
300
1/64" = 1'-0"
140
0.015625
141
12.0
290
     0
  0
SCALE
  5
46
102
{ACAD_REACTORS
330
42
102
}
330
42
100
AcDbScale
 70
     0
300
1/32" = 1'-0"
140
0.03125
141
12.0
290
     0
  0
SCALE
  5
47
102
{ACAD_REACTORS
330
42
102
}
330
42
100
AcDbScale
 70
     0
300
1/16" = 1'-0"
140
0.0625
141
12.0
290
     0
  0
SCALE
  5
48
102
{ACAD_REACTORS
330
42
102
}
330
42
100
AcDbScale
 70
     0
300
3/32" = 1'-0"
140
0.09375
141
12.0
290
     0
  0
SCALE
  5
49
102
{ACAD_REACTORS
330
42
102
}
330
42
100
AcDbScale
 70
     0
300
1/8" = 1'-0"
140
0.125
141
12.0
290
     0
  0
SCALE
  5
4A
102
{ACAD_REACTORS
330
42
102
}
330
42
100
AcDbScale
 70
     0
300
3/16" = 1'-0"
140
0.1875
141
12.0
290
     0
  0
SCALE
  5
4B
102
{ACAD_REACTORS
330
42
102
}
330
42
100
AcDbScale
 70
     0
300
1/4" = 1'-0"
140
0.25
141
12.0
290
     0
  0
SCALE
  5
4C
102
{ACAD_REACTORS
330
42
102
}
330
42
100
AcDbScale
 70
     0
300
3/8" = 1'-0"
140
0.375
141
12.0
290
     0
  0
SCALE
  5
4D
102
{ACAD_REACTORS
330
42
102
}
330
42
100
AcDbScale
 70
     0
300
1/2" = 1'-0"
140
0.5
141
12.0
290
     0
  0
SCALE
  5
4E
102
{ACAD_REACTORS
330
42
102
}
330
42
100
AcDbScale
 70
     0
300
3/4" = 1'-0"
140
0.75
141
12.0
290
     0
  0
SCALE
  5
4F
102
{ACAD_REACTORS
330
42
102
}
330
42
100
AcDbScale
 70
     0
300
1" = 1'-0"
140
1.0
141
12.0
290
     0
  0
SCALE
  5
50
102
{ACAD_REACTORS
330
42
102
}
330
42
100
AcDbScale
 70
     0
300
1-1/2" = 1'-0"
140
1.5
141
12.0
290
     0
  0
SCALE
  5
51
102
{ACAD_REACTORS
330
42
102
}
330
42
100
AcDbScale
 70
     0
300
3" = 1'-0"
140
3.0
141
12.0
290
     0
  0
SCALE
  5
52
102
{ACAD_REACTORS
330
42
102
}
330
42
100
AcDbScale
 70
     0
300
6" = 1'-0"
140
6.0
141
12.0
290
     0
  0
SCALE
  5
53
102
{ACAD_REACTORS
330
42
102
}
330
42
100
AcDbScale
 70
     0
300
1'-0" = 1'-0"
140
12.0
141
12.0
290
     0
  0
ACDBSECTIONVIEWSTYLE
  5
69
102
{ACAD_REACTORS
330
68
102
}
330
68
100
AcDbModelDocViewStyle
 70
     0
  3
Imperial24
290
     1
300
Imperial24
 90
        0
100
AcDbSectionViewStyle
 70
     0
 71
     0
 90
       78
 71
     1
340
55
 62
   256
 40
0.24
340
0
340
0
 62
   256
 40
0.24
300
I, O, Q, S, X, Z
 40
0.48
 90
        3
 40
0.18
 90
        1
 71
     2
340
5D
 90
       25
 62
   256
340
5D
 90
       50
 62
   256
 40
0.24
 40
0.0
 40
0.24
 71
     3
340
55
 62
   256
 40
0.24
 90
        1
 40
0.75
 90
        1
300
%<\AcVar ViewType \f "%tc1">% %<\AcVar ViewSectionStartId>%-%<\AcVar ViewSectionEndId>%\PSCALE %<\AcVar ViewScale \f "%sn">%
 71
     4
 62
   256
 62
   257
300
ANSI31
 40
1.0
 90
        0
290
     0
290
     0
 90
        6
 40
0.0
 40
1.570796326794896
 40
0.2617993877991494
 40
1.308996938995747
 40
-0.2617993877991494
 40
1.832595714594046
  0
TABLESTYLE
  5
65
102
{ACAD_XDICTIONARY
360
D0
102
}
102
{ACAD_REACTORS
330
64
102
}
330
64
100
AcDbTableStyle
280
     0
  3
Standard
 70
     0
 71
     0
 40
0.06
 41
0.06
280
     0
281
     0
  7
Standard
140
0.18
170
     2
 62
     0
 63
     7
283
     0
 90
      512
 91
        0
  1

274
    -2
284
     1
 64
     0
275
    -2
285
     1
 65
     0
276
    -2
286
     1
 66
     0
277
    -2
287
     1
 67
     0
278
    -2
288
     1
 68
     0
279
    -2
289
     1
 69
     0
  7
Standard
140
0.25
170
     5
 62
     0
 63
     7
283
     0
 90
      512
 91
        0
  1

274
    -2
284
     1
 64
     0
275
    -2
285
     1
 65
     0
276
    -2
286
     1
 66
     0
277
    -2
287
     1
 67
     0
278
    -2
288
     1
 68
     0
279
    -2
289
     1
 69
     0
  7
Standard
140
0.18
170
     5
 62
     0
 63
     7
283
     0
 90
      512
 91
        0
  1

274
    -2
284
     1
 64
     0
275
    -2
285
     1
 65
     0
276
    -2
286
     1
 66
     0
277
    -2
287
     1
 67
     0
278
    -2
288
     1
 68
     0
279
    -2
289
     1
 69
     0
  0
VISUALSTYLE
  5
2F
102
{ACAD_REACTORS
330
29
102
}
330
29
100
AcDbVisualStyle
  2
2dWireframe
 70
     4
177
     3
291
     0
 70
    58
 90
        0
176
     1
 90
        2
176
     1
 90
        0
176
     1
 90
        0
176
     1
 40
0.6
176
     1
 40
30.0
176
     1
 62
     7
420
 16777215
176
     1
 90
        1
176
     1
 90
        4
176
     1
 62
     7
176
     1
 62
   257
176
     1
 90
        1
176
     1
 90
        1
176
     1
 40
1.0
176
     1
 90
        0
176
     1
 62
   257
176
     1
 40
1.0
176
     1
 90
        1
176
     1
 90
        6
176
     1
 90
        2
176
     1
 62
     7
176
     1
 90
        5
176
     1
 90
        0
176
     1
 90
        0
176
     1
290
     0
176
     1
 90
        1
176
     1
 40
0.0
176
     1
 90
        0
176
     1
290
     1
176
     1
290
     1
176
     1
290
     0
176
     1
290
     0
176
     1
290
     0
176
     1
290
     0
176
     1
290
     0
176
     1
290
     0
176
     1
290
     0
176
     1
 90
       50
176
     1
 40
0.0
176
     1
 40
1.0
176
     1
 90
        0
176
     1
 62
    18
420
        0
176
     1
 90
       50
176
     1
 90
        3
176
     1
 62
     5
420
      255
176
     1
290
     0
176
     1
 90
       50
176
     1
 90
       50
176
     1
 90
       50
176
     1
290
     0
176
     1
 90
       50
176
     1
 62
   256
176
     0
 40
1.0
176
     0
 90
        2
176
     1
  1
strokes_ogs.tif
176
     1
290
     0
176
     1
 40
1.0
176
     1
 40
1.0
176
     1
  0
VISUALSTYLE
  5
2E
102
{ACAD_REACTORS
330
29
102
}
330
29
100
AcDbVisualStyle
  2
Basic
 70
     7
177
     3
291
     1
 70
    58
 90
        1
176
     1
 90
        0
176
     1
 90
        1
176
     1
 90
        0
176
     1
 40
0.6
176
     1
 40
30.0
176
     1
 62
     7
420
 16777215
176
     1
 90
        0
176
     1
 90
        4
176
     1
 62
     7
176
     1
 62
   257
176
     1
 90
        1
176
     1
 90
        1
176
     1
 40
1.0
176
     1
 90
        8
176
     1
 62
     7
176
     1
 40
1.0
176
     1
 90
        1
176
     1
 90
        6
176
     1
 90
        2
176
     1
 62
     7
176
     1
 90
        5
176
     1
 90
        0
176
     1
 90
        0
176
     1
290
     0
176
     1
 90
        1
176
     1
 40
0.0
176
     1
 90
        0
176
     1
290
     0
176
     1
290
     1
176
     1
290
     1
176
     1
290
     0
176
     1
290
     0
176
     1
290
     0
176
     1
290
     0
176
     1
290
     0
176
     1
290
     0
176
     1
 90
       50
176
     1
 40
0.0
176
     1
 40
1.0
176
     1
 90
        0
176
     1
 62
    18
420
        0
176
     1
 90
       50
176
     1
 90
        3
176
     1
 62
     5
420
      255
176
     1
290
     0
176
     1
 90
       50
176
     1
 90
       50
176
     1
 90
       50
176
     1
290
     0
176
     1
 90
       50
176
     1
 62
   256
176
     0
 40
1.0
176
     0
 90
        2
176
     1
  1
strokes_ogs.tif
176
     1
290
     0
176
     1
 40
1.0
176
     1
 40
1.0
176
     1
  0
VISUALSTYLE
  5
35
102
{ACAD_REACTORS
330
29
102
}
330
29
100
AcDbVisualStyle
  2
Brighten
 70
    12
177
     3
291
     1
 70
    58
 90
        2
176
     1
 90
        2
176
     1
 90
        0
176
     1
 90
        0
176
     1
 40
0.6
176
     1
 40
30.0
176
     1
 62
     7
420
 16777215
176
     1
 90
        1
176
     1
 90
        4
176
     1
 62
     7
176
     1
 62
   257
176
     1
 90
        1
176
     1
 90
        1
176
     1
 40
1.0
176
     1
 90
        8
176
     1
 62
     7
176
     1
 40
1.0
176
     1
 90
        1
176
     1
 90
        6
176
     1
 90
        2
176
     1
 62
     7
176
     1
 90
        5
176
     1
 90
        0
176
     1
 90
        0
176
     1
290
     0
176
     1
 90
        1
176
     1
 40
50.0
176
     1
 90
        0
176
     1
290
     0
176
     1
290
     1
176
     1
290
     1
176
     1
290
     0
176
     1
290
     0
176
     1
290
     0
176
     1
290
     0
176
     1
290
     0
176
     1
290
     0
176
     1
 90
       50
176
     1
 40
0.0
176
     1
 40
1.0
176
     1
 90
        0
176
     1
 62
    18
420
        0
176
     1
 90
       50
176
     1
 90
        3
176
     1
 62
     5
420
      255
176
     1
290
     0
176
     1
 90
       50
176
     1
 90
       50
176
     1
 90
       50
176
     1
290
     0
176
     1
 90
       50
176
     1
 62
   256
176
     0
 40
1.0
176
     0
 90
        2
176
     1
  1
strokes_ogs.tif
176
     1
290
     0
176
     1
 40
1.0
176
     1
 40
1.0
176
     1
  0
VISUALSTYLE
  5
39
102
{ACAD_REACTORS
330
29
102
}
330
29
100
AcDbVisualStyle
  2
ColorChange
 70
    16
177
     3
291
     1
 70
    58
 90
        2
176
     1
 90
        2
176
     1
 90
        3
176
     1
 90
        0
176
     1
 40
0.6
176
     1
 40
30.0
176
     1
 62
     8
420
  8421504
176
     1
 90
        1
176
     1
 90
        4
176
     1
 62
     7
176
     1
 62
   257
176
     1
 90
        1
176
     1
 90
        1
176
     1
 40
1.0
176
     1
 90
        8
176
     1
 62
     8
420
  8421504
176
     1
 40
1.0
176
     1
 90
        1
176
     1
 90
        6
176
     1
 90
        2
176
     1
 62
     7
176
     1
 90
        5
176
     1
 90
        0
176
     1
 90
        0
176
     1
290
     0
176
     1
 90
        1
176
     1
 40
0.0
176
     1
 90
        0
176
     1
290
     0
176
     1
290
     1
176
     1
290
     1
176
     1
290
     0
176
     1
290
     0
176
     1
290
     0
176
     1
290
     0
176
     1
290
     0
176
     1
290
     0
176
     1
 90
       50
176
     1
 40
0.0
176
     1
 40
1.0
176
     1
 90
        0
176
     1
 62
    18
420
        0
176
     1
 90
       50
176
     1
 90
        3
176
     1
 62
     5
420
      255
176
     1
290
     0
176
     1
 90
       50
176
     1
 90
       50
176
     1
 90
       50
176
     1
290
     0
176
     1
 90
       50
176
     1
 62
   256
176
     0
 40
1.0
176
     0
 90
        2
176
     1
  1
strokes_ogs.tif
176
     1
290
     0
176
     1
 40
1.0
176
     1
 40
1.0
176
     1
  0
VISUALSTYLE
  5
32
102
{ACAD_REACTORS
330
29
102
}
330
29
100
AcDbVisualStyle
  2
Conceptual
 70
     9
177
     3
291
     0
 70
    58
 90
        3
176
     1
 90
        2
176
     1
 90
        0
176
     1
 90
        0
176
     1
 40
0.6
176
     1
 40
30.0
176
     1
 62
     7
420
 16777215
176
     1
 90
        2
176
     1
 90
        2
176
     1
 62
     7
176
     1
 62
   257
176
     1
 90
        1
176
     1
 90
        1
176
     1
 40
179.0
176
     1
 90
        8
176
     1
 62
     7
176
     1
 40
1.0
176
     1
 90
        1
176
     1
 90
        6
176
     1
 90
        2
176
     1
 62
     7
176
     1
 90
        3
176
     1
 90
        0
176
     1
 90
        0
176
     1
290
     0
176
     1
 90
        1
176
     1
 40
0.0
176
     1
 90
        0
176
     1
290
     0
176
     1
290
     1
176
     1
290
     1
176
     1
290
     0
176
     1
290
     0
176
     1
290
     0
176
     1
290
     0
176
     1
290
     0
176
     1
290
     0
176
     1
 90
       50
176
     1
 40
0.0
176
     1
 40
1.0
176
     1
 90
        0
176
     1
 62
    18
420
        0
176
     1
 90
       50
176
     1
 90
        3
176
     1
 62
     5
420
      255
176
     1
290
     0
176
     1
 90
       50
176
     1
 90
       50
176
     1
 90
       50
176
     1
290
     0
176
     1
 90
       50
176
     1
 62
   256
176
     0
 40
1.0
176
     0
 90
        2
176
     1
  1
strokes_ogs.tif
176
     1
290
     0
176
     1
 40
1.0
176
     1
 40
1.0
176
     1
  0
VISUALSTYLE
  5
34
102
{ACAD_REACTORS
330
29
102
}
330
29
100
AcDbVisualStyle
  2
Dim
 70
    11
177
     3
291
     1
 70
    58
 90
        2
176
     1
 90
        2
176
     1
 90
        0
176
     1
 90
        0
176
     1
 40
0.6
176
     1
 40
30.0
176
     1
 62
     7
420
 16777215
176
     1
 90
        1
176
     1
 90
        4
176
     1
 62
     7
176
     1
 62
   257
176
     1
 90
        1
176
     1
 90
        1
176
     1
 40
1.0
176
     1
 90
        8
176
     1
 62
     7
176
     1
 40
1.0
176
     1
 90
        1
176
     1
 90
        6
176
     1
 90
        2
176
     1
 62
     7
176
     1
 90
        5
176
     1
 90
        0
176
     1
 90
        0
176
     1
290
     0
176
     1
 90
        1
176
     1
 40
-50.0
176
     1
 90
        0
176
     1
290
     0
176
     1
290
     1
176
     1
290
     1
176
     1
290
     0
176
     1
290
     0
176
     1
290
     0
176
     1
290
     0
176
     1
290
     0
176
     1
290
     0
176
     1
 90
       50
176
     1
 40
0.0
176
     1
 40
1.0
176
     1
 90
        0
176
     1
 62
    18
420
        0
176
     1
 90
       50
176
     1
 90
        3
176
     1
 62
     5
420
      255
176
     1
290
     0
176
     1
 90
       50
176
     1
 90
       50
176
     1
 90
       50
176
     1
290
     0
176
     1
 90
       50
176
     1
 62
   256
176
     0
 40
1.0
176
     0
 90
        2
176
     1
  1
strokes_ogs.tif
176
     1
290
     0
176
     1
 40
1.0
176
     1
 40
1.0
176
     1
  0
VISUALSTYLE
  5
41
102
{ACAD_REACTORS
330
29
102
}
330
29
100
AcDbVisualStyle
  2
EdgeColorOff
 70
    22
177
     3
291
     1
 70
    58
 90
        2
176
     0
 90
        2
176
     0
 90
        0
176
     0
 90
        0
176
     0
 40
0.6
176
     0
 40
30.0
176
     0
 62
     7
420
 16777215
176
     0
 90
        1
176
     0
 90
        4
176
     0
 62
     7
176
     0
 62
   257
176
     0
 90
        1
176
     0
 90
        1
176
     0
 40
1.0
176
     0
 90
        8
176
     2
 62
     7
176
     0
 40
1.0
176
     0
 90
        1
176
     0
 90
        6
176
     0
 90
        2
176
     0
 62
     7
176
     0
 90
        5
176
     0
 90
        0
176
     0
 90
        0
176
     0
290
     0
176
     0
 90
        1
176
     0
 40
0.0
176
     0
 90
        0
176
     0
290
     0
176
     0
290
     1
176
     0
290
     1
176
     0
290
     0
176
     0
290
     0
176
     0
290
     0
176
     0
290
     0
176
     0
290
     0
176
     0
290
     0
176
     0
 90
       50
176
     0
 40
0.0
176
     0
 40
1.0
176
     0
 90
        0
176
     0
 62
    18
420
        0
176
     0
 90
       50
176
     0
 90
        3
176
     0
 62
     5
420
      255
176
     0
290
     0
176
     0
 90
       50
176
     0
 90
       50
176
     0
 90
       50
176
     0
290
     0
176
     0
 90
       50
176
     0
 62
   256
176
     0
 40
1.0
176
     0
 90
        2
176
     0
  1
strokes_ogs.tif
176
     0
290
     0
176
     0
 40
1.0
176
     0
 40
1.0
176
     0
  0
VISUALSTYLE
  5
38
102
{ACAD_REACTORS
330
29
102
}
330
29
100
AcDbVisualStyle
  2
Facepattern
 70
    15
177
     3
291
     1
 70
    58
 90
        2
176
     1
 90
        2
176
     1
 90
        0
176
     1
 90
        0
176
     1
 40
0.6
176
     1
 40
30.0
176
     1
 62
     7
420
 16777215
176
     1
 90
        1
176
     1
 90
        4
176
     1
 62
     7
176
     1
 62
   257
176
     1
 90
        1
176
     1
 90
        1
176
     1
 40
1.0
176
     1
 90
        8
176
     1
 62
     7
176
     1
 40
1.0
176
     1
 90
        1
176
     1
 90
        6
176
     1
 90
        2
176
     1
 62
     7
176
     1
 90
        5
176
     1
 90
        0
176
     1
 90
        0
176
     1
290
     0
176
     1
 90
        1
176
     1
 40
0.0
176
     1
 90
        0
176
     1
290
     0
176
     1
290
     1
176
     1
290
     1
176
     1
290
     0
176
     1
290
     0
176
     1
290
     0
176
     1
290
     0
176
     1
290
     0
176
     1
290
     0
176
     1
 90
       50
176
     1
 40
0.0
176
     1
 40
1.0
176
     1
 90
        0
176
     1
 62
    18
420
        0
176
     1
 90
       50
176
     1
 90
        3
176
     1
 62
     5
420
      255
176
     1
290
     0
176
     1
 90
       50
176
     1
 90
       50
176
     1
 90
       50
176
     1
290
     0
176
     1
 90
       50
176
     1
 62
   256
176
     0
 40
1.0
176
     0
 90
        2
176
     1
  1
strokes_ogs.tif
176
     1
290
     0
176
     1
 40
1.0
176
     1
 40
1.0
176
     1
  0
VISUALSTYLE
  5
2A
102
{ACAD_REACTORS
330
29
102
}
330
29
100
AcDbVisualStyle
  2
Flat
 70
     0
177
     3
291
     1
 70
    58
 90
        2
176
     1
 90
        1
176
     1
 90
        1
176
     1
 90
        2
176
     1
 40
0.6
176
     1
 40
30.0
176
     1
 62
     7
420
 16777215
176
     1
 90
        0
176
     1
 90
        0
176
     1
 62
     7
176
     1
 62
   257
176
     1
 90
        1
176
     1
 90
        1
176
     1
 40
1.0
176
     1
 90
        8
176
     1
 62
     7
176
     1
 40
1.0
176
     1
 90
        1
176
     1
 90
        6
176
     1
 90
        2
176
     1
 62
     7
176
     1
 90
        5
176
     1
 90
        0
176
     1
 90
        0
176
     1
290
     0
176
     1
 90
       13
176
     1
 40
0.0
176
     1
 90
        0
176
     1
290
     0
176
     1
290
     1
176
     1
290
     1
176
     1
290
     0
176
     1
290
     0
176
     1
290
     0
176
     1
290
     0
176
     1
290
     0
176
     1
290
     0
176
     1
 90
       50
176
     1
 40
0.0
176
     1
 40
1.0
176
     1
 90
        0
176
     1
 62
    18
420
        0
176
     1
 90
       50
176
     1
 90
        3
176
     1
 62
     5
420
      255
176
     1
290
     0
176
     1
 90
       50
176
     1
 90
       50
176
     1
 90
       50
176
     1
290
     0
176
     1
 90
       50
176
     1
 62
   256
176
     0
 40
1.0
176
     0
 90
        2
176
     1
  1
strokes_ogs.tif
176
     1
290
     0
176
     1
 40
1.0
176
     1
 40
1.0
176
     1
  0
VISUALSTYLE
  5
2B
102
{ACAD_REACTORS
330
29
102
}
330
29
100
AcDbVisualStyle
  2
FlatWithEdges
 70
     1
177
     3
291
     1
 70
    58
 90
        2
176
     1
 90
        1
176
     1
 90
        1
176
     1
 90
        2
176
     1
 40
0.6
176
     1
 40
30.0
176
     1
 62
     7
420
 16777215
176
     1
 90
        1
176
     1
 90
        0
176
     1
 62
     7
176
     1
 62
   257
176
     1
 90
        1
176
     1
 90
        1
176
     1
 40
1.0
176
     1
 90
        0
176
     1
 62
   257
176
     1
 40
1.0
176
     1
 90
        1
176
     1
 90
        6
176
     1
 90
        2
176
     1
 62
     7
176
     1
 90
        5
176
     1
 90
        0
176
     1
 90
        0
176
     1
290
     0
176
     1
 90
       13
176
     1
 40
0.0
176
     1
 90
        0
176
     1
290
     0
176
     1
290
     1
176
     1
290
     1
176
     1
290
     0
176
     1
290
     0
176
     1
290
     0
176
     1
290
     0
176
     1
290
     0
176
     1
290
     0
176
     1
 90
       50
176
     1
 40
0.0
176
     1
 40
1.0
176
     1
 90
        0
176
     1
 62
    18
420
        0
176
     1
 90
       50
176
     1
 90
        3
176
     1
 62
     5
420
      255
176
     1
290
     0
176
     1
 90
       50
176
     1
 90
       50
176
     1
 90
       50
176
     1
290
     0
176
     1
 90
       50
176
     1
 62
   256
176
     0
 40
1.0
176
     0
 90
        2
176
     1
  1
strokes_ogs.tif
176
     1
290
     0
176
     1
 40
1.0
176
     1
 40
1.0
176
     1
  0
VISUALSTYLE
  5
2C
102
{ACAD_REACTORS
330
29
102
}
330
29
100
AcDbVisualStyle
  2
Gouraud
 70
     2
177
     3
291
     1
 70
    58
 90
        2
176
     1
 90
        2
176
     1
 90
        1
176
     1
 90
        2
176
     1
 40
0.6
176
     1
 40
30.0
176
     1
 62
     7
420
 16777215
176
     1
 90
        0
176
     1
 90
        0
176
     1
 62
     7
176
     1
 62
   257
176
     1
 90
        1
176
     1
 90
        1
176
     1
 40
1.0
176
     1
 90
        0
176
     1
 62
     7
176
     1
 40
1.0
176
     1
 90
        1
176
     1
 90
        6
176
     1
 90
        2
176
     1
 62
     7
176
     1
 90
        5
176
     1
 90
        0
176
     1
 90
        0
176
     1
290
     0
176
     1
 90
       13
176
     1
 40
0.0
176
     1
 90
        0
176
     1
290
     0
176
     1
290
     1
176
     1
290
     1
176
     1
290
     0
176
     1
290
     0
176
     1
290
     0
176
     1
290
     0
176
     1
290
     0
176
     1
290
     0
176
     1
 90
       50
176
     1
 40
0.0
176
     1
 40
1.0
176
     1
 90
        0
176
     1
 62
    18
420
        0
176
     1
 90
       50
176
     1
 90
        3
176
     1
 62
     5
420
      255
176
     1
290
     0
176
     1
 90
       50
176
     1
 90
       50
176
     1
 90
       50
176
     1
290
     0
176
     1
 90
       50
176
     1
 62
   256
176
     0
 40
1.0
176
     0
 90
        2
176
     1
  1
strokes_ogs.tif
176
     1
290
     0
176
     1
 40
1.0
176
     1
 40
1.0
176
     1
  0
VISUALSTYLE
  5
2D
102
{ACAD_REACTORS
330
29
102
}
330
29
100
AcDbVisualStyle
  2
GouraudWithEdges
 70
     3
177
     3
291
     1
 70
    58
 90
        2
176
     1
 90
        2
176
     1
 90
        1
176
     1
 90
        2
176
     1
 40
0.6
176
     1
 40
30.0
176
     1
 62
     7
420
 16777215
176
     1
 90
        1
176
     1
 90
        0
176
     1
 62
     7
176
     1
 62
   257
176
     1
 90
        1
176
     1
 90
        1
176
     1
 40
1.0
176
     1
 90
        0
176
     1
 62
   257
176
     1
 40
1.0
176
     1
 90
        1
176
     1
 90
        6
176
     1
 90
        2
176
     1
 62
     7
176
     1
 90
        5
176
     1
 90
        0
176
     1
 90
        0
176
     1
290
     0
176
     1
 90
       13
176
     1
 40
0.0
176
     1
 90
        0
176
     1
290
     0
176
     1
290
     1
176
     1
290
     1
176
     1
290
     0
176
     1
290
     0
176
     1
290
     0
176
     1
290
     0
176
     1
290
     0
176
     1
290
     0
176
     1
 90
       50
176
     1
 40
0.0
176
     1
 40
1.0
176
     1
 90
        0
176
     1
 62
    18
420
        0
176
     1
 90
       50
176
     1
 90
        3
176
     1
 62
     5
420
      255
176
     1
290
     0
176
     1
 90
       50
176
     1
 90
       50
176
     1
 90
       50
176
     1
290
     0
176
     1
 90
       50
176
     1
 62
   256
176
     0
 40
1.0
176
     0
 90
        2
176
     1
  1
strokes_ogs.tif
176
     1
290
     0
176
     1
 40
1.0
176
     1
 40
1.0
176
     1
  0
VISUALSTYLE
  5
31
102
{ACAD_REACTORS
330
29
102
}
330
29
100
AcDbVisualStyle
  2
Hidden
 70
     6
177
     3
291
     0
 70
    58
 90
        1
176
     1
 90
        2
176
     1
 90
        2
176
     1
 90
        0
176
     1
 40
0.6
176
     1
 40
30.0
176
     1
 62
     7
420
 16777215
176
     1
 90
        2
176
     1
 90
        2
176
     1
 62
     7
176
     1
 62
   257
176
     1
 90
        2
176
     1
 90
        1
176
     1
 40
40.0
176
     1
 90
        0
176
     1
 62
   257
176
     1
 40
1.0
176
     1
 90
        1
176
     1
 90
        6
176
     1
 90
        2
176
     1
 62
     7
176
     1
 90
        3
176
     1
 90
        0
176
     1
 90
        0
176
     1
290
     0
176
     1
 90
        1
176
     1
 40
0.0
176
     1
 90
        0
176
     1
290
     0
176
     1
290
     1
176
     1
290
     1
176
     1
290
     0
176
     1
290
     0
176
     1
290
     0
176
     1
290
     0
176
     1
290
     0
176
     1
290
     0
176
     1
 90
       50
176
     1
 40
0.0
176
     1
 40
1.0
176
     1
 90
        0
176
     1
 62
    18
420
        0
176
     1
 90
       50
176
     1
 90
        3
176
     1
 62
     5
420
      255
176
     1
290
     0
176
     1
 90
       50
176
     1
 90
       50
176
     1
 90
       50
176
     1
290
     0
176
     1
 90
       50
176
     1
 62
   256
176
     0
 40
1.0
176
     0
 90
        2
176
     1
  1
strokes_ogs.tif
176
     1
290
     0
176
     1
 40
1.0
176
     1
 40
1.0
176
     1
  0
VISUALSTYLE
  5
3F
102
{ACAD_REACTORS
330
29
102
}
330
29
100
AcDbVisualStyle
  2
JitterOff
 70
    20
177
     3
291
     1
 70
    58
 90
        2
176
     0
 90
        2
176
     0
 90
        0
176
     0
 90
        0
176
     0
 40
0.6
176
     0
 40
30.0
176
     0
 62
     7
420
 16777215
176
     0
 90
        1
176
     0
 90
        4
176
     0
 62
     7
176
     0
 62
   257
176
     0
 90
        1
176
     0
 90
        1
176
     0
 40
1.0
176
     0
 90
       10
176
     2
 62
     7
176
     0
 40
1.0
176
     0
 90
        1
176
     0
 90
        6
176
     0
 90
        2
176
     0
 62
     7
176
     0
 90
        5
176
     0
 90
        0
176
     0
 90
        0
176
     0
290
     0
176
     0
 90
        1
176
     0
 40
0.0
176
     0
 90
        0
176
     0
290
     0
176
     0
290
     1
176
     0
290
     1
176
     0
290
     0
176
     0
290
     0
176
     0
290
     0
176
     0
290
     0
176
     0
290
     0
176
     0
290
     0
176
     0
 90
       50
176
     0
 40
0.0
176
     0
 40
1.0
176
     0
 90
        0
176
     0
 62
    18
420
        0
176
     0
 90
       50
176
     0
 90
        3
176
     0
 62
     5
420
      255
176
     0
290
     0
176
     0
 90
       50
176
     0
 90
       50
176
     0
 90
       50
176
     0
290
     0
176
     0
 90
       50
176
     0
 62
   256
176
     0
 40
1.0
176
     0
 90
        2
176
     0
  1
strokes_ogs.tif
176
     0
290
     0
176
     0
 40
1.0
176
     0
 40
1.0
176
     0
  0
VISUALSTYLE
  5
37
102
{ACAD_REACTORS
330
29
102
}
330
29
100
AcDbVisualStyle
  2
Linepattern
 70
    14
177
     3
291
     1
 70
    58
 90
        2
176
     1
 90
        2
176
     1
 90
        0
176
     1
 90
        0
176
     1
 40
0.6
176
     1
 40
30.0
176
     1
 62
     7
420
 16777215
176
     1
 90
        1
176
     1
 90
        4
176
     1
 62
     7
176
     1
 62
   257
176
     1
 90
        7
176
     1
 90
        7
176
     1
 40
1.0
176
     1
 90
        8
176
     1
 62
     7
176
     1
 40
1.0
176
     1
 90
        1
176
     1
 90
        6
176
     1
 90
        2
176
     1
 62
     7
176
     1
 90
        5
176
     1
 90
        0
176
     1
 90
        0
176
     1
290
     0
176
     1
 90
        1
176
     1
 40
0.0
176
     1
 90
        0
176
     1
290
     0
176
     1
290
     1
176
     1
290
     1
176
     1
290
     0
176
     1
290
     0
176
     1
290
     0
176
     1
290
     0
176
     1
290
     0
176
     1
290
     0
176
     1
 90
       50
176
     1
 40
0.0
176
     1
 40
1.0
176
     1
 90
        0
176
     1
 62
    18
420
        0
176
     1
 90
       50
176
     1
 90
        3
176
     1
 62
     5
420
      255
176
     1
290
     0
176
     1
 90
       50
176
     1
 90
       50
176
     1
 90
       50
176
     1
290
     0
176
     1
 90
       50
176
     1
 62
   256
176
     0
 40
1.0
176
     0
 90
        2
176
     1
  1
strokes_ogs.tif
176
     1
290
     0
176
     1
 40
1.0
176
     1
 40
1.0
176
     1
  0
VISUALSTYLE
  5
40
102
{ACAD_REACTORS
330
29
102
}
330
29
100
AcDbVisualStyle
  2
OverhangOff
 70
    21
177
     3
291
     1
 70
    58
 90
        2
176
     0
 90
        2
176
     0
 90
        0
176
     0
 90
        0
176
     0
 40
0.6
176
     0
 40
30.0
176
     0
 62
     7
420
 16777215
176
     0
 90
        1
176
     0
 90
        4
176
     0
 62
     7
176
     0
 62
   257
176
     0
 90
        1
176
     0
 90
        1
176
     0
 40
1.0
176
     0
 90
        9
176
     2
 62
     7
176
     0
 40
1.0
176
     0
 90
        1
176
     0
 90
        6
176
     0
 90
        2
176
     0
 62
     7
176
     0
 90
        5
176
     0
 90
        0
176
     0
 90
        0
176
     0
290
     0
176
     0
 90
        1
176
     0
 40
0.0
176
     0
 90
        0
176
     0
290
     0
176
     0
290
     1
176
     0
290
     1
176
     0
290
     0
176
     0
290
     0
176
     0
290
     0
176
     0
290
     0
176
     0
290
     0
176
     0
290
     0
176
     0
 90
       50
176
     0
 40
0.0
176
     0
 40
1.0
176
     0
 90
        0
176
     0
 62
    18
420
        0
176
     0
 90
       50
176
     0
 90
        3
176
     0
 62
     5
420
      255
176
     0
290
     0
176
     0
 90
       50
176
     0
 90
       50
176
     0
 90
       50
176
     0
290
     0
176
     0
 90
       50
176
     0
 62
   256
176
     0
 40
1.0
176
     0
 90
        2
176
     0
  1
strokes_ogs.tif
176
     0
290
     0
176
     0
 40
1.0
176
     0
 40
1.0
176
     0
  0
VISUALSTYLE
  5
33
102
{ACAD_REACTORS
330
29
102
}
330
29
100
AcDbVisualStyle
  2
Realistic
 70
     8
177
     3
291
     0
 70
    58
 90
        2
176
     1
 90
        3
176
     1
 90
        0
176
     1
 90
        2
176
     1
 40
0.6
176
     1
 40
30.0
176
     1
 62
     7
420
 16777215
176
     1
 90
        0
176
     1
 90
        0
176
     1
 62
     7
176
     1
 62
   257
176
     1
 90
        1
176
     1
 90
        1
176
     1
 40
1.0
176
     1
 90
        8
176
     1
 62
   257
176
     1
 40
1.0
176
     1
 90
        1
176
     1
 90
        6
176
     1
 90
        2
176
     1
 62
     7
176
     1
 90
        3
176
     1
 90
        0
176
     1
 90
        0
176
     1
290
     0
176
     1
 90
       13
176
     1
 40
0.0
176
     1
 90
        0
176
     1
290
     0
176
     1
290
     1
176
     1
290
     1
176
     1
290
     0
176
     1
290
     0
176
     1
290
     0
176
     1
290
     0
176
     1
290
     0
176
     1
290
     0
176
     1
 90
       50
176
     1
 40
0.0
176
     1
 40
1.0
176
     1
 90
        0
176
     1
 62
    18
420
        0
176
     1
 90
       50
176
     1
 90
        3
176
     1
 62
     5
420
      255
176
     1
290
     0
176
     1
 90
       50
176
     1
 90
       50
176
     1
 90
       50
176
     1
290
     0
176
     1
 90
       50
176
     1
 62
   256
176
     0
 40
1.0
176
     0
 90
        2
176
     1
  1
strokes_ogs.tif
176
     1
290
     0
176
     1
 40
1.0
176
     1
 40
1.0
176
     1
  0
VISUALSTYLE
  5
3E
102
{ACAD_REACTORS
330
29
102
}
330
29
100
AcDbVisualStyle
  2
Shaded
 70
    27
177
     3
291
     0
 70
    58
 90
        2
176
     1
 90
        2
176
     1
 90
        1
176
     1
 90
        2
176
     1
 40
0.6
176
     1
 40
30.0
176
     1
 62
     7
420
 16777215
176
     1
 90
        0
176
     1
 90
        4
176
     1
 62
     7
176
     1
 62
   257
176
     1
 90
        1
176
     1
 90
        1
176
     1
 40
1.0
176
     1
 90
        8
176
     1
 62
   257
176
     1
 40
1.0
176
     1
 90
        1
176
     1
 90
        6
176
     1
 90
        2
176
     1
 62
     8
420
  7895160
176
     1
 90
        3
176
     1
 90
        0
176
     1
 90
        0
176
     1
290
     0
176
     1
 90
        5
176
     1
 40
0.0
176
     1
 90
        0
176
     1
290
     0
176
     1
290
     1
176
     1
290
     1
176
     1
290
     0
176
     1
290
     0
176
     1
290
     0
176
     1
290
     0
176
     1
290
     0
176
     1
290
     0
176
     1
 90
       50
176
     1
 40
0.0
176
     1
 40
1.0
176
     1
 90
        0
176
     1
 62
    18
420
        0
176
     1
 90
       50
176
     1
 90
        3
176
     1
 62
     5
420
      255
176
     1
290
     0
176
     1
 90
       50
176
     1
 90
       50
176
     1
 90
       50
176
     1
290
     0
176
     1
 90
       50
176
     1
 62
   256
176
     0
 40
1.0
176
     0
 90
        2
176
     1
  1
strokes_ogs.tif
176
     1
290
     0
176
     1
 40
1.0
176
     1
 40
1.0
176
     1
  0
VISUALSTYLE
  5
3D
102
{ACAD_REACTORS
330
29
102
}
330
29
100
AcDbVisualStyle
  2
Shaded with edges
 70
    26
177
     3
291
     0
 70
    58
 90
        2
176
     1
 90
        2
176
     1
 90
        1
176
     1
 90
        2
176
     1
 40
0.6
176
     1
 40
30.0
176
     1
 62
     7
420
 16777215
176
     1
 90
        1
176
     1
 90
        2
176
     1
 62
     7
176
     1
 62
   257
176
     1
 90
        2
176
     1
 90
        1
176
     1
 40
1.0
176
     1
 90
        8
176
     1
 62
   257
176
     1
 40
1.0
176
     1
 90
        1
176
     1
 90
        6
176
     1
 90
        2
176
     1
 62
     7
176
     1
 90
        3
176
     1
 90
        0
176
     1
 90
        0
176
     1
290
     0
176
     1
 90
        5
176
     1
 40
0.0
176
     1
 90
        0
176
     1
290
     0
176
     1
290
     1
176
     1
290
     1
176
     1
290
     0
176
     1
290
     0
176
     1
290
     0
176
     1
290
     0
176
     1
290
     0
176
     1
290
     0
176
     1
 90
       50
176
     1
 40
0.0
176
     1
 40
1.0
176
     1
 90
        0
176
     1
 62
    18
420
        0
176
     1
 90
       50
176
     1
 90
        3
176
     1
 62
     5
420
      255
176
     1
290
     0
176
     1
 90
       50
176
     1
 90
       50
176
     1
 90
       50
176
     1
290
     0
176
     1
 90
       50
176
     1
 62
   256
176
     0
 40
1.0
176
     0
 90
        2
176
     1
  1
strokes_ogs.tif
176
     1
290
     0
176
     1
 40
1.0
176
     1
 40
1.0
176
     1
  0
VISUALSTYLE
  5
3A
102
{ACAD_REACTORS
330
29
102
}
330
29
100
AcDbVisualStyle
  2
Shades of Gray
 70
    23
177
     3
291
     0
 70
    58
 90
        2
176
     1
 90
        2
176
     1
 90
        3
176
     1
 90
        0
176
     1
 40
0.6
176
     1
 40
30.0
176
     1
 62
     7
420
 16777215
176
     1
 90
        2
176
     1
 90
        2
176
     1
 62
     7
176
     1
 62
     7
176
     1
 90
        1
176
     1
 90
        1
176
     1
 40
40.0
176
     1
 90
        8
176
     1
 62
     7
176
     1
 40
1.0
176
     1
 90
        1
176
     1
 90
        6
176
     1
 90
        2
176
     1
 62
     7
176
     1
 90
        3
176
     1
 90
        0
176
     1
 90
        0
176
     1
290
     0
176
     1
 90
        1
176
     1
 40
0.0
176
     1
 90
        0
176
     1
290
     0
176
     1
290
     1
176
     1
290
     1
176
     1
290
     0
176
     1
290
     0
176
     1
290
     0
176
     1
290
     0
176
     1
290
     0
176
     1
290
     0
176
     1
 90
       50
176
     1
 40
0.0
176
     1
 40
1.0
176
     1
 90
        0
176
     1
 62
    18
420
        0
176
     1
 90
       50
176
     1
 90
        3
176
     1
 62
     5
420
      255
176
     1
290
     0
176
     1
 90
       50
176
     1
 90
       50
176
     1
 90
       50
176
     1
290
     0
176
     1
 90
       50
176
     1
 62
   256
176
     0
 40
1.0
176
     0
 90
        2
176
     1
  1
strokes_ogs.tif
176
     1
290
     0
176
     1
 40
1.0
176
     1
 40
1.0
176
     1
  0
VISUALSTYLE
  5
3B
102
{ACAD_REACTORS
330
29
102
}
330
29
100
AcDbVisualStyle
  2
Sketchy
 70
    24
177
     3
291
     0
 70
    58
 90
        1
176
     1
 90
        2
176
     1
 90
        2
176
     1
 90
        0
176
     1
 40
0.6
176
     1
 40
30.0
176
     1
 62
     7
420
 16777215
176
     1
 90
        2
176
     1
 90
        2
176
     1
 62
     7
176
     1
 62
     7
176
     1
 90
        1
176
     1
 90
        1
176
     1
 40
40.0
176
     1
 90
       11
176
     1
 62
     7
176
     1
 40
1.0
176
     1
 90
        1
176
     1
 90
        6
176
     1
 90
        2
176
     1
 62
     7
176
     1
 90
        6
176
     1
 90
        0
176
     1
 90
        0
176
     1
290
     0
176
     1
 90
        1
176
     1
 40
0.0
176
     1
 90
        0
176
     1
290
     0
176
     1
290
     1
176
     1
290
     1
176
     1
290
     0
176
     1
290
     0
176
     1
290
     0
176
     1
290
     0
176
     1
290
     0
176
     1
290
     0
176
     1
 90
       50
176
     1
 40
0.0
176
     1
 40
1.0
176
     1
 90
        0
176
     1
 62
    18
420
        0
176
     1
 90
       50
176
     1
 90
        3
176
     1
 62
     5
420
      255
176
     1
290
     0
176
     1
 90
       50
176
     1
 90
       50
176
     1
 90
       50
176
     1
290
     0
176
     1
 90
       50
176
     1
 62
   256
176
     0
 40
1.0
176
     0
 90
        2
176
     1
  1
strokes_ogs.tif
176
     1
290
     0
176
     1
 40
1.0
176
     1
 40
1.0
176
     1
  0
VISUALSTYLE
  5
36
102
{ACAD_REACTORS
330
29
102
}
330
29
100
AcDbVisualStyle
  2
Thicken
 70
    13
177
     3
291
     1
 70
    58
 90
        2
176
     1
 90
        2
176
     1
 90
        0
176
     1
 90
        0
176
     1
 40
0.6
176
     1
 40
30.0
176
     1
 62
     7
420
 16777215
176
     1
 90
        1
176
     1
 90
        4
176
     1
 62
     7
176
     1
 62
   257
176
     1
 90
        1
176
     1
 90
        1
176
     1
 40
1.0
176
     1
 90
       12
176
     1
 62
     7
176
     1
 40
1.0
176
     1
 90
        1
176
     1
 90
        6
176
     1
 90
        2
176
     1
 62
     7
176
     1
 90
        5
176
     1
 90
        0
176
     1
 90
        0
176
     1
290
     0
176
     1
 90
        1
176
     1
 40
0.0
176
     1
 90
        0
176
     1
290
     0
176
     1
290
     1
176
     1
290
     1
176
     1
290
     0
176
     1
290
     0
176
     1
290
     0
176
     1
290
     0
176
     1
290
     0
176
     1
290
     0
176
     1
 90
       50
176
     1
 40
0.0
176
     1
 40
1.0
176
     1
 90
        0
176
     1
 62
    18
420
        0
176
     1
 90
       50
176
     1
 90
        3
176
     1
 62
     5
420
      255
176
     1
290
     0
176
     1
 90
       50
176
     1
 90
       50
176
     1
 90
       50
176
     1
290
     0
176
     1
 90
       50
176
     1
 62
   256
176
     0
 40
1.0
176
     0
 90
        2
176
     1
  1
strokes_ogs.tif
176
     1
290
     0
176
     1
 40
1.0
176
     1
 40
1.0
176
     1
  0
VISUALSTYLE
  5
30
102
{ACAD_REACTORS
330
29
102
}
330
29
100
AcDbVisualStyle
  2
Wireframe
 70
     5
177
     3
291
     0
 70
    58
 90
        0
176
     1
 90
        2
176
     1
 90
        0
176
     1
 90
        0
176
     1
 40
0.6
176
     1
 40
30.0
176
     1
 62
     7
420
 16777215
176
     1
 90
        1
176
     1
 90
        4
176
     1
 62
     7
176
     1
 62
   257
176
     1
 90
        1
176
     1
 90
        1
176
     1
 40
1.0
176
     1
 90
        0
176
     1
 62
   257
176
     1
 40
1.0
176
     1
 90
        1
176
     1
 90
        6
176
     1
 90
        2
176
     1
 62
     7
176
     1
 90
        3
176
     1
 90
        0
176
     1
 90
        0
176
     1
290
     0
176
     1
 90
        1
176
     1
 40
0.0
176
     1
 90
        0
176
     1
290
     0
176
     1
290
     1
176
     1
290
     1
176
     1
290
     0
176
     1
290
     0
176
     1
290
     0
176
     1
290
     0
176
     1
290
     0
176
     1
290
     0
176
     1
 90
       50
176
     1
 40
0.0
176
     1
 40
1.0
176
     1
 90
        0
176
     1
 62
    18
420
        0
176
     1
 90
       50
176
     1
 90
        3
176
     1
 62
     5
420
      255
176
     1
290
     0
176
     1
 90
       50
176
     1
 90
       50
176
     1
 90
       50
176
     1
290
     0
176
     1
 90
       50
176
     1
 62
   256
176
     0
 40
1.0
176
     0
 90
        2
176
     1
  1
strokes_ogs.tif
176
     1
290
     0
176
     1
 40
1.0
176
     1
 40
1.0
176
     1
  0
VISUALSTYLE
  5
3C
102
{ACAD_REACTORS
330
29
102
}
330
29
100
AcDbVisualStyle
  2
X-Ray
 70
    25
177
     3
291
     0
 70
    58
 90
        2
176
     1
 90
        2
176
     1
 90
        1
176
     1
 90
        1
176
     1
 40
0.5
176
     1
 40
30.0
176
     1
 62
     7
420
 16777215
176
     1
 90
        1
176
     1
 90
        0
176
     1
 62
     7
176
     1
 62
   257
176
     1
 90
        1
176
     1
 90
        1
176
     1
 40
1.0
176
     1
 90
        8
176
     1
 62
     7
176
     1
 40
1.0
176
     1
 90
        1
176
     1
 90
        6
176
     1
 90
        2
176
     1
 62
     7
176
     1
 90
        3
176
     1
 90
        0
176
     1
 90
        0
176
     1
290
     0
176
     1
 90
       13
176
     1
 40
0.0
176
     1
 90
        0
176
     1
290
     0
176
     1
290
     1
176
     1
290
     1
176
     1
290
     0
176
     1
290
     0
176
     1
290
     0
176
     1
290
     0
176
     1
290
     0
176
     1
290
     0
176
     1
 90
       50
176
     1
 40
0.0
176
     1
 40
1.0
176
     1
 90
        0
176
     1
 62
    18
420
        0
176
     1
 90
       50
176
     1
 90
        3
176
     1
 62
     5
420
      255
176
     1
290
     0
176
     1
 90
       50
176
     1
 90
       50
176
     1
 90
       50
176
     1
290
     0
176
     1
 90
       50
176
     1
 62
   256
176
     0
 40
1.0
176
     0
 90
        2
176
     1
  1
strokes_ogs.tif
176
     1
290
     0
176
     1
 40
1.0
176
     1
 40
1.0
176
     1
  0
DICTIONARYVAR
  5
CF
102
{ACAD_REACTORS
330
CA
102
}
330
CA
100
DictionaryVariables
280
     0
  1
1:1
  0
DICTIONARYVAR
  5
CC
102
{ACAD_REACTORS
330
CA
102
}
330
CA
100
DictionaryVariables
280
     0
  1
STANDARD
  0
DICTIONARYVAR
  5
CB
102
{ACAD_REACTORS
330
CA
102
}
330
CA
100
DictionaryVariables
280
     0
  1
STANDARD
  0
DICTIONARYVAR
  5
CD
102
{ACAD_REACTORS
330
CA
102
}
330
CA
100
DictionaryVariables
280
     0
  1
Imperial24
  0
DICTIONARYVAR
  5
CE
102
{ACAD_REACTORS
330
CA
102
}
330
CA
100
DictionaryVariables
280
     0
  1
Imperial24
  0
DICTIONARY
  5
1A
330
19
100
AcDbDictionary
280
     1
281
     1
  3
BUMPTILE
360
1C
  3
DIFFUSETILE
360
1B
  3
OPACITYTILE
360
1F
  3
REFLECTIONTILE
360
1E
  3
REFRACTIONTILE
360
20
  3
SPECULARTILE
360
1D
  0
DICTIONARY
  5
12
330
11
100
AcDbDictionary
280
     1
281
     1
  3
BUMPTILE
360
14
  3
DIFFUSETILE
360
13
  3
OPACITYTILE
360
17
  3
REFLECTIONTILE
360
16
  3
REFRACTIONTILE
360
18
  3
SPECULARTILE
360
15
  0
DICTIONARY
  5
22
330
21
100
AcDbDictionary
280
     1
281
     1
  3
BUMPTILE
360
24
  3
DIFFUSETILE
360
23
  3
OPACITYTILE
360
27
  3
REFLECTIONTILE
360
26
  3
REFRACTIONTILE
360
28
  3
SPECULARTILE
360
25
  0
DICTIONARY
  5
D0
330
65
100
AcDbDictionary
280
     1
281
     1
  3
ACAD_ROUNDTRIP_2008_TABLESTYLE_CELLSTYLEMAP
360
D1
  0
XRECORD
  5
1C
102
{ACAD_REACTORS
330
1A
102
}
330
1A
100
AcDbXrecord
280
     1
270
     1
271
     1
  0
XRECORD
  5
1B
102
{ACAD_REACTORS
330
1A
102
}
330
1A
100
AcDbXrecord
280
     1
270
     1
271
     1
  0
XRECORD
  5
1F
102
{ACAD_REACTORS
330
1A
102
}
330
1A
100
AcDbXrecord
280
     1
270
     1
271
     1
  0
XRECORD
  5
1E
102
{ACAD_REACTORS
330
1A
102
}
330
1A
100
AcDbXrecord
280
     1
270
     1
271
     1
  0
XRECORD
  5
20
102
{ACAD_REACTORS
330
1A
102
}
330
1A
100
AcDbXrecord
280
     1
270
     1
271
     1
  0
XRECORD
  5
1D
102
{ACAD_REACTORS
330
1A
102
}
330
1A
100
AcDbXrecord
280
     1
270
     1
271
     1
  0
XRECORD
  5
14
102
{ACAD_REACTORS
330
12
102
}
330
12
100
AcDbXrecord
280
     1
270
     1
271
     1
  0
XRECORD
  5
13
102
{ACAD_REACTORS
330
12
102
}
330
12
100
AcDbXrecord
280
     1
270
     1
271
     1
  0
XRECORD
  5
17
102
{ACAD_REACTORS
330
12
102
}
330
12
100
AcDbXrecord
280
     1
270
     1
271
     1
  0
XRECORD
  5
16
102
{ACAD_REACTORS
330
12
102
}
330
12
100
AcDbXrecord
280
     1
270
     1
271
     1
  0
XRECORD
  5
18
102
{ACAD_REACTORS
330
12
102
}
330
12
100
AcDbXrecord
280
     1
270
     1
271
     1
  0
XRECORD
  5
15
102
{ACAD_REACTORS
330
12
102
}
330
12
100
AcDbXrecord
280
     1
270
     1
271
     1
  0
XRECORD
  5
24
102
{ACAD_REACTORS
330
22
102
}
330
22
100
AcDbXrecord
280
     1
270
     1
271
     1
  0
XRECORD
  5
23
102
{ACAD_REACTORS
330
22
102
}
330
22
100
AcDbXrecord
280
     1
270
     1
271
     1
  0
XRECORD
  5
27
102
{ACAD_REACTORS
330
22
102
}
330
22
100
AcDbXrecord
280
     1
270
     1
271
     1
  0
XRECORD
  5
26
102
{ACAD_REACTORS
330
22
102
}
330
22
100
AcDbXrecord
280
     1
270
     1
271
     1
  0
XRECORD
  5
28
102
{ACAD_REACTORS
330
22
102
}
330
22
100
AcDbXrecord
280
     1
270
     1
271
     1
  0
XRECORD
  5
25
102
{ACAD_REACTORS
330
22
102
}
330
22
100
AcDbXrecord
280
     1
270
     1
271
     1
  0
CELLSTYLEMAP
  5
D1
102
{ACAD_REACTORS
330
D0
102
}
330
D0
100
AcDbCellStyleMap
 90
        3
300
CELLSTYLE
  1
TABLEFORMAT_BEGIN
 90
        5
170
     1
 91
        0
 92
    32768
 62
   257
 93
        1
300
CONTENTFORMAT
  1
CONTENTFORMAT_BEGIN
 90
        0
 91
        0
 92
      512
 93
        0
300

 40
0.0
140
1.0
 94
        5
 62
     0
340
55
144
0.25
309
CONTENTFORMAT_END
171
     0
 94
        0
309
TABLEFORMAT_END
  1
CELLSTYLE_BEGIN
 90
        1
 91
        1
300
_TITLE
309
CELLSTYLE_END
300
CELLSTYLE
  1
TABLEFORMAT_BEGIN
 90
        5
170
     1
 91
        0
 92
        0
 62
   257
 93
        1
300
CONTENTFORMAT
  1
CONTENTFORMAT_BEGIN
 90
        0
 91
        0
 92
      512
 93
        0
300

 40
0.0
140
1.0
 94
        5
 62
     0
340
55
144
0.18
309
CONTENTFORMAT_END
171
     0
 94
        0
309
TABLEFORMAT_END
  1
CELLSTYLE_BEGIN
 90
        2
 91
        1
300
_HEADER
309
CELLSTYLE_END
300
CELLSTYLE
  1
TABLEFORMAT_BEGIN
 90
        5
170
     1
 91
        0
 92
        0
 62
   257
 93
        1
300
CONTENTFORMAT
  1
CONTENTFORMAT_BEGIN
 90
        0
 91
        0
 92
      512
 93
        0
300

 40
0.0
140
1.0
 94
        2
 62
     0
340
55
144
0.18
309
CONTENTFORMAT_END
171
     0
 94
        0
309
TABLEFORMAT_END
  1
CELLSTYLE_BEGIN
 90
        3
 91
        2
300
_DATA
309
CELLSTYLE_END
  0
ENDSEC
  0
EOF
